<svg width="50" height="50" viewBox="0 0 50 50" fill="none" xmlns="http://www.w3.org/2000/svg">
<path fill-rule="evenodd" clip-rule="evenodd" d="M26.4853 37.0412C22.2441 37.0412 17.9353 34.5236 15.4206 31.1912C3.35589 31.1912 2.99118 48.4265 2.99118 48.4265H49.9765C49.9765 48.4265 50.9235 31.1147 37.3559 31.1147C34.8441 34.4883 30.7265 37.0412 26.4853 37.0412Z" fill="#434343"/>
<path fill-rule="evenodd" clip-rule="evenodd" d="M36.5912 16.3794C36.5912 21.3383 32.0647 30.8206 26.4765 30.8206C20.8971 30.8206 16.3676 21.3353 16.3676 16.3794C16.3676 11.4236 20.8941 7.40002 26.4765 7.40002C32.0647 7.40297 36.5912 11.4265 36.5912 16.3794Z" fill="#434343"/>
<path fill-rule="evenodd" clip-rule="evenodd" d="M41.103 12.1C41.103 11.1706 39.8088 10.4206 38.2029 10.4147V8.49998C38.2029 8.21469 38.3118 1.53528 26.5118 1.53528C14.7177 1.53528 14.8265 8.21469 14.8265 8.49998V10.4823C14.7971 10.4823 14.7735 10.4735 14.7471 10.4735C13.15 10.4735 11.8647 11.2117 11.8647 12.1265V20.2265C11.8647 21.1353 13.153 21.8765 14.7471 21.8765C16.3412 21.8765 17.6353 21.1353 17.6353 20.2265V12.1265C17.6353 12 17.5559 11.8853 17.5088 11.7676V9.55881C17.5088 9.35587 16.6618 4.31469 26.5118 4.31469C36.3647 4.31469 35.3412 9.35587 35.3412 9.55881V11.8853C35.3235 11.9588 35.2677 12.0235 35.2677 12.1V20.3853C35.2677 21.3176 36.5706 22.0735 38.1853 22.0735C38.2206 22.0735 38.2471 22.0617 38.2824 22.0617V25.0882H35.3882V27.9412H41.1324L41.103 12.1Z" fill="#434343"/>
</svg>
