<svg width="70" height="56" viewBox="0 0 70 56" fill="none" xmlns="http://www.w3.org/2000/svg">
<path d="M40.8333 49.0003H15.1666C11.945 49.0003 9.33331 46.3886 9.33331 43.167C9.33331 33.6452 23.3333 33.8336 28 33.8336C32.6666 33.8336 46.6666 33.6452 46.6666 43.167C46.6666 46.3886 44.055 49.0003 40.8333 49.0003Z" stroke="#001A72" stroke-width="2.5" stroke-linecap="round" stroke-linejoin="round"/>
<path d="M28 25.6667C33.1546 25.6667 37.3333 21.488 37.3333 16.3333C37.3333 11.1787 33.1546 7 28 7C22.8453 7 18.6666 11.1787 18.6666 16.3333C18.6666 21.488 22.8453 25.6667 28 25.6667Z" stroke="#001A72" stroke-width="2.5" stroke-linecap="round" stroke-linejoin="round"/>
<path d="M56 16.3333V21L58.3333 23.3333M66.5 21C66.5 26.799 61.799 31.5 56 31.5C50.201 31.5 45.5 26.799 45.5 21C45.5 15.201 50.201 10.5 56 10.5C61.799 10.5 66.5 15.201 66.5 21Z" stroke="#001A72" stroke-width="2.5" stroke-linecap="round" stroke-linejoin="round"/>
</svg>
