<svg width="50" height="50" viewBox="0 0 50 50" fill="none" xmlns="http://www.w3.org/2000/svg">
<path d="M25 20.8333C29.6024 20.8333 33.3333 17.1023 33.3333 12.5C33.3333 7.89759 29.6024 4.16663 25 4.16663C20.3976 4.16663 16.6667 7.89759 16.6667 12.5C16.6667 17.1023 20.3976 20.8333 25 20.8333Z" fill="#1C274C"/>
<path fill-rule="evenodd" clip-rule="evenodd" d="M34.375 45.8333C30.9377 45.8333 29.219 45.8333 28.1512 44.7654C27.0833 43.6977 27.0833 41.979 27.0833 38.5417C27.0833 35.1044 27.0833 33.3856 28.1512 32.3179C29.219 31.25 30.9377 31.25 34.375 31.25C37.8123 31.25 39.531 31.25 40.5987 32.3179C41.6667 33.3856 41.6667 35.1044 41.6667 38.5417C41.6667 41.979 41.6667 43.6977 40.5987 44.7654C39.531 45.8333 37.8123 45.8333 34.375 45.8333ZM38.475 36.9704C38.9496 36.4958 38.9496 35.7265 38.475 35.2519C38.0004 34.7771 37.231 34.7771 36.7565 35.2519L32.7546 39.2535L31.9935 38.4925C31.519 38.0179 30.7496 38.0179 30.275 38.4925C29.8004 38.9671 29.8004 39.7367 30.275 40.2112L31.8952 41.8315C32.3698 42.3062 33.1394 42.3062 33.614 41.8315L38.475 36.9704Z" fill="#1C274C"/>
<path d="M32.114 28.1405C30.0096 27.4671 27.5833 27.0834 25 27.0834C16.9459 27.0834 10.4167 30.8144 10.4167 35.4167C10.4167 39.8763 16.5468 43.5175 24.2544 43.7394C24.1979 43.4763 24.1542 43.215 24.1198 42.9586C23.9579 41.755 23.9581 40.2844 23.9583 38.7209V38.3625C23.9581 36.799 23.9579 35.3284 24.1198 34.1248C24.2998 32.7855 24.7302 31.3194 25.9415 30.1082C27.1529 28.8969 28.6188 28.4665 29.9581 28.2863C30.6081 28.199 31.3358 28.1588 32.114 28.1405Z" fill="#1C274C"/>
</svg>
