<svg width="65" height="65" viewBox="0 0 65 65" fill="none" xmlns="http://www.w3.org/2000/svg">
<path d="M32.5 5.41669C25.4042 5.41669 19.6354 11.1854 19.6354 18.2813C19.6354 25.2417 25.0792 30.875 32.175 31.1188C32.3917 31.0917 32.6083 31.0917 32.7708 31.1188C32.825 31.1188 32.8521 31.1188 32.9062 31.1188C32.9333 31.1188 32.9333 31.1188 32.9604 31.1188C39.8937 30.875 45.3375 25.2417 45.3646 18.2813C45.3646 11.1854 39.5958 5.41669 32.5 5.41669Z" fill="#292D32"/>
<path d="M46.2608 38.3199C38.7045 33.2824 26.3817 33.2824 18.7713 38.3199C15.3317 40.622 13.4359 43.7366 13.4359 47.0679C13.4359 50.3991 15.3317 53.4866 18.7442 55.7616C22.5359 58.3074 27.5191 59.5804 32.5024 59.5804C37.4858 59.5804 42.4691 58.3074 46.2608 55.7616C49.6733 53.4595 51.5691 50.372 51.5691 47.0137C51.542 43.6824 49.6733 40.5949 46.2608 38.3199ZM37.9191 49.0991H34.5337V52.4845C34.5337 53.5949 33.6128 54.5158 32.5024 54.5158C31.392 54.5158 30.4712 53.5949 30.4712 52.4845V49.0991H27.0858C25.9755 49.0991 25.0546 48.1783 25.0546 47.0679C25.0546 45.9574 25.9755 45.0366 27.0858 45.0366H30.4712V41.6512C30.4712 40.5408 31.392 39.6199 32.5024 39.6199C33.6128 39.6199 34.5337 40.5408 34.5337 41.6512V45.0366H37.9191C39.0295 45.0366 39.9503 45.9574 39.9503 47.0679C39.9503 48.1783 39.0295 49.0991 37.9191 49.0991Z" fill="#292D32"/>
</svg>
