<svg width="65" height="65" viewBox="0 0 65 65" fill="none" xmlns="http://www.w3.org/2000/svg">
<path d="M13.5417 18.9584C13.5417 11.4795 19.6045 5.41669 27.0833 5.41669C34.5621 5.41669 40.625 11.4795 40.625 18.9584C40.625 26.4372 34.5621 32.5 27.0833 32.5C19.6045 32.5 13.5417 26.4372 13.5417 18.9584Z" fill="#152C70"/>
<path d="M25.8523 37.9167C26.8544 37.9167 27.8368 38.0009 28.7928 38.1629C27.6951 40.5625 27.0833 43.2307 27.0833 46.0417C27.0833 51.3465 29.2622 56.1424 32.7735 59.5833H9.60226C7.29061 59.5833 5.41666 57.7094 5.41666 55.3976C5.41666 55.2137 5.41951 55.0306 5.42514 54.8481C5.41951 54.7506 5.41666 54.6526 5.41666 54.5537C5.41666 45.3654 12.8653 37.9167 22.0536 37.9167H25.8523Z" fill="#152C70"/>
<path fill-rule="evenodd" clip-rule="evenodd" d="M59.5833 46.0417C59.5833 53.5205 53.5205 59.5833 46.0417 59.5833C38.5629 59.5833 32.5 53.5205 32.5 46.0417C32.5 38.5629 38.5629 32.5 46.0417 32.5C53.5205 32.5 59.5833 38.5629 59.5833 46.0417ZM52.8946 44.7696L46.1237 51.5404C45.3305 52.3337 44.0432 52.3323 43.2499 51.539L40.5429 48.8321C39.7497 48.0388 39.7497 46.7529 40.5429 45.9596C41.3362 45.1663 42.6221 45.1663 43.4154 45.9596L44.6875 47.2314L50.0221 41.8971C50.8154 41.1038 52.1013 41.1038 52.8946 41.8971C53.6878 42.6904 53.6878 43.9763 52.8946 44.7696Z" fill="#152C70"/>
</svg>
