<svg width="55" height="55" viewBox="0 0 55 55" fill="none" xmlns="http://www.w3.org/2000/svg">
<path fill-rule="evenodd" clip-rule="evenodd" d="M27.5 0.416687C22.42 0.416687 18.1529 0.685354 14.6356 1.46703C11.0875 2.25556 8.13855 3.60169 5.8701 5.87013C3.60166 8.13858 2.25553 11.0876 1.467 14.6356C0.685323 18.153 0.416656 22.42 0.416656 27.5C0.416656 32.58 0.685323 36.847 1.467 40.3643C2.25553 43.9125 3.60166 46.8614 5.8701 49.1299C8.13855 51.3984 11.0875 52.7444 14.6356 53.5331C18.1529 54.3147 22.42 54.5834 27.5 54.5834C32.58 54.5834 36.847 54.3147 40.3643 53.5331C43.9125 52.7444 46.8613 51.3984 49.1298 49.1299C51.3983 46.8614 52.7444 43.9125 53.533 40.3643C54.3147 36.847 54.5833 32.58 54.5833 27.5C54.5833 22.42 54.3147 18.153 53.533 14.6356C52.7444 11.0876 51.3983 8.13858 49.1298 5.87013C46.8613 3.60169 43.9125 2.25556 40.3643 1.46703C36.847 0.685354 32.58 0.416687 27.5 0.416687ZM27.5 11.25C28.9958 11.25 30.2083 12.4626 30.2083 13.9584V14.2154C31.8195 14.5332 33.1103 15.1073 34.0967 15.7164C34.8315 16.1701 35.3834 16.6341 35.7677 17.0063C36.0925 17.3208 36.2739 17.5297 36.447 17.7628L36.4489 17.7652C37.338 18.9681 37.0834 20.664 35.8807 21.553C34.6939 22.4303 33.0253 22.1922 32.1272 21.0303C32.0568 20.949 31.4886 20.2931 30.2083 19.8217V25.0663C34.5292 25.9815 37.3177 29.0868 37.3177 32.9167C37.3177 36.7465 34.5292 39.8519 30.2083 40.7671V41.0417C30.2083 42.5375 28.9958 43.75 27.5 43.75C26.0042 43.75 24.7917 42.5375 24.7917 41.0417V40.7305C23.3684 40.4012 22.1686 39.8571 21.2475 39.3306C20.3798 38.8349 19.5244 38.2494 18.8141 37.5401C17.7565 36.4825 17.7565 34.7676 18.8142 33.71C19.8668 32.6572 21.5703 32.6524 22.6291 33.6948C22.6764 33.7398 23.5553 34.5281 24.7917 35.0536V29.9337C20.4709 29.0186 17.6823 25.9132 17.6823 22.0834C17.6823 18.2534 20.4709 15.148 24.7917 14.233V13.9584C24.7917 12.4626 26.0042 11.25 27.5 11.25Z" fill="#323232"/>
</svg>
