<svg width="65" height="65" viewBox="0 0 65 65" fill="none" xmlns="http://www.w3.org/2000/svg">
<g clip-path="url(#clip0_4_57)">
<path d="M32.5005 61.1381C40.0892 61.1381 46.2411 54.9862 46.2411 47.3975C46.2411 39.8087 40.0892 33.6569 32.5005 33.6569C24.9118 33.6569 18.7599 39.8087 18.7599 47.3975C18.7599 54.9862 24.9118 61.1381 32.5005 61.1381Z" fill="#E21B1B"/>
<path d="M31.235 57.1791V54.9122C29.6343 54.8401 28.0835 54.4105 27.1755 53.8854L27.8925 51.0914C28.896 51.6398 30.3037 52.1415 31.8576 52.1415C33.2185 52.1415 34.1499 51.6164 34.1499 50.6617C34.1499 49.7538 33.3861 49.1799 31.6179 48.5827C29.0625 47.7235 27.3187 46.5291 27.3187 44.2134C27.3187 42.1111 28.8005 40.4647 31.3548 39.963V37.694H33.6939V39.7964C35.2945 39.8685 36.3691 40.2006 37.1572 40.5835L36.4645 43.2821C35.844 43.0201 34.7461 42.4696 33.0246 42.4696C31.4727 42.4696 30.9709 43.1389 30.9709 43.8072C30.9709 44.5943 31.8068 45.096 33.8371 45.8608C36.6778 46.8643 37.8255 48.1765 37.8255 50.3276C37.8255 52.4533 36.3203 54.2673 33.575 54.7456V57.1801H31.235V57.1791Z" fill="white"/>
<path d="M13.7406 31.3432C21.3293 31.3432 27.4812 25.1913 27.4812 17.6026C27.4812 10.0139 21.3293 3.862 13.7406 3.862C6.15188 3.862 0 10.0139 0 17.6026C0 25.1913 6.15188 31.3432 13.7406 31.3432Z" fill="#E21B1B"/>
<path d="M12.4751 27.3842V25.1173C10.8745 25.0452 9.32357 24.6156 8.41559 24.0905L9.13263 21.2965C10.1361 21.8449 11.5438 22.3467 13.0977 22.3467C14.4587 22.3467 15.39 21.8216 15.39 20.8669C15.39 19.9589 14.6262 19.3851 12.858 18.7879C10.3026 17.9286 8.55879 16.7342 8.55879 14.4186C8.55879 12.3162 10.0406 10.6698 12.595 10.1681V7.89917H14.934V10.0015C16.5346 10.0737 17.6092 10.4058 18.3973 10.7887L17.7046 13.4872C17.0841 13.2252 15.9862 12.6747 14.2647 12.6747C12.7128 12.6747 12.211 13.344 12.211 14.0123C12.211 14.7994 13.0469 15.3012 15.0772 16.0659C17.9179 17.0694 19.0656 18.3816 19.0656 20.5327C19.0656 22.6585 17.5604 24.4724 14.8151 24.9508V27.3853H12.4751V27.3842Z" fill="white"/>
<path d="M51.2594 31.3432C58.8481 31.3432 65 25.1913 65 17.6026C65 10.0139 58.8481 3.862 51.2594 3.862C43.6707 3.862 37.5188 10.0139 37.5188 17.6026C37.5188 25.1913 43.6707 31.3432 51.2594 31.3432Z" fill="#E21B1B"/>
<path d="M49.9939 27.3842V25.1173C48.3933 25.0452 46.8424 24.6156 45.9344 24.0905L46.6514 21.2965C47.6549 21.8449 49.0626 22.3467 50.6165 22.3467C51.9775 22.3467 52.9088 21.8216 52.9088 20.8669C52.9088 19.9589 52.145 19.3851 50.3768 18.7879C47.8214 17.9286 46.0776 16.7342 46.0776 14.4186C46.0776 12.3162 47.5594 10.6698 50.1137 10.1681V7.89917H52.4528V10.0015C54.0534 10.0737 55.128 10.4058 55.9161 10.7887L55.2234 13.4872C54.6029 13.2252 53.505 12.6747 51.7835 12.6747C50.2316 12.6747 49.7298 13.344 49.7298 14.0123C49.7298 14.7994 50.5657 15.3012 52.596 16.0659C55.4367 17.0694 56.5844 18.3816 56.5844 20.5327C56.5844 22.6585 55.0792 24.4724 52.3339 24.9508V27.3853H49.9939V27.3842Z" fill="white"/>
</g>
<defs>
<clipPath id="clip0_4_57">
<rect width="65" height="65" fill="white"/>
</clipPath>
</defs>
</svg>
