<svg width="65" height="65" viewBox="0 0 65 65" fill="none" xmlns="http://www.w3.org/2000/svg">
<g clip-path="url(#clip0_4_147)">
<path d="M48.75 55.575H20.3125C9.82921 55.575 1.29999 47.0458 1.29999 36.5625C1.29999 26.0772 9.82921 17.55 20.3125 17.55C21.2936 17.55 22.3112 17.6353 23.3451 17.8039C26.5931 13.7637 31.3869 11.4562 36.5625 11.4562C45.2522 11.4562 52.4144 17.8587 53.4178 26.4306C59.4953 28.4273 63.7 34.1941 63.7 40.625C63.7 48.8698 56.9948 55.575 48.75 55.575ZM20.3125 19.0105C10.6356 19.0105 2.76249 26.8836 2.76249 36.5625C2.76249 46.2394 10.6356 54.1125 20.3125 54.1125H48.75C56.1864 54.1125 62.2375 48.0614 62.2375 40.625C62.2375 34.6734 58.2481 29.3536 52.5362 27.6859C52.2458 27.6006 52.0386 27.3487 52.0122 27.0481C51.2951 18.9942 44.653 12.9167 36.5625 12.9167C31.6976 12.9167 27.2025 15.1491 24.2308 19.043C24.0622 19.2623 23.7859 19.3619 23.5158 19.3192C22.4047 19.112 21.3566 19.0105 20.3125 19.0105ZM48.75 45.4187H28.4375V43.9562H48.75V45.4187ZM24.375 45.4187H16.25V43.9562H24.375V45.4187ZM52.8125 39.325H32.5V37.8625H52.8125V39.325ZM28.4375 39.325H12.1875V37.8625H28.4375V39.325ZM48.75 33.2312H40.625V31.7687H48.75V33.2312ZM36.5625 33.2312H16.25V31.7687H36.5625V33.2312Z" fill="black"/>
</g>
<defs>
<clipPath id="clip0_4_147">
<rect width="65" height="65" fill="white"/>
</clipPath>
</defs>
</svg>
