<svg width="65" height="65" viewBox="0 0 65 65" fill="none" xmlns="http://www.w3.org/2000/svg">
<path d="M56.875 10.8333H8.125C7.40671 10.8333 6.71783 11.1187 6.20992 11.6266C5.70201 12.1345 5.41667 12.8234 5.41667 13.5416V51.4583C5.41667 52.1766 5.70201 52.8655 6.20992 53.3734C6.71783 53.8813 7.40671 54.1666 8.125 54.1666H56.875C57.5933 54.1666 58.2822 53.8813 58.7901 53.3734C59.298 52.8655 59.5833 52.1766 59.5833 51.4583V13.5416C59.5833 12.8234 59.298 12.1345 58.7901 11.6266C58.2822 11.1187 57.5933 10.8333 56.875 10.8333ZM18.9583 18.9583C20.0296 18.9583 21.0769 19.276 21.9677 19.8712C22.8584 20.4664 23.5527 21.3123 23.9627 22.3021C24.3727 23.2919 24.4799 24.381 24.2709 25.4317C24.0619 26.4824 23.546 27.4476 22.7885 28.2051C22.031 28.9627 21.0658 29.4786 20.0151 29.6876C18.9643 29.8966 17.8752 29.7893 16.8855 29.3793C15.8957 28.9694 15.0497 28.2751 14.4545 27.3843C13.8594 26.4936 13.5417 25.4463 13.5417 24.375C13.5417 22.9384 14.1124 21.5606 15.1282 20.5448C16.144 19.529 17.5217 18.9583 18.9583 18.9583ZM54.1667 48.75H10.8333V44.2352L21.6667 35.2083L29.4044 41.0123L43.3333 27.0833L54.1667 41.5269V48.75Z" fill="black"/>
</svg>
