<svg width="65" height="65" viewBox="0 0 65 65" fill="none" xmlns="http://www.w3.org/2000/svg">
<path fill-rule="evenodd" clip-rule="evenodd" d="M46.7188 16.25C44.4762 16.25 42.6562 14.43 42.6562 12.1875V4.0625L54.8438 16.25H46.7188ZM42.6562 0V0.0568748C42.3963 0.0568748 14.2188 0 14.2188 0C9.73172 0 6.09375 3.63797 6.09375 8.125V56.875C6.09375 61.362 9.73172 65 14.2188 65H50.7812C55.2683 65 58.9062 61.362 58.9062 56.875V20.3125V16.25L42.6562 0Z" fill="black"/>
<path d="M31.6143 54.1818V22.3636H33.6527V54.1818H31.6143ZM37.021 32.8661C36.9215 31.8635 36.4948 31.0846 35.7408 30.5295C34.9867 29.9743 33.9634 29.6967 32.6708 29.6967C31.7925 29.6967 31.0509 29.821 30.446 30.0696C29.8411 30.3099 29.3771 30.6455 29.054 31.0763C28.7391 31.5072 28.5817 31.9961 28.5817 32.543C28.5651 32.9987 28.6604 33.3964 28.8675 33.7362C29.083 34.0759 29.3771 34.37 29.75 34.6186C30.1229 34.8589 30.5537 35.0702 31.0426 35.2525C31.5315 35.4265 32.0535 35.5756 32.6087 35.6999L34.8956 36.2468C36.0059 36.4954 37.0251 36.8268 37.9531 37.2411C38.8812 37.6554 39.6849 38.165 40.3643 38.7699C41.0438 39.3748 41.57 40.0874 41.9428 40.9077C42.324 41.728 42.5187 42.6684 42.527 43.729C42.5187 45.2868 42.121 46.6374 41.3338 47.7809C40.5549 48.9161 39.428 49.7985 37.9531 50.4283C36.4865 51.0497 34.7174 51.3604 32.646 51.3604C30.591 51.3604 28.8013 51.0456 27.2766 50.4158C25.7603 49.7861 24.5754 48.8539 23.7219 47.6193C22.8768 46.3764 22.4335 44.8394 22.392 43.0082H27.5998C27.6578 43.8616 27.9022 44.5742 28.3331 45.146C28.7723 45.7094 29.3564 46.1361 30.0856 46.4261C30.823 46.7079 31.6558 46.8487 32.5838 46.8487C33.4953 46.8487 34.2866 46.7161 34.9577 46.451C35.6372 46.1858 36.1634 45.8171 36.5362 45.3448C36.9091 44.8725 37.0955 44.3298 37.0955 43.7166C37.0955 43.1449 36.9257 42.6643 36.5859 42.2749C36.2545 41.8854 35.7656 41.554 35.1193 41.2805C34.4813 41.0071 33.6983 40.7585 32.7702 40.5348L29.9986 39.8388C27.8525 39.3168 26.158 38.5006 24.9151 37.3903C23.6722 36.2799 23.0549 34.7843 23.0632 32.9034C23.0549 31.3622 23.4651 30.0157 24.2937 28.864C25.1306 27.7122 26.2782 26.8132 27.7365 26.1669C29.1948 25.5206 30.852 25.1974 32.7081 25.1974C34.5973 25.1974 36.2462 25.5206 37.6548 26.1669C39.0717 26.8132 40.1738 27.7122 40.9609 28.864C41.7481 30.0157 42.1541 31.3498 42.179 32.8661H37.021Z" fill="white"/>
<rect x="14" y="7" width="15" height="3" fill="white"/>
<rect x="14" y="11" width="15" height="3" fill="white"/>
</svg>
