<svg xmlns="http://www.w3.org/2000/svg" xmlns:xlink="http://www.w3.org/1999/xlink" width="1080" zoomAndPan="magnify" viewBox="0 0 810 809.999993" height="1080" preserveAspectRatio="xMidYMid meet" version="1.0"><defs><filter x="0%" y="0%" width="100%" height="100%" id="4167eebe2a"><feColorMatrix values="0 0 0 0 1 0 0 0 0 1 0 0 0 0 1 0 0 0 1 0" color-interpolation-filters="sRGB"/></filter><mask id="d1668ed44b"><g filter="url(#4167eebe2a)"><rect x="-81" width="972" fill="#000000" y="-80.999999" height="971.999992" fill-opacity="0.12"/></g></mask><clipPath id="69f521f0fe"><path d="M 1.117188 1 L 77 1 L 77 77 L 1.117188 77 Z M 1.117188 1 " clip-rule="nonzero"/></clipPath><clipPath id="c08170d3b0"><path d="M 587 1 L 663.367188 1 L 663.367188 77 L 587 77 Z M 587 1 " clip-rule="nonzero"/></clipPath><clipPath id="f7598b6ebc"><path d="M 1.117188 74 L 77 74 L 77 151 L 1.117188 151 Z M 1.117188 74 " clip-rule="nonzero"/></clipPath><clipPath id="3a5ee3778e"><path d="M 587 74 L 663.367188 74 L 663.367188 151 L 587 151 Z M 587 74 " clip-rule="nonzero"/></clipPath><clipPath id="9c088ed84d"><path d="M 1.117188 147 L 77 147 L 77 224 L 1.117188 224 Z M 1.117188 147 " clip-rule="nonzero"/></clipPath><clipPath id="1733de06c4"><path d="M 587 147 L 663.367188 147 L 663.367188 224 L 587 224 Z M 587 147 " clip-rule="nonzero"/></clipPath><clipPath id="f5b3df4f99"><path d="M 1.117188 221 L 77 221 L 77 297 L 1.117188 297 Z M 1.117188 221 " clip-rule="nonzero"/></clipPath><clipPath id="8b2c64a87b"><path d="M 587 221 L 663.367188 221 L 663.367188 297 L 587 297 Z M 587 221 " clip-rule="nonzero"/></clipPath><clipPath id="b4f3dcbdb5"><path d="M 1.117188 294 L 77 294 L 77 371 L 1.117188 371 Z M 1.117188 294 " clip-rule="nonzero"/></clipPath><clipPath id="b0a7798d20"><path d="M 587 294 L 663.367188 294 L 663.367188 371 L 587 371 Z M 587 294 " clip-rule="nonzero"/></clipPath><clipPath id="0e1b77c0c0"><path d="M 1.117188 367 L 77 367 L 77 444 L 1.117188 444 Z M 1.117188 367 " clip-rule="nonzero"/></clipPath><clipPath id="3aff186170"><path d="M 587 367 L 663.367188 367 L 663.367188 444 L 587 444 Z M 587 367 " clip-rule="nonzero"/></clipPath><clipPath id="b134a7ef5a"><path d="M 1.117188 440 L 77 440 L 77 517 L 1.117188 517 Z M 1.117188 440 " clip-rule="nonzero"/></clipPath><clipPath id="415bf5a478"><path d="M 587 440 L 663.367188 440 L 663.367188 517 L 587 517 Z M 587 440 " clip-rule="nonzero"/></clipPath><clipPath id="a74a27088d"><path d="M 1.117188 514 L 77 514 L 77 590 L 1.117188 590 Z M 1.117188 514 " clip-rule="nonzero"/></clipPath><clipPath id="a0dfd92eb8"><path d="M 587 514 L 663.367188 514 L 663.367188 590 L 587 590 Z M 587 514 " clip-rule="nonzero"/></clipPath><clipPath id="0d97f82070"><path d="M 1.117188 587 L 77 587 L 77 663.25 L 1.117188 663.25 Z M 1.117188 587 " clip-rule="nonzero"/></clipPath><clipPath id="9b384cc867"><path d="M 74 587 L 151 587 L 151 663.25 L 74 663.25 Z M 74 587 " clip-rule="nonzero"/></clipPath><clipPath id="e0380b3008"><path d="M 147 587 L 224 587 L 224 663.25 L 147 663.25 Z M 147 587 " clip-rule="nonzero"/></clipPath><clipPath id="3e86861568"><path d="M 221 587 L 297 587 L 297 663.25 L 221 663.25 Z M 221 587 " clip-rule="nonzero"/></clipPath><clipPath id="4f3f67d0d1"><path d="M 294 587 L 371 587 L 371 663.25 L 294 663.25 Z M 294 587 " clip-rule="nonzero"/></clipPath><clipPath id="0f51d74612"><path d="M 367 587 L 444 587 L 444 663.25 L 367 663.25 Z M 367 587 " clip-rule="nonzero"/></clipPath><clipPath id="10b36e4267"><path d="M 440 587 L 517 587 L 517 663.25 L 440 663.25 Z M 440 587 " clip-rule="nonzero"/></clipPath><clipPath id="6ad25e7c65"><path d="M 514 587 L 590 587 L 590 663.25 L 514 663.25 Z M 514 587 " clip-rule="nonzero"/></clipPath><clipPath id="4b15ac0744"><path d="M 587 587 L 663.367188 587 L 663.367188 663.25 L 587 663.25 Z M 587 587 " clip-rule="nonzero"/></clipPath><clipPath id="9511a5c374"><rect x="0" width="664" y="0" height="664"/></clipPath><mask id="3d0d9c19b0"><g filter="url(#4167eebe2a)"><rect x="-81" width="972" fill="#000000" y="-80.999999" height="971.999992" fill-opacity="0.12"/></g></mask><clipPath id="34943ec9d0"><path d="M 0.25 1 L 76 1 L 76 77 L 0.25 77 Z M 0.25 1 " clip-rule="nonzero"/></clipPath><clipPath id="bc18b46165"><path d="M 73 1 L 79 1 L 79 77 L 73 77 Z M 73 1 " clip-rule="nonzero"/></clipPath><clipPath id="cde095cd44"><path d="M 0.25 74 L 76 74 L 76 151 L 0.25 151 Z M 0.25 74 " clip-rule="nonzero"/></clipPath><clipPath id="79aa94051b"><path d="M 73 74 L 79 74 L 79 151 L 73 151 Z M 73 74 " clip-rule="nonzero"/></clipPath><clipPath id="42c48b56b1"><path d="M 0.25 147 L 76 147 L 76 224 L 0.25 224 Z M 0.25 147 " clip-rule="nonzero"/></clipPath><clipPath id="045f0af24d"><path d="M 73 147 L 79 147 L 79 224 L 73 224 Z M 73 147 " clip-rule="nonzero"/></clipPath><clipPath id="a7f9f54c16"><path d="M 0.25 221 L 76 221 L 76 297 L 0.25 297 Z M 0.25 221 " clip-rule="nonzero"/></clipPath><clipPath id="bfc8b80993"><path d="M 73 221 L 79 221 L 79 297 L 73 297 Z M 73 221 " clip-rule="nonzero"/></clipPath><clipPath id="a4819a567d"><path d="M 0.25 294 L 76 294 L 76 371 L 0.25 371 Z M 0.25 294 " clip-rule="nonzero"/></clipPath><clipPath id="c51f8c4370"><path d="M 73 294 L 79 294 L 79 371 L 73 371 Z M 73 294 " clip-rule="nonzero"/></clipPath><clipPath id="b4293531c3"><path d="M 0.25 367 L 76 367 L 76 444 L 0.25 444 Z M 0.25 367 " clip-rule="nonzero"/></clipPath><clipPath id="08c8f3c550"><path d="M 73 367 L 79 367 L 79 444 L 73 444 Z M 73 367 " clip-rule="nonzero"/></clipPath><clipPath id="56c7cfac05"><path d="M 0.25 440 L 76 440 L 76 517 L 0.25 517 Z M 0.25 440 " clip-rule="nonzero"/></clipPath><clipPath id="d46b60ab95"><path d="M 73 440 L 79 440 L 79 517 L 73 517 Z M 73 440 " clip-rule="nonzero"/></clipPath><clipPath id="5d6b68b16b"><path d="M 0.25 514 L 76 514 L 76 590 L 0.25 590 Z M 0.25 514 " clip-rule="nonzero"/></clipPath><clipPath id="d920631aef"><path d="M 73 514 L 79 514 L 79 590 L 73 590 Z M 73 514 " clip-rule="nonzero"/></clipPath><clipPath id="19b0910eb6"><path d="M 0.25 587 L 76 587 L 76 663.25 L 0.25 663.25 Z M 0.25 587 " clip-rule="nonzero"/></clipPath><clipPath id="3761cf520e"><path d="M 73 587 L 79 587 L 79 663.25 L 73 663.25 Z M 73 587 " clip-rule="nonzero"/></clipPath><clipPath id="5b8cae5778"><rect x="0" width="79" y="0" height="664"/></clipPath></defs><g mask="url(#d1668ed44b)"><g transform="matrix(1, 0, 0, 1, 68, 80)"><g clip-path="url(#9511a5c374)"><g clip-path="url(#69f521f0fe)"><path fill="#000000" d="M 76.789062 76.765625 L 1.085938 76.765625 L 1.085938 1.0625 L 76.789062 1.0625 Z M 3.46875 74.378906 L 74.402344 74.378906 L 74.402344 3.449219 L 3.46875 3.449219 Z M 3.46875 74.378906 " fill-opacity="1" fill-rule="nonzero"/></g><path fill="#000000" d="M 150.105469 76.765625 L 74.402344 76.765625 L 74.402344 1.0625 L 150.105469 1.0625 Z M 76.789062 74.378906 L 147.722656 74.378906 L 147.722656 3.449219 L 76.789062 3.449219 Z M 76.789062 74.378906 " fill-opacity="1" fill-rule="nonzero"/><path fill="#000000" d="M 223.425781 76.765625 L 147.722656 76.765625 L 147.722656 1.0625 L 223.425781 1.0625 Z M 150.105469 74.378906 L 221.039062 74.378906 L 221.039062 3.449219 L 150.105469 3.449219 Z M 150.105469 74.378906 " fill-opacity="1" fill-rule="nonzero"/><path fill="#000000" d="M 296.742188 76.765625 L 221.039062 76.765625 L 221.039062 1.0625 L 296.742188 1.0625 Z M 223.425781 74.378906 L 294.359375 74.378906 L 294.359375 3.449219 L 223.425781 3.449219 Z M 223.425781 74.378906 " fill-opacity="1" fill-rule="nonzero"/><path fill="#000000" d="M 370.0625 76.765625 L 294.359375 76.765625 L 294.359375 1.0625 L 370.0625 1.0625 Z M 296.742188 74.378906 L 367.675781 74.378906 L 367.675781 3.449219 L 296.742188 3.449219 Z M 296.742188 74.378906 " fill-opacity="1" fill-rule="nonzero"/><path fill="#000000" d="M 443.378906 76.765625 L 367.675781 76.765625 L 367.675781 1.0625 L 443.378906 1.0625 Z M 370.0625 74.378906 L 440.996094 74.378906 L 440.996094 3.449219 L 370.0625 3.449219 Z M 370.0625 74.378906 " fill-opacity="1" fill-rule="nonzero"/><path fill="#000000" d="M 516.683594 76.765625 L 440.980469 76.765625 L 440.980469 1.0625 L 516.683594 1.0625 Z M 443.378906 74.378906 L 514.3125 74.378906 L 514.3125 3.449219 L 443.378906 3.449219 Z M 443.378906 74.378906 " fill-opacity="1" fill-rule="nonzero"/><path fill="#000000" d="M 590 76.765625 L 514.296875 76.765625 L 514.296875 1.0625 L 590 1.0625 Z M 516.683594 74.378906 L 587.617188 74.378906 L 587.617188 3.449219 L 516.683594 3.449219 Z M 516.683594 74.378906 " fill-opacity="1" fill-rule="nonzero"/><g clip-path="url(#c08170d3b0)"><path fill="#000000" d="M 663.320312 76.765625 L 587.617188 76.765625 L 587.617188 1.0625 L 663.320312 1.0625 Z M 590 74.378906 L 660.933594 74.378906 L 660.933594 3.449219 L 590 3.449219 Z M 590 74.378906 " fill-opacity="1" fill-rule="nonzero"/></g><g clip-path="url(#f7598b6ebc)"><path fill="#000000" d="M 76.789062 150.085938 L 1.085938 150.085938 L 1.085938 74.378906 L 76.789062 74.378906 Z M 3.46875 147.699219 L 74.402344 147.699219 L 74.402344 76.765625 L 3.46875 76.765625 Z M 3.46875 147.699219 " fill-opacity="1" fill-rule="nonzero"/></g><path fill="#000000" d="M 150.105469 150.085938 L 74.402344 150.085938 L 74.402344 74.378906 L 150.105469 74.378906 Z M 76.789062 147.699219 L 147.722656 147.699219 L 147.722656 76.765625 L 76.789062 76.765625 Z M 76.789062 147.699219 " fill-opacity="1" fill-rule="nonzero"/><path fill="#000000" d="M 223.425781 150.085938 L 147.722656 150.085938 L 147.722656 74.378906 L 223.425781 74.378906 Z M 150.105469 147.699219 L 221.039062 147.699219 L 221.039062 76.765625 L 150.105469 76.765625 Z M 150.105469 147.699219 " fill-opacity="1" fill-rule="nonzero"/><path fill="#000000" d="M 296.742188 150.085938 L 221.039062 150.085938 L 221.039062 74.378906 L 296.742188 74.378906 Z M 223.425781 147.699219 L 294.359375 147.699219 L 294.359375 76.765625 L 223.425781 76.765625 Z M 223.425781 147.699219 " fill-opacity="1" fill-rule="nonzero"/><path fill="#000000" d="M 370.0625 150.085938 L 294.359375 150.085938 L 294.359375 74.378906 L 370.0625 74.378906 Z M 296.742188 147.699219 L 367.675781 147.699219 L 367.675781 76.765625 L 296.742188 76.765625 Z M 296.742188 147.699219 " fill-opacity="1" fill-rule="nonzero"/><path fill="#000000" d="M 443.378906 150.085938 L 367.675781 150.085938 L 367.675781 74.378906 L 443.378906 74.378906 Z M 370.0625 147.699219 L 440.996094 147.699219 L 440.996094 76.765625 L 370.0625 76.765625 Z M 370.0625 147.699219 " fill-opacity="1" fill-rule="nonzero"/><path fill="#000000" d="M 516.683594 150.085938 L 440.980469 150.085938 L 440.980469 74.378906 L 516.683594 74.378906 Z M 443.378906 147.699219 L 514.3125 147.699219 L 514.3125 76.765625 L 443.378906 76.765625 Z M 443.378906 147.699219 " fill-opacity="1" fill-rule="nonzero"/><path fill="#000000" d="M 590 150.085938 L 514.296875 150.085938 L 514.296875 74.378906 L 590 74.378906 Z M 516.683594 147.699219 L 587.617188 147.699219 L 587.617188 76.765625 L 516.683594 76.765625 Z M 516.683594 147.699219 " fill-opacity="1" fill-rule="nonzero"/><g clip-path="url(#3a5ee3778e)"><path fill="#000000" d="M 663.320312 150.085938 L 587.617188 150.085938 L 587.617188 74.378906 L 663.320312 74.378906 Z M 590 147.699219 L 660.933594 147.699219 L 660.933594 76.765625 L 590 76.765625 Z M 590 147.699219 " fill-opacity="1" fill-rule="nonzero"/></g><g clip-path="url(#9c088ed84d)"><path fill="#000000" d="M 76.789062 223.402344 L 1.085938 223.402344 L 1.085938 147.699219 L 76.789062 147.699219 Z M 3.46875 221.015625 L 74.402344 221.015625 L 74.402344 150.085938 L 3.46875 150.085938 Z M 3.46875 221.015625 " fill-opacity="1" fill-rule="nonzero"/></g><path fill="#000000" d="M 150.105469 223.402344 L 74.402344 223.402344 L 74.402344 147.699219 L 150.105469 147.699219 Z M 76.789062 221.015625 L 147.722656 221.015625 L 147.722656 150.085938 L 76.789062 150.085938 Z M 76.789062 221.015625 " fill-opacity="1" fill-rule="nonzero"/><path fill="#000000" d="M 223.425781 223.402344 L 147.722656 223.402344 L 147.722656 147.699219 L 223.425781 147.699219 Z M 150.105469 221.015625 L 221.039062 221.015625 L 221.039062 150.085938 L 150.105469 150.085938 Z M 150.105469 221.015625 " fill-opacity="1" fill-rule="nonzero"/><path fill="#000000" d="M 296.742188 223.402344 L 221.039062 223.402344 L 221.039062 147.699219 L 296.742188 147.699219 Z M 223.425781 221.015625 L 294.359375 221.015625 L 294.359375 150.085938 L 223.425781 150.085938 Z M 223.425781 221.015625 " fill-opacity="1" fill-rule="nonzero"/><path fill="#000000" d="M 370.0625 223.402344 L 294.359375 223.402344 L 294.359375 147.699219 L 370.0625 147.699219 Z M 296.742188 221.015625 L 367.675781 221.015625 L 367.675781 150.085938 L 296.742188 150.085938 Z M 296.742188 221.015625 " fill-opacity="1" fill-rule="nonzero"/><path fill="#000000" d="M 443.378906 223.402344 L 367.675781 223.402344 L 367.675781 147.699219 L 443.378906 147.699219 Z M 370.0625 221.015625 L 440.996094 221.015625 L 440.996094 150.085938 L 370.0625 150.085938 Z M 370.0625 221.015625 " fill-opacity="1" fill-rule="nonzero"/><path fill="#000000" d="M 516.683594 223.402344 L 440.980469 223.402344 L 440.980469 147.699219 L 516.683594 147.699219 Z M 443.378906 221.015625 L 514.3125 221.015625 L 514.3125 150.085938 L 443.378906 150.085938 Z M 443.378906 221.015625 " fill-opacity="1" fill-rule="nonzero"/><path fill="#000000" d="M 590 223.402344 L 514.296875 223.402344 L 514.296875 147.699219 L 590 147.699219 Z M 516.683594 221.015625 L 587.617188 221.015625 L 587.617188 150.085938 L 516.683594 150.085938 Z M 516.683594 221.015625 " fill-opacity="1" fill-rule="nonzero"/><g clip-path="url(#1733de06c4)"><path fill="#000000" d="M 663.320312 223.402344 L 587.617188 223.402344 L 587.617188 147.699219 L 663.320312 147.699219 Z M 590 221.015625 L 660.933594 221.015625 L 660.933594 150.085938 L 590 150.085938 Z M 590 221.015625 " fill-opacity="1" fill-rule="nonzero"/></g><g clip-path="url(#f5b3df4f99)"><path fill="#000000" d="M 76.789062 296.722656 L 1.085938 296.722656 L 1.085938 221.015625 L 76.789062 221.015625 Z M 3.46875 294.335938 L 74.402344 294.335938 L 74.402344 223.402344 L 3.46875 223.402344 Z M 3.46875 294.335938 " fill-opacity="1" fill-rule="nonzero"/></g><path fill="#000000" d="M 150.105469 296.722656 L 74.402344 296.722656 L 74.402344 221.015625 L 150.105469 221.015625 Z M 76.789062 294.335938 L 147.722656 294.335938 L 147.722656 223.402344 L 76.789062 223.402344 Z M 76.789062 294.335938 " fill-opacity="1" fill-rule="nonzero"/><path fill="#000000" d="M 223.425781 296.722656 L 147.722656 296.722656 L 147.722656 221.015625 L 223.425781 221.015625 Z M 150.105469 294.335938 L 221.039062 294.335938 L 221.039062 223.402344 L 150.105469 223.402344 Z M 150.105469 294.335938 " fill-opacity="1" fill-rule="nonzero"/><path fill="#000000" d="M 296.742188 296.722656 L 221.039062 296.722656 L 221.039062 221.015625 L 296.742188 221.015625 Z M 223.425781 294.335938 L 294.359375 294.335938 L 294.359375 223.402344 L 223.425781 223.402344 Z M 223.425781 294.335938 " fill-opacity="1" fill-rule="nonzero"/><path fill="#000000" d="M 370.0625 296.722656 L 294.359375 296.722656 L 294.359375 221.015625 L 370.0625 221.015625 Z M 296.742188 294.335938 L 367.675781 294.335938 L 367.675781 223.402344 L 296.742188 223.402344 Z M 296.742188 294.335938 " fill-opacity="1" fill-rule="nonzero"/><path fill="#000000" d="M 443.378906 296.722656 L 367.675781 296.722656 L 367.675781 221.015625 L 443.378906 221.015625 Z M 370.0625 294.335938 L 440.996094 294.335938 L 440.996094 223.402344 L 370.0625 223.402344 Z M 370.0625 294.335938 " fill-opacity="1" fill-rule="nonzero"/><path fill="#000000" d="M 516.683594 296.722656 L 440.980469 296.722656 L 440.980469 221.015625 L 516.683594 221.015625 Z M 443.378906 294.335938 L 514.3125 294.335938 L 514.3125 223.402344 L 443.378906 223.402344 Z M 443.378906 294.335938 " fill-opacity="1" fill-rule="nonzero"/><path fill="#000000" d="M 590 296.722656 L 514.296875 296.722656 L 514.296875 221.015625 L 590 221.015625 Z M 516.683594 294.335938 L 587.617188 294.335938 L 587.617188 223.402344 L 516.683594 223.402344 Z M 516.683594 294.335938 " fill-opacity="1" fill-rule="nonzero"/><g clip-path="url(#8b2c64a87b)"><path fill="#000000" d="M 663.320312 296.722656 L 587.617188 296.722656 L 587.617188 221.015625 L 663.320312 221.015625 Z M 590 294.335938 L 660.933594 294.335938 L 660.933594 223.402344 L 590 223.402344 Z M 590 294.335938 " fill-opacity="1" fill-rule="nonzero"/></g><g clip-path="url(#b4f3dcbdb5)"><path fill="#000000" d="M 76.789062 370.039062 L 1.085938 370.039062 L 1.085938 294.335938 L 76.789062 294.335938 Z M 3.46875 367.652344 L 74.402344 367.652344 L 74.402344 296.722656 L 3.46875 296.722656 Z M 3.46875 367.652344 " fill-opacity="1" fill-rule="nonzero"/></g><path fill="#000000" d="M 150.105469 370.039062 L 74.402344 370.039062 L 74.402344 294.335938 L 150.105469 294.335938 Z M 76.789062 367.652344 L 147.722656 367.652344 L 147.722656 296.722656 L 76.789062 296.722656 Z M 76.789062 367.652344 " fill-opacity="1" fill-rule="nonzero"/><path fill="#000000" d="M 223.425781 370.039062 L 147.722656 370.039062 L 147.722656 294.335938 L 223.425781 294.335938 Z M 150.105469 367.652344 L 221.039062 367.652344 L 221.039062 296.722656 L 150.105469 296.722656 Z M 150.105469 367.652344 " fill-opacity="1" fill-rule="nonzero"/><path fill="#000000" d="M 296.742188 370.039062 L 221.039062 370.039062 L 221.039062 294.335938 L 296.742188 294.335938 Z M 223.425781 367.652344 L 294.359375 367.652344 L 294.359375 296.722656 L 223.425781 296.722656 Z M 223.425781 367.652344 " fill-opacity="1" fill-rule="nonzero"/><path fill="#000000" d="M 370.0625 370.039062 L 294.359375 370.039062 L 294.359375 294.335938 L 370.0625 294.335938 Z M 296.742188 367.652344 L 367.675781 367.652344 L 367.675781 296.722656 L 296.742188 296.722656 Z M 296.742188 367.652344 " fill-opacity="1" fill-rule="nonzero"/><path fill="#000000" d="M 443.378906 370.039062 L 367.675781 370.039062 L 367.675781 294.335938 L 443.378906 294.335938 Z M 370.0625 367.652344 L 440.996094 367.652344 L 440.996094 296.722656 L 370.0625 296.722656 Z M 370.0625 367.652344 " fill-opacity="1" fill-rule="nonzero"/><path fill="#000000" d="M 516.683594 370.039062 L 440.980469 370.039062 L 440.980469 294.335938 L 516.683594 294.335938 Z M 443.378906 367.652344 L 514.3125 367.652344 L 514.3125 296.722656 L 443.378906 296.722656 Z M 443.378906 367.652344 " fill-opacity="1" fill-rule="nonzero"/><path fill="#000000" d="M 590 370.039062 L 514.296875 370.039062 L 514.296875 294.335938 L 590 294.335938 Z M 516.683594 367.652344 L 587.617188 367.652344 L 587.617188 296.722656 L 516.683594 296.722656 Z M 516.683594 367.652344 " fill-opacity="1" fill-rule="nonzero"/><g clip-path="url(#b0a7798d20)"><path fill="#000000" d="M 663.320312 370.039062 L 587.617188 370.039062 L 587.617188 294.335938 L 663.320312 294.335938 Z M 590 367.652344 L 660.933594 367.652344 L 660.933594 296.722656 L 590 296.722656 Z M 590 367.652344 " fill-opacity="1" fill-rule="nonzero"/></g><g clip-path="url(#0e1b77c0c0)"><path fill="#000000" d="M 76.789062 443.34375 L 1.085938 443.34375 L 1.085938 367.636719 L 76.789062 367.636719 Z M 3.46875 440.957031 L 74.402344 440.957031 L 74.402344 370.023438 L 3.46875 370.023438 Z M 3.46875 440.957031 " fill-opacity="1" fill-rule="nonzero"/></g><path fill="#000000" d="M 150.105469 443.34375 L 74.402344 443.34375 L 74.402344 367.636719 L 150.105469 367.636719 Z M 76.789062 440.957031 L 147.722656 440.957031 L 147.722656 370.023438 L 76.789062 370.023438 Z M 76.789062 440.957031 " fill-opacity="1" fill-rule="nonzero"/><path fill="#000000" d="M 223.425781 443.34375 L 147.722656 443.34375 L 147.722656 367.636719 L 223.425781 367.636719 Z M 150.105469 440.957031 L 221.039062 440.957031 L 221.039062 370.023438 L 150.105469 370.023438 Z M 150.105469 440.957031 " fill-opacity="1" fill-rule="nonzero"/><path fill="#000000" d="M 296.742188 443.34375 L 221.039062 443.34375 L 221.039062 367.636719 L 296.742188 367.636719 Z M 223.425781 440.957031 L 294.359375 440.957031 L 294.359375 370.023438 L 223.425781 370.023438 Z M 223.425781 440.957031 " fill-opacity="1" fill-rule="nonzero"/><path fill="#000000" d="M 370.0625 443.34375 L 294.359375 443.34375 L 294.359375 367.636719 L 370.0625 367.636719 Z M 296.742188 440.957031 L 367.675781 440.957031 L 367.675781 370.023438 L 296.742188 370.023438 Z M 296.742188 440.957031 " fill-opacity="1" fill-rule="nonzero"/><path fill="#000000" d="M 443.378906 443.34375 L 367.675781 443.34375 L 367.675781 367.636719 L 443.378906 367.636719 Z M 370.0625 440.957031 L 440.996094 440.957031 L 440.996094 370.023438 L 370.0625 370.023438 Z M 370.0625 440.957031 " fill-opacity="1" fill-rule="nonzero"/><path fill="#000000" d="M 516.683594 443.34375 L 440.980469 443.34375 L 440.980469 367.636719 L 516.683594 367.636719 Z M 443.378906 440.957031 L 514.3125 440.957031 L 514.3125 370.023438 L 443.378906 370.023438 Z M 443.378906 440.957031 " fill-opacity="1" fill-rule="nonzero"/><path fill="#000000" d="M 590 443.34375 L 514.296875 443.34375 L 514.296875 367.636719 L 590 367.636719 Z M 516.683594 440.957031 L 587.617188 440.957031 L 587.617188 370.023438 L 516.683594 370.023438 Z M 516.683594 440.957031 " fill-opacity="1" fill-rule="nonzero"/><g clip-path="url(#3aff186170)"><path fill="#000000" d="M 663.320312 443.34375 L 587.617188 443.34375 L 587.617188 367.636719 L 663.320312 367.636719 Z M 590 440.957031 L 660.933594 440.957031 L 660.933594 370.023438 L 590 370.023438 Z M 590 440.957031 " fill-opacity="1" fill-rule="nonzero"/></g><g clip-path="url(#b134a7ef5a)"><path fill="#000000" d="M 76.789062 516.660156 L 1.085938 516.660156 L 1.085938 440.957031 L 76.789062 440.957031 Z M 3.46875 514.273438 L 74.402344 514.273438 L 74.402344 443.34375 L 3.46875 443.34375 Z M 3.46875 514.273438 " fill-opacity="1" fill-rule="nonzero"/></g><path fill="#000000" d="M 150.105469 516.660156 L 74.402344 516.660156 L 74.402344 440.957031 L 150.105469 440.957031 Z M 76.789062 514.273438 L 147.722656 514.273438 L 147.722656 443.34375 L 76.789062 443.34375 Z M 76.789062 514.273438 " fill-opacity="1" fill-rule="nonzero"/><path fill="#000000" d="M 223.425781 516.660156 L 147.722656 516.660156 L 147.722656 440.957031 L 223.425781 440.957031 Z M 150.105469 514.273438 L 221.039062 514.273438 L 221.039062 443.34375 L 150.105469 443.34375 Z M 150.105469 514.273438 " fill-opacity="1" fill-rule="nonzero"/><path fill="#000000" d="M 296.742188 516.660156 L 221.039062 516.660156 L 221.039062 440.957031 L 296.742188 440.957031 Z M 223.425781 514.273438 L 294.359375 514.273438 L 294.359375 443.34375 L 223.425781 443.34375 Z M 223.425781 514.273438 " fill-opacity="1" fill-rule="nonzero"/><path fill="#000000" d="M 370.0625 516.660156 L 294.359375 516.660156 L 294.359375 440.957031 L 370.0625 440.957031 Z M 296.742188 514.273438 L 367.675781 514.273438 L 367.675781 443.34375 L 296.742188 443.34375 Z M 296.742188 514.273438 " fill-opacity="1" fill-rule="nonzero"/><path fill="#000000" d="M 443.378906 516.660156 L 367.675781 516.660156 L 367.675781 440.957031 L 443.378906 440.957031 Z M 370.0625 514.273438 L 440.996094 514.273438 L 440.996094 443.34375 L 370.0625 443.34375 Z M 370.0625 514.273438 " fill-opacity="1" fill-rule="nonzero"/><path fill="#000000" d="M 516.683594 516.660156 L 440.980469 516.660156 L 440.980469 440.957031 L 516.683594 440.957031 Z M 443.378906 514.273438 L 514.3125 514.273438 L 514.3125 443.34375 L 443.378906 443.34375 Z M 443.378906 514.273438 " fill-opacity="1" fill-rule="nonzero"/><path fill="#000000" d="M 590 516.660156 L 514.296875 516.660156 L 514.296875 440.957031 L 590 440.957031 Z M 516.683594 514.273438 L 587.617188 514.273438 L 587.617188 443.34375 L 516.683594 443.34375 Z M 516.683594 514.273438 " fill-opacity="1" fill-rule="nonzero"/><g clip-path="url(#415bf5a478)"><path fill="#000000" d="M 663.320312 516.660156 L 587.617188 516.660156 L 587.617188 440.957031 L 663.320312 440.957031 Z M 590 514.273438 L 660.933594 514.273438 L 660.933594 443.34375 L 590 443.34375 Z M 590 514.273438 " fill-opacity="1" fill-rule="nonzero"/></g><g clip-path="url(#a74a27088d)"><path fill="#000000" d="M 76.789062 589.976562 L 1.085938 589.976562 L 1.085938 514.273438 L 76.789062 514.273438 Z M 3.46875 587.59375 L 74.402344 587.59375 L 74.402344 516.660156 L 3.46875 516.660156 Z M 3.46875 587.59375 " fill-opacity="1" fill-rule="nonzero"/></g><path fill="#000000" d="M 150.105469 589.976562 L 74.402344 589.976562 L 74.402344 514.273438 L 150.105469 514.273438 Z M 76.789062 587.59375 L 147.722656 587.59375 L 147.722656 516.660156 L 76.789062 516.660156 Z M 76.789062 587.59375 " fill-opacity="1" fill-rule="nonzero"/><path fill="#000000" d="M 223.425781 589.976562 L 147.722656 589.976562 L 147.722656 514.273438 L 223.425781 514.273438 Z M 150.105469 587.59375 L 221.039062 587.59375 L 221.039062 516.660156 L 150.105469 516.660156 Z M 150.105469 587.59375 " fill-opacity="1" fill-rule="nonzero"/><path fill="#000000" d="M 296.742188 589.976562 L 221.039062 589.976562 L 221.039062 514.273438 L 296.742188 514.273438 Z M 223.425781 587.59375 L 294.359375 587.59375 L 294.359375 516.660156 L 223.425781 516.660156 Z M 223.425781 587.59375 " fill-opacity="1" fill-rule="nonzero"/><path fill="#000000" d="M 370.0625 589.976562 L 294.359375 589.976562 L 294.359375 514.273438 L 370.0625 514.273438 Z M 296.742188 587.59375 L 367.675781 587.59375 L 367.675781 516.660156 L 296.742188 516.660156 Z M 296.742188 587.59375 " fill-opacity="1" fill-rule="nonzero"/><path fill="#000000" d="M 443.378906 589.976562 L 367.675781 589.976562 L 367.675781 514.273438 L 443.378906 514.273438 Z M 370.0625 587.59375 L 440.996094 587.59375 L 440.996094 516.660156 L 370.0625 516.660156 Z M 370.0625 587.59375 " fill-opacity="1" fill-rule="nonzero"/><path fill="#000000" d="M 516.683594 589.976562 L 440.980469 589.976562 L 440.980469 514.273438 L 516.683594 514.273438 Z M 443.378906 587.59375 L 514.3125 587.59375 L 514.3125 516.660156 L 443.378906 516.660156 Z M 443.378906 587.59375 " fill-opacity="1" fill-rule="nonzero"/><path fill="#000000" d="M 590 589.976562 L 514.296875 589.976562 L 514.296875 514.273438 L 590 514.273438 Z M 516.683594 587.59375 L 587.617188 587.59375 L 587.617188 516.660156 L 516.683594 516.660156 Z M 516.683594 587.59375 " fill-opacity="1" fill-rule="nonzero"/><g clip-path="url(#a0dfd92eb8)"><path fill="#000000" d="M 663.320312 589.976562 L 587.617188 589.976562 L 587.617188 514.273438 L 663.320312 514.273438 Z M 590 587.59375 L 660.933594 587.59375 L 660.933594 516.660156 L 590 516.660156 Z M 590 587.59375 " fill-opacity="1" fill-rule="nonzero"/></g><g clip-path="url(#0d97f82070)"><path fill="#000000" d="M 76.789062 663.296875 L 1.085938 663.296875 L 1.085938 587.59375 L 76.789062 587.59375 Z M 3.46875 660.910156 L 74.402344 660.910156 L 74.402344 589.976562 L 3.46875 589.976562 Z M 3.46875 660.910156 " fill-opacity="1" fill-rule="nonzero"/></g><g clip-path="url(#9b384cc867)"><path fill="#000000" d="M 150.105469 663.296875 L 74.402344 663.296875 L 74.402344 587.59375 L 150.105469 587.59375 Z M 76.789062 660.910156 L 147.722656 660.910156 L 147.722656 589.976562 L 76.789062 589.976562 Z M 76.789062 660.910156 " fill-opacity="1" fill-rule="nonzero"/></g><g clip-path="url(#e0380b3008)"><path fill="#000000" d="M 223.425781 663.296875 L 147.722656 663.296875 L 147.722656 587.59375 L 223.425781 587.59375 Z M 150.105469 660.910156 L 221.039062 660.910156 L 221.039062 589.976562 L 150.105469 589.976562 Z M 150.105469 660.910156 " fill-opacity="1" fill-rule="nonzero"/></g><g clip-path="url(#3e86861568)"><path fill="#000000" d="M 296.742188 663.296875 L 221.039062 663.296875 L 221.039062 587.59375 L 296.742188 587.59375 Z M 223.425781 660.910156 L 294.359375 660.910156 L 294.359375 589.976562 L 223.425781 589.976562 Z M 223.425781 660.910156 " fill-opacity="1" fill-rule="nonzero"/></g><g clip-path="url(#4f3f67d0d1)"><path fill="#000000" d="M 370.0625 663.296875 L 294.359375 663.296875 L 294.359375 587.59375 L 370.0625 587.59375 Z M 296.742188 660.910156 L 367.675781 660.910156 L 367.675781 589.976562 L 296.742188 589.976562 Z M 296.742188 660.910156 " fill-opacity="1" fill-rule="nonzero"/></g><g clip-path="url(#0f51d74612)"><path fill="#000000" d="M 443.378906 663.296875 L 367.675781 663.296875 L 367.675781 587.59375 L 443.378906 587.59375 Z M 370.0625 660.910156 L 440.996094 660.910156 L 440.996094 589.976562 L 370.0625 589.976562 Z M 370.0625 660.910156 " fill-opacity="1" fill-rule="nonzero"/></g><g clip-path="url(#10b36e4267)"><path fill="#000000" d="M 516.683594 663.296875 L 440.980469 663.296875 L 440.980469 587.59375 L 516.683594 587.59375 Z M 443.378906 660.910156 L 514.3125 660.910156 L 514.3125 589.976562 L 443.378906 589.976562 Z M 443.378906 660.910156 " fill-opacity="1" fill-rule="nonzero"/></g><g clip-path="url(#6ad25e7c65)"><path fill="#000000" d="M 590 663.296875 L 514.296875 663.296875 L 514.296875 587.59375 L 590 587.59375 Z M 516.683594 660.910156 L 587.617188 660.910156 L 587.617188 589.976562 L 516.683594 589.976562 Z M 516.683594 660.910156 " fill-opacity="1" fill-rule="nonzero"/></g><g clip-path="url(#4b15ac0744)"><path fill="#000000" d="M 663.320312 663.296875 L 587.617188 663.296875 L 587.617188 587.59375 L 663.320312 587.59375 Z M 590 660.910156 L 660.933594 660.910156 L 660.933594 589.976562 L 590 589.976562 Z M 590 660.910156 " fill-opacity="1" fill-rule="nonzero"/></g></g></g></g><g mask="url(#3d0d9c19b0)"><g transform="matrix(1, 0, 0, 1, 731, 80)"><g clip-path="url(#5b8cae5778)"><g clip-path="url(#34943ec9d0)"><path fill="#000000" d="M 75.921875 76.765625 L 0.21875 76.765625 L 0.21875 1.0625 L 75.921875 1.0625 Z M 2.605469 74.378906 L 73.535156 74.378906 L 73.535156 3.449219 L 2.605469 3.449219 Z M 2.605469 74.378906 " fill-opacity="1" fill-rule="nonzero"/></g><g clip-path="url(#bc18b46165)"><path fill="#000000" d="M 149.242188 76.765625 L 73.535156 76.765625 L 73.535156 1.0625 L 149.242188 1.0625 Z M 75.921875 74.378906 L 146.855469 74.378906 L 146.855469 3.449219 L 75.921875 3.449219 Z M 75.921875 74.378906 " fill-opacity="1" fill-rule="nonzero"/></g><g clip-path="url(#cde095cd44)"><path fill="#000000" d="M 75.921875 150.085938 L 0.21875 150.085938 L 0.21875 74.378906 L 75.921875 74.378906 Z M 2.605469 147.699219 L 73.535156 147.699219 L 73.535156 76.765625 L 2.605469 76.765625 Z M 2.605469 147.699219 " fill-opacity="1" fill-rule="nonzero"/></g><g clip-path="url(#79aa94051b)"><path fill="#000000" d="M 149.242188 150.085938 L 73.535156 150.085938 L 73.535156 74.378906 L 149.242188 74.378906 Z M 75.921875 147.699219 L 146.855469 147.699219 L 146.855469 76.765625 L 75.921875 76.765625 Z M 75.921875 147.699219 " fill-opacity="1" fill-rule="nonzero"/></g><g clip-path="url(#42c48b56b1)"><path fill="#000000" d="M 75.921875 223.402344 L 0.21875 223.402344 L 0.21875 147.699219 L 75.921875 147.699219 Z M 2.605469 221.015625 L 73.535156 221.015625 L 73.535156 150.085938 L 2.605469 150.085938 Z M 2.605469 221.015625 " fill-opacity="1" fill-rule="nonzero"/></g><g clip-path="url(#045f0af24d)"><path fill="#000000" d="M 149.242188 223.402344 L 73.535156 223.402344 L 73.535156 147.699219 L 149.242188 147.699219 Z M 75.921875 221.015625 L 146.855469 221.015625 L 146.855469 150.085938 L 75.921875 150.085938 Z M 75.921875 221.015625 " fill-opacity="1" fill-rule="nonzero"/></g><g clip-path="url(#a7f9f54c16)"><path fill="#000000" d="M 75.921875 296.722656 L 0.21875 296.722656 L 0.21875 221.015625 L 75.921875 221.015625 Z M 2.605469 294.335938 L 73.535156 294.335938 L 73.535156 223.402344 L 2.605469 223.402344 Z M 2.605469 294.335938 " fill-opacity="1" fill-rule="nonzero"/></g><g clip-path="url(#bfc8b80993)"><path fill="#000000" d="M 149.242188 296.722656 L 73.535156 296.722656 L 73.535156 221.015625 L 149.242188 221.015625 Z M 75.921875 294.335938 L 146.855469 294.335938 L 146.855469 223.402344 L 75.921875 223.402344 Z M 75.921875 294.335938 " fill-opacity="1" fill-rule="nonzero"/></g><g clip-path="url(#a4819a567d)"><path fill="#000000" d="M 75.921875 370.039062 L 0.21875 370.039062 L 0.21875 294.335938 L 75.921875 294.335938 Z M 2.605469 367.652344 L 73.535156 367.652344 L 73.535156 296.722656 L 2.605469 296.722656 Z M 2.605469 367.652344 " fill-opacity="1" fill-rule="nonzero"/></g><g clip-path="url(#c51f8c4370)"><path fill="#000000" d="M 149.242188 370.039062 L 73.535156 370.039062 L 73.535156 294.335938 L 149.242188 294.335938 Z M 75.921875 367.652344 L 146.855469 367.652344 L 146.855469 296.722656 L 75.921875 296.722656 Z M 75.921875 367.652344 " fill-opacity="1" fill-rule="nonzero"/></g><g clip-path="url(#b4293531c3)"><path fill="#000000" d="M 75.921875 443.34375 L 0.21875 443.34375 L 0.21875 367.636719 L 75.921875 367.636719 Z M 2.605469 440.957031 L 73.535156 440.957031 L 73.535156 370.023438 L 2.605469 370.023438 Z M 2.605469 440.957031 " fill-opacity="1" fill-rule="nonzero"/></g><g clip-path="url(#08c8f3c550)"><path fill="#000000" d="M 149.242188 443.34375 L 73.535156 443.34375 L 73.535156 367.636719 L 149.242188 367.636719 Z M 75.921875 440.957031 L 146.855469 440.957031 L 146.855469 370.023438 L 75.921875 370.023438 Z M 75.921875 440.957031 " fill-opacity="1" fill-rule="nonzero"/></g><g clip-path="url(#56c7cfac05)"><path fill="#000000" d="M 75.921875 516.660156 L 0.21875 516.660156 L 0.21875 440.957031 L 75.921875 440.957031 Z M 2.605469 514.273438 L 73.535156 514.273438 L 73.535156 443.34375 L 2.605469 443.34375 Z M 2.605469 514.273438 " fill-opacity="1" fill-rule="nonzero"/></g><g clip-path="url(#d46b60ab95)"><path fill="#000000" d="M 149.242188 516.660156 L 73.535156 516.660156 L 73.535156 440.957031 L 149.242188 440.957031 Z M 75.921875 514.273438 L 146.855469 514.273438 L 146.855469 443.34375 L 75.921875 443.34375 Z M 75.921875 514.273438 " fill-opacity="1" fill-rule="nonzero"/></g><g clip-path="url(#5d6b68b16b)"><path fill="#000000" d="M 75.921875 589.976562 L 0.21875 589.976562 L 0.21875 514.273438 L 75.921875 514.273438 Z M 2.605469 587.59375 L 73.535156 587.59375 L 73.535156 516.660156 L 2.605469 516.660156 Z M 2.605469 587.59375 " fill-opacity="1" fill-rule="nonzero"/></g><g clip-path="url(#d920631aef)"><path fill="#000000" d="M 149.242188 589.976562 L 73.535156 589.976562 L 73.535156 514.273438 L 149.242188 514.273438 Z M 75.921875 587.59375 L 146.855469 587.59375 L 146.855469 516.660156 L 75.921875 516.660156 Z M 75.921875 587.59375 " fill-opacity="1" fill-rule="nonzero"/></g><g clip-path="url(#19b0910eb6)"><path fill="#000000" d="M 75.921875 663.296875 L 0.21875 663.296875 L 0.21875 587.59375 L 75.921875 587.59375 Z M 2.605469 660.910156 L 73.535156 660.910156 L 73.535156 589.976562 L 2.605469 589.976562 Z M 2.605469 660.910156 " fill-opacity="1" fill-rule="nonzero"/></g><g clip-path="url(#3761cf520e)"><path fill="#000000" d="M 149.242188 663.296875 L 73.535156 663.296875 L 73.535156 587.59375 L 149.242188 587.59375 Z M 75.921875 660.910156 L 146.855469 660.910156 L 146.855469 589.976562 L 75.921875 589.976562 Z M 75.921875 660.910156 " fill-opacity="1" fill-rule="nonzero"/></g></g></g></g></svg>