<svg xmlns="http://www.w3.org/2000/svg" xmlns:xlink="http://www.w3.org/1999/xlink" width="1080" zoomAndPan="magnify" viewBox="0 0 810 809.999993" height="1080" preserveAspectRatio="xMidYMid meet" version="1.0"><defs><filter x="0%" y="0%" width="100%" height="100%" id="b2760146a4"><feColorMatrix values="0 0 0 0 1 0 0 0 0 1 0 0 0 0 1 0 0 0 1 0" color-interpolation-filters="sRGB"/></filter><mask id="25b2a35508"><g filter="url(#b2760146a4)"><rect x="-81" width="972" fill="#000000" y="-80.999999" height="971.999992" fill-opacity="0.12"/></g></mask><clipPath id="d5c8077b95"><path d="M 0 1 L 76 1 L 76 77 L 0 77 Z M 0 1 " clip-rule="nonzero"/></clipPath><clipPath id="c5dcdd53fe"><path d="M 586 1 L 662.25 1 L 662.25 77 L 586 77 Z M 586 1 " clip-rule="nonzero"/></clipPath><clipPath id="66c3601f3b"><path d="M 0 74 L 76 74 L 76 151 L 0 151 Z M 0 74 " clip-rule="nonzero"/></clipPath><clipPath id="cdb97e836d"><path d="M 586 74 L 662.25 74 L 662.25 151 L 586 151 Z M 586 74 " clip-rule="nonzero"/></clipPath><clipPath id="5bca3f56d5"><path d="M 0 147 L 76 147 L 76 224 L 0 224 Z M 0 147 " clip-rule="nonzero"/></clipPath><clipPath id="ca166035a3"><path d="M 586 147 L 662.25 147 L 662.25 224 L 586 224 Z M 586 147 " clip-rule="nonzero"/></clipPath><clipPath id="e7fb824111"><path d="M 0 221 L 76 221 L 76 297 L 0 297 Z M 0 221 " clip-rule="nonzero"/></clipPath><clipPath id="23bb0c0db6"><path d="M 586 221 L 662.25 221 L 662.25 297 L 586 297 Z M 586 221 " clip-rule="nonzero"/></clipPath><clipPath id="42d0931cfe"><path d="M 0 294 L 76 294 L 76 371 L 0 371 Z M 0 294 " clip-rule="nonzero"/></clipPath><clipPath id="906fe8d518"><path d="M 586 294 L 662.25 294 L 662.25 371 L 586 371 Z M 586 294 " clip-rule="nonzero"/></clipPath><clipPath id="df11233b81"><path d="M 0 367 L 76 367 L 76 444 L 0 444 Z M 0 367 " clip-rule="nonzero"/></clipPath><clipPath id="5a332b4434"><path d="M 586 367 L 662.25 367 L 662.25 444 L 586 444 Z M 586 367 " clip-rule="nonzero"/></clipPath><clipPath id="a9f0814545"><path d="M 0 440 L 76 440 L 76 517 L 0 517 Z M 0 440 " clip-rule="nonzero"/></clipPath><clipPath id="c77949a5a0"><path d="M 586 440 L 662.25 440 L 662.25 517 L 586 517 Z M 586 440 " clip-rule="nonzero"/></clipPath><clipPath id="af578bbcf6"><path d="M 0 514 L 76 514 L 76 590 L 0 590 Z M 0 514 " clip-rule="nonzero"/></clipPath><clipPath id="1b7dd519df"><path d="M 586 514 L 662.25 514 L 662.25 590 L 586 590 Z M 586 514 " clip-rule="nonzero"/></clipPath><clipPath id="74077c920b"><path d="M 0 587 L 76 587 L 76 663.25 L 0 663.25 Z M 0 587 " clip-rule="nonzero"/></clipPath><clipPath id="a3cb9a0a96"><path d="M 73 587 L 149 587 L 149 663.25 L 73 663.25 Z M 73 587 " clip-rule="nonzero"/></clipPath><clipPath id="3f57545df0"><path d="M 146 587 L 223 587 L 223 663.25 L 146 663.25 Z M 146 587 " clip-rule="nonzero"/></clipPath><clipPath id="9f5609aac1"><path d="M 219 587 L 296 587 L 296 663.25 L 219 663.25 Z M 219 587 " clip-rule="nonzero"/></clipPath><clipPath id="aa60ffde64"><path d="M 293 587 L 369 587 L 369 663.25 L 293 663.25 Z M 293 587 " clip-rule="nonzero"/></clipPath><clipPath id="dd66a78dcb"><path d="M 366 587 L 443 587 L 443 663.25 L 366 663.25 Z M 366 587 " clip-rule="nonzero"/></clipPath><clipPath id="dea2d78a42"><path d="M 439 587 L 516 587 L 516 663.25 L 439 663.25 Z M 439 587 " clip-rule="nonzero"/></clipPath><clipPath id="2ebca51719"><path d="M 513 587 L 589 587 L 589 663.25 L 513 663.25 Z M 513 587 " clip-rule="nonzero"/></clipPath><clipPath id="5145b4baa4"><path d="M 586 587 L 662.25 587 L 662.25 663.25 L 586 663.25 Z M 586 587 " clip-rule="nonzero"/></clipPath><clipPath id="370b6d133c"><rect x="0" width="663" y="0" height="664"/></clipPath><mask id="fea4f38c7c"><g filter="url(#b2760146a4)"><rect x="-81" width="972" fill="#000000" y="-80.999999" height="971.999992" fill-opacity="0.12"/></g></mask><clipPath id="82e8d29c52"><path d="M 1.132812 1 L 77 1 L 77 77 L 1.132812 77 Z M 1.132812 1 " clip-rule="nonzero"/></clipPath><clipPath id="cb1bc762cb"><path d="M 74 1 L 149 1 L 149 77 L 74 77 Z M 74 1 " clip-rule="nonzero"/></clipPath><clipPath id="181c3a60d1"><path d="M 147 1 L 149 1 L 149 77 L 147 77 Z M 147 1 " clip-rule="nonzero"/></clipPath><clipPath id="7bea041635"><path d="M 1.132812 74 L 77 74 L 77 151 L 1.132812 151 Z M 1.132812 74 " clip-rule="nonzero"/></clipPath><clipPath id="fa8b7ca7eb"><path d="M 74 74 L 149 74 L 149 151 L 74 151 Z M 74 74 " clip-rule="nonzero"/></clipPath><clipPath id="dc66450db5"><path d="M 147 74 L 149 74 L 149 151 L 147 151 Z M 147 74 " clip-rule="nonzero"/></clipPath><clipPath id="9a93049c7e"><path d="M 1.132812 147 L 77 147 L 77 224 L 1.132812 224 Z M 1.132812 147 " clip-rule="nonzero"/></clipPath><clipPath id="bebb18b47c"><path d="M 74 147 L 149 147 L 149 224 L 74 224 Z M 74 147 " clip-rule="nonzero"/></clipPath><clipPath id="a4785b1f60"><path d="M 147 147 L 149 147 L 149 224 L 147 224 Z M 147 147 " clip-rule="nonzero"/></clipPath><clipPath id="9a60e72bb6"><path d="M 1.132812 221 L 77 221 L 77 297 L 1.132812 297 Z M 1.132812 221 " clip-rule="nonzero"/></clipPath><clipPath id="9673142115"><path d="M 74 221 L 149 221 L 149 297 L 74 297 Z M 74 221 " clip-rule="nonzero"/></clipPath><clipPath id="641062ceb6"><path d="M 147 221 L 149 221 L 149 297 L 147 297 Z M 147 221 " clip-rule="nonzero"/></clipPath><clipPath id="3cd4e3971e"><path d="M 1.132812 294 L 77 294 L 77 371 L 1.132812 371 Z M 1.132812 294 " clip-rule="nonzero"/></clipPath><clipPath id="5b5663aabc"><path d="M 74 294 L 149 294 L 149 371 L 74 371 Z M 74 294 " clip-rule="nonzero"/></clipPath><clipPath id="3e57b3644a"><path d="M 147 294 L 149 294 L 149 371 L 147 371 Z M 147 294 " clip-rule="nonzero"/></clipPath><clipPath id="08f1d3ed94"><path d="M 1.132812 367 L 77 367 L 77 444 L 1.132812 444 Z M 1.132812 367 " clip-rule="nonzero"/></clipPath><clipPath id="e0a655f54a"><path d="M 74 367 L 149 367 L 149 444 L 74 444 Z M 74 367 " clip-rule="nonzero"/></clipPath><clipPath id="2727c4cdae"><path d="M 147 367 L 149 367 L 149 444 L 147 444 Z M 147 367 " clip-rule="nonzero"/></clipPath><clipPath id="f7063cf3d3"><path d="M 1.132812 440 L 77 440 L 77 517 L 1.132812 517 Z M 1.132812 440 " clip-rule="nonzero"/></clipPath><clipPath id="b8972333e2"><path d="M 74 440 L 149 440 L 149 517 L 74 517 Z M 74 440 " clip-rule="nonzero"/></clipPath><clipPath id="a0108b634b"><path d="M 147 440 L 149 440 L 149 517 L 147 517 Z M 147 440 " clip-rule="nonzero"/></clipPath><clipPath id="08a141fee7"><path d="M 1.132812 514 L 77 514 L 77 590 L 1.132812 590 Z M 1.132812 514 " clip-rule="nonzero"/></clipPath><clipPath id="d34de49251"><path d="M 74 514 L 149 514 L 149 590 L 74 590 Z M 74 514 " clip-rule="nonzero"/></clipPath><clipPath id="b02c108e70"><path d="M 147 514 L 149 514 L 149 590 L 147 590 Z M 147 514 " clip-rule="nonzero"/></clipPath><clipPath id="d7ce107acb"><path d="M 1.132812 587 L 77 587 L 77 663.25 L 1.132812 663.25 Z M 1.132812 587 " clip-rule="nonzero"/></clipPath><clipPath id="c43ee5fb34"><path d="M 74 587 L 149 587 L 149 663.25 L 74 663.25 Z M 74 587 " clip-rule="nonzero"/></clipPath><clipPath id="e78f4747e2"><path d="M 147 587 L 149 587 L 149 663.25 L 147 663.25 Z M 147 587 " clip-rule="nonzero"/></clipPath><clipPath id="2b45246cac"><rect x="0" width="149" y="0" height="664"/></clipPath></defs><g mask="url(#25b2a35508)"><g transform="matrix(1, 0, 0, 1, 0, 80)"><g clip-path="url(#370b6d133c)"><g clip-path="url(#d5c8077b95)"><path fill="#000000" d="M 75.671875 76.765625 L -0.03125 76.765625 L -0.03125 1.0625 L 75.671875 1.0625 Z M 2.355469 74.378906 L 73.289062 74.378906 L 73.289062 3.449219 L 2.355469 3.449219 Z M 2.355469 74.378906 " fill-opacity="1" fill-rule="nonzero"/></g><path fill="#000000" d="M 148.992188 76.765625 L 73.289062 76.765625 L 73.289062 1.0625 L 148.992188 1.0625 Z M 75.671875 74.378906 L 146.605469 74.378906 L 146.605469 3.449219 L 75.671875 3.449219 Z M 75.671875 74.378906 " fill-opacity="1" fill-rule="nonzero"/><path fill="#000000" d="M 222.308594 76.765625 L 146.605469 76.765625 L 146.605469 1.0625 L 222.308594 1.0625 Z M 148.992188 74.378906 L 219.921875 74.378906 L 219.921875 3.449219 L 148.992188 3.449219 Z M 148.992188 74.378906 " fill-opacity="1" fill-rule="nonzero"/><path fill="#000000" d="M 295.628906 76.765625 L 219.921875 76.765625 L 219.921875 1.0625 L 295.628906 1.0625 Z M 222.308594 74.378906 L 293.242188 74.378906 L 293.242188 3.449219 L 222.308594 3.449219 Z M 222.308594 74.378906 " fill-opacity="1" fill-rule="nonzero"/><path fill="#000000" d="M 368.945312 76.765625 L 293.242188 76.765625 L 293.242188 1.0625 L 368.945312 1.0625 Z M 295.628906 74.378906 L 366.558594 74.378906 L 366.558594 3.449219 L 295.628906 3.449219 Z M 295.628906 74.378906 " fill-opacity="1" fill-rule="nonzero"/><path fill="#000000" d="M 442.265625 76.765625 L 366.558594 76.765625 L 366.558594 1.0625 L 442.265625 1.0625 Z M 368.945312 74.378906 L 439.878906 74.378906 L 439.878906 3.449219 L 368.945312 3.449219 Z M 368.945312 74.378906 " fill-opacity="1" fill-rule="nonzero"/><path fill="#000000" d="M 515.566406 76.765625 L 439.863281 76.765625 L 439.863281 1.0625 L 515.566406 1.0625 Z M 442.265625 74.378906 L 513.195312 74.378906 L 513.195312 3.449219 L 442.265625 3.449219 Z M 442.265625 74.378906 " fill-opacity="1" fill-rule="nonzero"/><path fill="#000000" d="M 588.886719 76.765625 L 513.179688 76.765625 L 513.179688 1.0625 L 588.886719 1.0625 Z M 515.566406 74.378906 L 586.5 74.378906 L 586.5 3.449219 L 515.566406 3.449219 Z M 515.566406 74.378906 " fill-opacity="1" fill-rule="nonzero"/><g clip-path="url(#c5dcdd53fe)"><path fill="#000000" d="M 662.203125 76.765625 L 586.5 76.765625 L 586.5 1.0625 L 662.203125 1.0625 Z M 588.886719 74.378906 L 659.816406 74.378906 L 659.816406 3.449219 L 588.886719 3.449219 Z M 588.886719 74.378906 " fill-opacity="1" fill-rule="nonzero"/></g><g clip-path="url(#66c3601f3b)"><path fill="#000000" d="M 75.671875 150.085938 L -0.03125 150.085938 L -0.03125 74.378906 L 75.671875 74.378906 Z M 2.355469 147.699219 L 73.289062 147.699219 L 73.289062 76.765625 L 2.355469 76.765625 Z M 2.355469 147.699219 " fill-opacity="1" fill-rule="nonzero"/></g><path fill="#000000" d="M 148.992188 150.085938 L 73.289062 150.085938 L 73.289062 74.378906 L 148.992188 74.378906 Z M 75.671875 147.699219 L 146.605469 147.699219 L 146.605469 76.765625 L 75.671875 76.765625 Z M 75.671875 147.699219 " fill-opacity="1" fill-rule="nonzero"/><path fill="#000000" d="M 222.308594 150.085938 L 146.605469 150.085938 L 146.605469 74.378906 L 222.308594 74.378906 Z M 148.992188 147.699219 L 219.921875 147.699219 L 219.921875 76.765625 L 148.992188 76.765625 Z M 148.992188 147.699219 " fill-opacity="1" fill-rule="nonzero"/><path fill="#000000" d="M 295.628906 150.085938 L 219.921875 150.085938 L 219.921875 74.378906 L 295.628906 74.378906 Z M 222.308594 147.699219 L 293.242188 147.699219 L 293.242188 76.765625 L 222.308594 76.765625 Z M 222.308594 147.699219 " fill-opacity="1" fill-rule="nonzero"/><path fill="#000000" d="M 368.945312 150.085938 L 293.242188 150.085938 L 293.242188 74.378906 L 368.945312 74.378906 Z M 295.628906 147.699219 L 366.558594 147.699219 L 366.558594 76.765625 L 295.628906 76.765625 Z M 295.628906 147.699219 " fill-opacity="1" fill-rule="nonzero"/><path fill="#000000" d="M 442.265625 150.085938 L 366.558594 150.085938 L 366.558594 74.378906 L 442.265625 74.378906 Z M 368.945312 147.699219 L 439.878906 147.699219 L 439.878906 76.765625 L 368.945312 76.765625 Z M 368.945312 147.699219 " fill-opacity="1" fill-rule="nonzero"/><path fill="#000000" d="M 515.566406 150.085938 L 439.863281 150.085938 L 439.863281 74.378906 L 515.566406 74.378906 Z M 442.265625 147.699219 L 513.195312 147.699219 L 513.195312 76.765625 L 442.265625 76.765625 Z M 442.265625 147.699219 " fill-opacity="1" fill-rule="nonzero"/><path fill="#000000" d="M 588.886719 150.085938 L 513.179688 150.085938 L 513.179688 74.378906 L 588.886719 74.378906 Z M 515.566406 147.699219 L 586.5 147.699219 L 586.5 76.765625 L 515.566406 76.765625 Z M 515.566406 147.699219 " fill-opacity="1" fill-rule="nonzero"/><g clip-path="url(#cdb97e836d)"><path fill="#000000" d="M 662.203125 150.085938 L 586.5 150.085938 L 586.5 74.378906 L 662.203125 74.378906 Z M 588.886719 147.699219 L 659.816406 147.699219 L 659.816406 76.765625 L 588.886719 76.765625 Z M 588.886719 147.699219 " fill-opacity="1" fill-rule="nonzero"/></g><g clip-path="url(#5bca3f56d5)"><path fill="#000000" d="M 75.671875 223.402344 L -0.03125 223.402344 L -0.03125 147.699219 L 75.671875 147.699219 Z M 2.355469 221.015625 L 73.289062 221.015625 L 73.289062 150.085938 L 2.355469 150.085938 Z M 2.355469 221.015625 " fill-opacity="1" fill-rule="nonzero"/></g><path fill="#000000" d="M 148.992188 223.402344 L 73.289062 223.402344 L 73.289062 147.699219 L 148.992188 147.699219 Z M 75.671875 221.015625 L 146.605469 221.015625 L 146.605469 150.085938 L 75.671875 150.085938 Z M 75.671875 221.015625 " fill-opacity="1" fill-rule="nonzero"/><path fill="#000000" d="M 222.308594 223.402344 L 146.605469 223.402344 L 146.605469 147.699219 L 222.308594 147.699219 Z M 148.992188 221.015625 L 219.921875 221.015625 L 219.921875 150.085938 L 148.992188 150.085938 Z M 148.992188 221.015625 " fill-opacity="1" fill-rule="nonzero"/><path fill="#000000" d="M 295.628906 223.402344 L 219.921875 223.402344 L 219.921875 147.699219 L 295.628906 147.699219 Z M 222.308594 221.015625 L 293.242188 221.015625 L 293.242188 150.085938 L 222.308594 150.085938 Z M 222.308594 221.015625 " fill-opacity="1" fill-rule="nonzero"/><path fill="#000000" d="M 368.945312 223.402344 L 293.242188 223.402344 L 293.242188 147.699219 L 368.945312 147.699219 Z M 295.628906 221.015625 L 366.558594 221.015625 L 366.558594 150.085938 L 295.628906 150.085938 Z M 295.628906 221.015625 " fill-opacity="1" fill-rule="nonzero"/><path fill="#000000" d="M 442.265625 223.402344 L 366.558594 223.402344 L 366.558594 147.699219 L 442.265625 147.699219 Z M 368.945312 221.015625 L 439.878906 221.015625 L 439.878906 150.085938 L 368.945312 150.085938 Z M 368.945312 221.015625 " fill-opacity="1" fill-rule="nonzero"/><path fill="#000000" d="M 515.566406 223.402344 L 439.863281 223.402344 L 439.863281 147.699219 L 515.566406 147.699219 Z M 442.265625 221.015625 L 513.195312 221.015625 L 513.195312 150.085938 L 442.265625 150.085938 Z M 442.265625 221.015625 " fill-opacity="1" fill-rule="nonzero"/><path fill="#000000" d="M 588.886719 223.402344 L 513.179688 223.402344 L 513.179688 147.699219 L 588.886719 147.699219 Z M 515.566406 221.015625 L 586.5 221.015625 L 586.5 150.085938 L 515.566406 150.085938 Z M 515.566406 221.015625 " fill-opacity="1" fill-rule="nonzero"/><g clip-path="url(#ca166035a3)"><path fill="#000000" d="M 662.203125 223.402344 L 586.5 223.402344 L 586.5 147.699219 L 662.203125 147.699219 Z M 588.886719 221.015625 L 659.816406 221.015625 L 659.816406 150.085938 L 588.886719 150.085938 Z M 588.886719 221.015625 " fill-opacity="1" fill-rule="nonzero"/></g><g clip-path="url(#e7fb824111)"><path fill="#000000" d="M 75.671875 296.722656 L -0.03125 296.722656 L -0.03125 221.015625 L 75.671875 221.015625 Z M 2.355469 294.335938 L 73.289062 294.335938 L 73.289062 223.402344 L 2.355469 223.402344 Z M 2.355469 294.335938 " fill-opacity="1" fill-rule="nonzero"/></g><path fill="#000000" d="M 148.992188 296.722656 L 73.289062 296.722656 L 73.289062 221.015625 L 148.992188 221.015625 Z M 75.671875 294.335938 L 146.605469 294.335938 L 146.605469 223.402344 L 75.671875 223.402344 Z M 75.671875 294.335938 " fill-opacity="1" fill-rule="nonzero"/><path fill="#000000" d="M 222.308594 296.722656 L 146.605469 296.722656 L 146.605469 221.015625 L 222.308594 221.015625 Z M 148.992188 294.335938 L 219.921875 294.335938 L 219.921875 223.402344 L 148.992188 223.402344 Z M 148.992188 294.335938 " fill-opacity="1" fill-rule="nonzero"/><path fill="#000000" d="M 295.628906 296.722656 L 219.921875 296.722656 L 219.921875 221.015625 L 295.628906 221.015625 Z M 222.308594 294.335938 L 293.242188 294.335938 L 293.242188 223.402344 L 222.308594 223.402344 Z M 222.308594 294.335938 " fill-opacity="1" fill-rule="nonzero"/><path fill="#000000" d="M 368.945312 296.722656 L 293.242188 296.722656 L 293.242188 221.015625 L 368.945312 221.015625 Z M 295.628906 294.335938 L 366.558594 294.335938 L 366.558594 223.402344 L 295.628906 223.402344 Z M 295.628906 294.335938 " fill-opacity="1" fill-rule="nonzero"/><path fill="#000000" d="M 442.265625 296.722656 L 366.558594 296.722656 L 366.558594 221.015625 L 442.265625 221.015625 Z M 368.945312 294.335938 L 439.878906 294.335938 L 439.878906 223.402344 L 368.945312 223.402344 Z M 368.945312 294.335938 " fill-opacity="1" fill-rule="nonzero"/><path fill="#000000" d="M 515.566406 296.722656 L 439.863281 296.722656 L 439.863281 221.015625 L 515.566406 221.015625 Z M 442.265625 294.335938 L 513.195312 294.335938 L 513.195312 223.402344 L 442.265625 223.402344 Z M 442.265625 294.335938 " fill-opacity="1" fill-rule="nonzero"/><path fill="#000000" d="M 588.886719 296.722656 L 513.179688 296.722656 L 513.179688 221.015625 L 588.886719 221.015625 Z M 515.566406 294.335938 L 586.5 294.335938 L 586.5 223.402344 L 515.566406 223.402344 Z M 515.566406 294.335938 " fill-opacity="1" fill-rule="nonzero"/><g clip-path="url(#23bb0c0db6)"><path fill="#000000" d="M 662.203125 296.722656 L 586.5 296.722656 L 586.5 221.015625 L 662.203125 221.015625 Z M 588.886719 294.335938 L 659.816406 294.335938 L 659.816406 223.402344 L 588.886719 223.402344 Z M 588.886719 294.335938 " fill-opacity="1" fill-rule="nonzero"/></g><g clip-path="url(#42d0931cfe)"><path fill="#000000" d="M 75.671875 370.039062 L -0.03125 370.039062 L -0.03125 294.335938 L 75.671875 294.335938 Z M 2.355469 367.652344 L 73.289062 367.652344 L 73.289062 296.722656 L 2.355469 296.722656 Z M 2.355469 367.652344 " fill-opacity="1" fill-rule="nonzero"/></g><path fill="#000000" d="M 148.992188 370.039062 L 73.289062 370.039062 L 73.289062 294.335938 L 148.992188 294.335938 Z M 75.671875 367.652344 L 146.605469 367.652344 L 146.605469 296.722656 L 75.671875 296.722656 Z M 75.671875 367.652344 " fill-opacity="1" fill-rule="nonzero"/><path fill="#000000" d="M 222.308594 370.039062 L 146.605469 370.039062 L 146.605469 294.335938 L 222.308594 294.335938 Z M 148.992188 367.652344 L 219.921875 367.652344 L 219.921875 296.722656 L 148.992188 296.722656 Z M 148.992188 367.652344 " fill-opacity="1" fill-rule="nonzero"/><path fill="#000000" d="M 295.628906 370.039062 L 219.921875 370.039062 L 219.921875 294.335938 L 295.628906 294.335938 Z M 222.308594 367.652344 L 293.242188 367.652344 L 293.242188 296.722656 L 222.308594 296.722656 Z M 222.308594 367.652344 " fill-opacity="1" fill-rule="nonzero"/><path fill="#000000" d="M 368.945312 370.039062 L 293.242188 370.039062 L 293.242188 294.335938 L 368.945312 294.335938 Z M 295.628906 367.652344 L 366.558594 367.652344 L 366.558594 296.722656 L 295.628906 296.722656 Z M 295.628906 367.652344 " fill-opacity="1" fill-rule="nonzero"/><path fill="#000000" d="M 442.265625 370.039062 L 366.558594 370.039062 L 366.558594 294.335938 L 442.265625 294.335938 Z M 368.945312 367.652344 L 439.878906 367.652344 L 439.878906 296.722656 L 368.945312 296.722656 Z M 368.945312 367.652344 " fill-opacity="1" fill-rule="nonzero"/><path fill="#000000" d="M 515.566406 370.039062 L 439.863281 370.039062 L 439.863281 294.335938 L 515.566406 294.335938 Z M 442.265625 367.652344 L 513.195312 367.652344 L 513.195312 296.722656 L 442.265625 296.722656 Z M 442.265625 367.652344 " fill-opacity="1" fill-rule="nonzero"/><path fill="#000000" d="M 588.886719 370.039062 L 513.179688 370.039062 L 513.179688 294.335938 L 588.886719 294.335938 Z M 515.566406 367.652344 L 586.5 367.652344 L 586.5 296.722656 L 515.566406 296.722656 Z M 515.566406 367.652344 " fill-opacity="1" fill-rule="nonzero"/><g clip-path="url(#906fe8d518)"><path fill="#000000" d="M 662.203125 370.039062 L 586.5 370.039062 L 586.5 294.335938 L 662.203125 294.335938 Z M 588.886719 367.652344 L 659.816406 367.652344 L 659.816406 296.722656 L 588.886719 296.722656 Z M 588.886719 367.652344 " fill-opacity="1" fill-rule="nonzero"/></g><g clip-path="url(#df11233b81)"><path fill="#000000" d="M 75.671875 443.34375 L -0.03125 443.34375 L -0.03125 367.636719 L 75.671875 367.636719 Z M 2.355469 440.957031 L 73.289062 440.957031 L 73.289062 370.023438 L 2.355469 370.023438 Z M 2.355469 440.957031 " fill-opacity="1" fill-rule="nonzero"/></g><path fill="#000000" d="M 148.992188 443.34375 L 73.289062 443.34375 L 73.289062 367.636719 L 148.992188 367.636719 Z M 75.671875 440.957031 L 146.605469 440.957031 L 146.605469 370.023438 L 75.671875 370.023438 Z M 75.671875 440.957031 " fill-opacity="1" fill-rule="nonzero"/><path fill="#000000" d="M 222.308594 443.34375 L 146.605469 443.34375 L 146.605469 367.636719 L 222.308594 367.636719 Z M 148.992188 440.957031 L 219.921875 440.957031 L 219.921875 370.023438 L 148.992188 370.023438 Z M 148.992188 440.957031 " fill-opacity="1" fill-rule="nonzero"/><path fill="#000000" d="M 295.628906 443.34375 L 219.921875 443.34375 L 219.921875 367.636719 L 295.628906 367.636719 Z M 222.308594 440.957031 L 293.242188 440.957031 L 293.242188 370.023438 L 222.308594 370.023438 Z M 222.308594 440.957031 " fill-opacity="1" fill-rule="nonzero"/><path fill="#000000" d="M 368.945312 443.34375 L 293.242188 443.34375 L 293.242188 367.636719 L 368.945312 367.636719 Z M 295.628906 440.957031 L 366.558594 440.957031 L 366.558594 370.023438 L 295.628906 370.023438 Z M 295.628906 440.957031 " fill-opacity="1" fill-rule="nonzero"/><path fill="#000000" d="M 442.265625 443.34375 L 366.558594 443.34375 L 366.558594 367.636719 L 442.265625 367.636719 Z M 368.945312 440.957031 L 439.878906 440.957031 L 439.878906 370.023438 L 368.945312 370.023438 Z M 368.945312 440.957031 " fill-opacity="1" fill-rule="nonzero"/><path fill="#000000" d="M 515.566406 443.34375 L 439.863281 443.34375 L 439.863281 367.636719 L 515.566406 367.636719 Z M 442.265625 440.957031 L 513.195312 440.957031 L 513.195312 370.023438 L 442.265625 370.023438 Z M 442.265625 440.957031 " fill-opacity="1" fill-rule="nonzero"/><path fill="#000000" d="M 588.886719 443.34375 L 513.179688 443.34375 L 513.179688 367.636719 L 588.886719 367.636719 Z M 515.566406 440.957031 L 586.5 440.957031 L 586.5 370.023438 L 515.566406 370.023438 Z M 515.566406 440.957031 " fill-opacity="1" fill-rule="nonzero"/><g clip-path="url(#5a332b4434)"><path fill="#000000" d="M 662.203125 443.34375 L 586.5 443.34375 L 586.5 367.636719 L 662.203125 367.636719 Z M 588.886719 440.957031 L 659.816406 440.957031 L 659.816406 370.023438 L 588.886719 370.023438 Z M 588.886719 440.957031 " fill-opacity="1" fill-rule="nonzero"/></g><g clip-path="url(#a9f0814545)"><path fill="#000000" d="M 75.671875 516.660156 L -0.03125 516.660156 L -0.03125 440.957031 L 75.671875 440.957031 Z M 2.355469 514.273438 L 73.289062 514.273438 L 73.289062 443.34375 L 2.355469 443.34375 Z M 2.355469 514.273438 " fill-opacity="1" fill-rule="nonzero"/></g><path fill="#000000" d="M 148.992188 516.660156 L 73.289062 516.660156 L 73.289062 440.957031 L 148.992188 440.957031 Z M 75.671875 514.273438 L 146.605469 514.273438 L 146.605469 443.34375 L 75.671875 443.34375 Z M 75.671875 514.273438 " fill-opacity="1" fill-rule="nonzero"/><path fill="#000000" d="M 222.308594 516.660156 L 146.605469 516.660156 L 146.605469 440.957031 L 222.308594 440.957031 Z M 148.992188 514.273438 L 219.921875 514.273438 L 219.921875 443.34375 L 148.992188 443.34375 Z M 148.992188 514.273438 " fill-opacity="1" fill-rule="nonzero"/><path fill="#000000" d="M 295.628906 516.660156 L 219.921875 516.660156 L 219.921875 440.957031 L 295.628906 440.957031 Z M 222.308594 514.273438 L 293.242188 514.273438 L 293.242188 443.34375 L 222.308594 443.34375 Z M 222.308594 514.273438 " fill-opacity="1" fill-rule="nonzero"/><path fill="#000000" d="M 368.945312 516.660156 L 293.242188 516.660156 L 293.242188 440.957031 L 368.945312 440.957031 Z M 295.628906 514.273438 L 366.558594 514.273438 L 366.558594 443.34375 L 295.628906 443.34375 Z M 295.628906 514.273438 " fill-opacity="1" fill-rule="nonzero"/><path fill="#000000" d="M 442.265625 516.660156 L 366.558594 516.660156 L 366.558594 440.957031 L 442.265625 440.957031 Z M 368.945312 514.273438 L 439.878906 514.273438 L 439.878906 443.34375 L 368.945312 443.34375 Z M 368.945312 514.273438 " fill-opacity="1" fill-rule="nonzero"/><path fill="#000000" d="M 515.566406 516.660156 L 439.863281 516.660156 L 439.863281 440.957031 L 515.566406 440.957031 Z M 442.265625 514.273438 L 513.195312 514.273438 L 513.195312 443.34375 L 442.265625 443.34375 Z M 442.265625 514.273438 " fill-opacity="1" fill-rule="nonzero"/><path fill="#000000" d="M 588.886719 516.660156 L 513.179688 516.660156 L 513.179688 440.957031 L 588.886719 440.957031 Z M 515.566406 514.273438 L 586.5 514.273438 L 586.5 443.34375 L 515.566406 443.34375 Z M 515.566406 514.273438 " fill-opacity="1" fill-rule="nonzero"/><g clip-path="url(#c77949a5a0)"><path fill="#000000" d="M 662.203125 516.660156 L 586.5 516.660156 L 586.5 440.957031 L 662.203125 440.957031 Z M 588.886719 514.273438 L 659.816406 514.273438 L 659.816406 443.34375 L 588.886719 443.34375 Z M 588.886719 514.273438 " fill-opacity="1" fill-rule="nonzero"/></g><g clip-path="url(#af578bbcf6)"><path fill="#000000" d="M 75.671875 589.976562 L -0.03125 589.976562 L -0.03125 514.273438 L 75.671875 514.273438 Z M 2.355469 587.59375 L 73.289062 587.59375 L 73.289062 516.660156 L 2.355469 516.660156 Z M 2.355469 587.59375 " fill-opacity="1" fill-rule="nonzero"/></g><path fill="#000000" d="M 148.992188 589.976562 L 73.289062 589.976562 L 73.289062 514.273438 L 148.992188 514.273438 Z M 75.671875 587.59375 L 146.605469 587.59375 L 146.605469 516.660156 L 75.671875 516.660156 Z M 75.671875 587.59375 " fill-opacity="1" fill-rule="nonzero"/><path fill="#000000" d="M 222.308594 589.976562 L 146.605469 589.976562 L 146.605469 514.273438 L 222.308594 514.273438 Z M 148.992188 587.59375 L 219.921875 587.59375 L 219.921875 516.660156 L 148.992188 516.660156 Z M 148.992188 587.59375 " fill-opacity="1" fill-rule="nonzero"/><path fill="#000000" d="M 295.628906 589.976562 L 219.921875 589.976562 L 219.921875 514.273438 L 295.628906 514.273438 Z M 222.308594 587.59375 L 293.242188 587.59375 L 293.242188 516.660156 L 222.308594 516.660156 Z M 222.308594 587.59375 " fill-opacity="1" fill-rule="nonzero"/><path fill="#000000" d="M 368.945312 589.976562 L 293.242188 589.976562 L 293.242188 514.273438 L 368.945312 514.273438 Z M 295.628906 587.59375 L 366.558594 587.59375 L 366.558594 516.660156 L 295.628906 516.660156 Z M 295.628906 587.59375 " fill-opacity="1" fill-rule="nonzero"/><path fill="#000000" d="M 442.265625 589.976562 L 366.558594 589.976562 L 366.558594 514.273438 L 442.265625 514.273438 Z M 368.945312 587.59375 L 439.878906 587.59375 L 439.878906 516.660156 L 368.945312 516.660156 Z M 368.945312 587.59375 " fill-opacity="1" fill-rule="nonzero"/><path fill="#000000" d="M 515.566406 589.976562 L 439.863281 589.976562 L 439.863281 514.273438 L 515.566406 514.273438 Z M 442.265625 587.59375 L 513.195312 587.59375 L 513.195312 516.660156 L 442.265625 516.660156 Z M 442.265625 587.59375 " fill-opacity="1" fill-rule="nonzero"/><path fill="#000000" d="M 588.886719 589.976562 L 513.179688 589.976562 L 513.179688 514.273438 L 588.886719 514.273438 Z M 515.566406 587.59375 L 586.5 587.59375 L 586.5 516.660156 L 515.566406 516.660156 Z M 515.566406 587.59375 " fill-opacity="1" fill-rule="nonzero"/><g clip-path="url(#1b7dd519df)"><path fill="#000000" d="M 662.203125 589.976562 L 586.5 589.976562 L 586.5 514.273438 L 662.203125 514.273438 Z M 588.886719 587.59375 L 659.816406 587.59375 L 659.816406 516.660156 L 588.886719 516.660156 Z M 588.886719 587.59375 " fill-opacity="1" fill-rule="nonzero"/></g><g clip-path="url(#74077c920b)"><path fill="#000000" d="M 75.671875 663.296875 L -0.03125 663.296875 L -0.03125 587.59375 L 75.671875 587.59375 Z M 2.355469 660.910156 L 73.289062 660.910156 L 73.289062 589.976562 L 2.355469 589.976562 Z M 2.355469 660.910156 " fill-opacity="1" fill-rule="nonzero"/></g><g clip-path="url(#a3cb9a0a96)"><path fill="#000000" d="M 148.992188 663.296875 L 73.289062 663.296875 L 73.289062 587.59375 L 148.992188 587.59375 Z M 75.671875 660.910156 L 146.605469 660.910156 L 146.605469 589.976562 L 75.671875 589.976562 Z M 75.671875 660.910156 " fill-opacity="1" fill-rule="nonzero"/></g><g clip-path="url(#3f57545df0)"><path fill="#000000" d="M 222.308594 663.296875 L 146.605469 663.296875 L 146.605469 587.59375 L 222.308594 587.59375 Z M 148.992188 660.910156 L 219.921875 660.910156 L 219.921875 589.976562 L 148.992188 589.976562 Z M 148.992188 660.910156 " fill-opacity="1" fill-rule="nonzero"/></g><g clip-path="url(#9f5609aac1)"><path fill="#000000" d="M 295.628906 663.296875 L 219.921875 663.296875 L 219.921875 587.59375 L 295.628906 587.59375 Z M 222.308594 660.910156 L 293.242188 660.910156 L 293.242188 589.976562 L 222.308594 589.976562 Z M 222.308594 660.910156 " fill-opacity="1" fill-rule="nonzero"/></g><g clip-path="url(#aa60ffde64)"><path fill="#000000" d="M 368.945312 663.296875 L 293.242188 663.296875 L 293.242188 587.59375 L 368.945312 587.59375 Z M 295.628906 660.910156 L 366.558594 660.910156 L 366.558594 589.976562 L 295.628906 589.976562 Z M 295.628906 660.910156 " fill-opacity="1" fill-rule="nonzero"/></g><g clip-path="url(#dd66a78dcb)"><path fill="#000000" d="M 442.265625 663.296875 L 366.558594 663.296875 L 366.558594 587.59375 L 442.265625 587.59375 Z M 368.945312 660.910156 L 439.878906 660.910156 L 439.878906 589.976562 L 368.945312 589.976562 Z M 368.945312 660.910156 " fill-opacity="1" fill-rule="nonzero"/></g><g clip-path="url(#dea2d78a42)"><path fill="#000000" d="M 515.566406 663.296875 L 439.863281 663.296875 L 439.863281 587.59375 L 515.566406 587.59375 Z M 442.265625 660.910156 L 513.195312 660.910156 L 513.195312 589.976562 L 442.265625 589.976562 Z M 442.265625 660.910156 " fill-opacity="1" fill-rule="nonzero"/></g><g clip-path="url(#2ebca51719)"><path fill="#000000" d="M 588.886719 663.296875 L 513.179688 663.296875 L 513.179688 587.59375 L 588.886719 587.59375 Z M 515.566406 660.910156 L 586.5 660.910156 L 586.5 589.976562 L 515.566406 589.976562 Z M 515.566406 660.910156 " fill-opacity="1" fill-rule="nonzero"/></g><g clip-path="url(#5145b4baa4)"><path fill="#000000" d="M 662.203125 663.296875 L 586.5 663.296875 L 586.5 587.59375 L 662.203125 587.59375 Z M 588.886719 660.910156 L 659.816406 660.910156 L 659.816406 589.976562 L 588.886719 589.976562 Z M 588.886719 660.910156 " fill-opacity="1" fill-rule="nonzero"/></g></g></g></g><g mask="url(#fea4f38c7c)"><g transform="matrix(1, 0, 0, 1, 661, 80)"><g clip-path="url(#2b45246cac)"><g clip-path="url(#82e8d29c52)"><path fill="#000000" d="M 76.804688 76.765625 L 1.101562 76.765625 L 1.101562 1.0625 L 76.804688 1.0625 Z M 3.488281 74.378906 L 74.421875 74.378906 L 74.421875 3.449219 L 3.488281 3.449219 Z M 3.488281 74.378906 " fill-opacity="1" fill-rule="nonzero"/></g><g clip-path="url(#cb1bc762cb)"><path fill="#000000" d="M 150.125 76.765625 L 74.421875 76.765625 L 74.421875 1.0625 L 150.125 1.0625 Z M 76.804688 74.378906 L 147.738281 74.378906 L 147.738281 3.449219 L 76.804688 3.449219 Z M 76.804688 74.378906 " fill-opacity="1" fill-rule="nonzero"/></g><g clip-path="url(#181c3a60d1)"><path fill="#000000" d="M 223.441406 76.765625 L 147.738281 76.765625 L 147.738281 1.0625 L 223.441406 1.0625 Z M 150.125 74.378906 L 221.058594 74.378906 L 221.058594 3.449219 L 150.125 3.449219 Z M 150.125 74.378906 " fill-opacity="1" fill-rule="nonzero"/></g><g clip-path="url(#7bea041635)"><path fill="#000000" d="M 76.804688 150.085938 L 1.101562 150.085938 L 1.101562 74.378906 L 76.804688 74.378906 Z M 3.488281 147.699219 L 74.421875 147.699219 L 74.421875 76.765625 L 3.488281 76.765625 Z M 3.488281 147.699219 " fill-opacity="1" fill-rule="nonzero"/></g><g clip-path="url(#fa8b7ca7eb)"><path fill="#000000" d="M 150.125 150.085938 L 74.421875 150.085938 L 74.421875 74.378906 L 150.125 74.378906 Z M 76.804688 147.699219 L 147.738281 147.699219 L 147.738281 76.765625 L 76.804688 76.765625 Z M 76.804688 147.699219 " fill-opacity="1" fill-rule="nonzero"/></g><g clip-path="url(#dc66450db5)"><path fill="#000000" d="M 223.441406 150.085938 L 147.738281 150.085938 L 147.738281 74.378906 L 223.441406 74.378906 Z M 150.125 147.699219 L 221.058594 147.699219 L 221.058594 76.765625 L 150.125 76.765625 Z M 150.125 147.699219 " fill-opacity="1" fill-rule="nonzero"/></g><g clip-path="url(#9a93049c7e)"><path fill="#000000" d="M 76.804688 223.402344 L 1.101562 223.402344 L 1.101562 147.699219 L 76.804688 147.699219 Z M 3.488281 221.015625 L 74.421875 221.015625 L 74.421875 150.085938 L 3.488281 150.085938 Z M 3.488281 221.015625 " fill-opacity="1" fill-rule="nonzero"/></g><g clip-path="url(#bebb18b47c)"><path fill="#000000" d="M 150.125 223.402344 L 74.421875 223.402344 L 74.421875 147.699219 L 150.125 147.699219 Z M 76.804688 221.015625 L 147.738281 221.015625 L 147.738281 150.085938 L 76.804688 150.085938 Z M 76.804688 221.015625 " fill-opacity="1" fill-rule="nonzero"/></g><g clip-path="url(#a4785b1f60)"><path fill="#000000" d="M 223.441406 223.402344 L 147.738281 223.402344 L 147.738281 147.699219 L 223.441406 147.699219 Z M 150.125 221.015625 L 221.058594 221.015625 L 221.058594 150.085938 L 150.125 150.085938 Z M 150.125 221.015625 " fill-opacity="1" fill-rule="nonzero"/></g><g clip-path="url(#9a60e72bb6)"><path fill="#000000" d="M 76.804688 296.722656 L 1.101562 296.722656 L 1.101562 221.015625 L 76.804688 221.015625 Z M 3.488281 294.335938 L 74.421875 294.335938 L 74.421875 223.402344 L 3.488281 223.402344 Z M 3.488281 294.335938 " fill-opacity="1" fill-rule="nonzero"/></g><g clip-path="url(#9673142115)"><path fill="#000000" d="M 150.125 296.722656 L 74.421875 296.722656 L 74.421875 221.015625 L 150.125 221.015625 Z M 76.804688 294.335938 L 147.738281 294.335938 L 147.738281 223.402344 L 76.804688 223.402344 Z M 76.804688 294.335938 " fill-opacity="1" fill-rule="nonzero"/></g><g clip-path="url(#641062ceb6)"><path fill="#000000" d="M 223.441406 296.722656 L 147.738281 296.722656 L 147.738281 221.015625 L 223.441406 221.015625 Z M 150.125 294.335938 L 221.058594 294.335938 L 221.058594 223.402344 L 150.125 223.402344 Z M 150.125 294.335938 " fill-opacity="1" fill-rule="nonzero"/></g><g clip-path="url(#3cd4e3971e)"><path fill="#000000" d="M 76.804688 370.039062 L 1.101562 370.039062 L 1.101562 294.335938 L 76.804688 294.335938 Z M 3.488281 367.652344 L 74.421875 367.652344 L 74.421875 296.722656 L 3.488281 296.722656 Z M 3.488281 367.652344 " fill-opacity="1" fill-rule="nonzero"/></g><g clip-path="url(#5b5663aabc)"><path fill="#000000" d="M 150.125 370.039062 L 74.421875 370.039062 L 74.421875 294.335938 L 150.125 294.335938 Z M 76.804688 367.652344 L 147.738281 367.652344 L 147.738281 296.722656 L 76.804688 296.722656 Z M 76.804688 367.652344 " fill-opacity="1" fill-rule="nonzero"/></g><g clip-path="url(#3e57b3644a)"><path fill="#000000" d="M 223.441406 370.039062 L 147.738281 370.039062 L 147.738281 294.335938 L 223.441406 294.335938 Z M 150.125 367.652344 L 221.058594 367.652344 L 221.058594 296.722656 L 150.125 296.722656 Z M 150.125 367.652344 " fill-opacity="1" fill-rule="nonzero"/></g><g clip-path="url(#08f1d3ed94)"><path fill="#000000" d="M 76.804688 443.34375 L 1.101562 443.34375 L 1.101562 367.636719 L 76.804688 367.636719 Z M 3.488281 440.957031 L 74.421875 440.957031 L 74.421875 370.023438 L 3.488281 370.023438 Z M 3.488281 440.957031 " fill-opacity="1" fill-rule="nonzero"/></g><g clip-path="url(#e0a655f54a)"><path fill="#000000" d="M 150.125 443.34375 L 74.421875 443.34375 L 74.421875 367.636719 L 150.125 367.636719 Z M 76.804688 440.957031 L 147.738281 440.957031 L 147.738281 370.023438 L 76.804688 370.023438 Z M 76.804688 440.957031 " fill-opacity="1" fill-rule="nonzero"/></g><g clip-path="url(#2727c4cdae)"><path fill="#000000" d="M 223.441406 443.34375 L 147.738281 443.34375 L 147.738281 367.636719 L 223.441406 367.636719 Z M 150.125 440.957031 L 221.058594 440.957031 L 221.058594 370.023438 L 150.125 370.023438 Z M 150.125 440.957031 " fill-opacity="1" fill-rule="nonzero"/></g><g clip-path="url(#f7063cf3d3)"><path fill="#000000" d="M 76.804688 516.660156 L 1.101562 516.660156 L 1.101562 440.957031 L 76.804688 440.957031 Z M 3.488281 514.273438 L 74.421875 514.273438 L 74.421875 443.34375 L 3.488281 443.34375 Z M 3.488281 514.273438 " fill-opacity="1" fill-rule="nonzero"/></g><g clip-path="url(#b8972333e2)"><path fill="#000000" d="M 150.125 516.660156 L 74.421875 516.660156 L 74.421875 440.957031 L 150.125 440.957031 Z M 76.804688 514.273438 L 147.738281 514.273438 L 147.738281 443.34375 L 76.804688 443.34375 Z M 76.804688 514.273438 " fill-opacity="1" fill-rule="nonzero"/></g><g clip-path="url(#a0108b634b)"><path fill="#000000" d="M 223.441406 516.660156 L 147.738281 516.660156 L 147.738281 440.957031 L 223.441406 440.957031 Z M 150.125 514.273438 L 221.058594 514.273438 L 221.058594 443.34375 L 150.125 443.34375 Z M 150.125 514.273438 " fill-opacity="1" fill-rule="nonzero"/></g><g clip-path="url(#08a141fee7)"><path fill="#000000" d="M 76.804688 589.976562 L 1.101562 589.976562 L 1.101562 514.273438 L 76.804688 514.273438 Z M 3.488281 587.59375 L 74.421875 587.59375 L 74.421875 516.660156 L 3.488281 516.660156 Z M 3.488281 587.59375 " fill-opacity="1" fill-rule="nonzero"/></g><g clip-path="url(#d34de49251)"><path fill="#000000" d="M 150.125 589.976562 L 74.421875 589.976562 L 74.421875 514.273438 L 150.125 514.273438 Z M 76.804688 587.59375 L 147.738281 587.59375 L 147.738281 516.660156 L 76.804688 516.660156 Z M 76.804688 587.59375 " fill-opacity="1" fill-rule="nonzero"/></g><g clip-path="url(#b02c108e70)"><path fill="#000000" d="M 223.441406 589.976562 L 147.738281 589.976562 L 147.738281 514.273438 L 223.441406 514.273438 Z M 150.125 587.59375 L 221.058594 587.59375 L 221.058594 516.660156 L 150.125 516.660156 Z M 150.125 587.59375 " fill-opacity="1" fill-rule="nonzero"/></g><g clip-path="url(#d7ce107acb)"><path fill="#000000" d="M 76.804688 663.296875 L 1.101562 663.296875 L 1.101562 587.59375 L 76.804688 587.59375 Z M 3.488281 660.910156 L 74.421875 660.910156 L 74.421875 589.976562 L 3.488281 589.976562 Z M 3.488281 660.910156 " fill-opacity="1" fill-rule="nonzero"/></g><g clip-path="url(#c43ee5fb34)"><path fill="#000000" d="M 150.125 663.296875 L 74.421875 663.296875 L 74.421875 587.59375 L 150.125 587.59375 Z M 76.804688 660.910156 L 147.738281 660.910156 L 147.738281 589.976562 L 76.804688 589.976562 Z M 76.804688 660.910156 " fill-opacity="1" fill-rule="nonzero"/></g><g clip-path="url(#e78f4747e2)"><path fill="#000000" d="M 223.441406 663.296875 L 147.738281 663.296875 L 147.738281 587.59375 L 223.441406 587.59375 Z M 150.125 660.910156 L 221.058594 660.910156 L 221.058594 589.976562 L 150.125 589.976562 Z M 150.125 660.910156 " fill-opacity="1" fill-rule="nonzero"/></g></g></g></g></svg>