<svg width="23" height="20" viewBox="0 0 23 20" fill="none" xmlns="http://www.w3.org/2000/svg">
<path fill-rule="evenodd" clip-rule="evenodd" d="M16.3203 0.727548C16.2568 0.744583 16.1973 0.773963 16.1452 0.814011C16.0931 0.854059 16.0494 0.903993 16.0166 0.960946L14.4853 3.62794C14.4526 3.68488 14.4315 3.7477 14.423 3.81282C14.4146 3.87794 14.4191 3.94408 14.4362 4.00747C14.4534 4.07086 14.4828 4.13025 14.5229 4.18225C14.563 4.23425 14.613 4.27785 14.6699 4.31055C14.7269 4.34326 14.7897 4.36442 14.8548 4.37285C14.9199 4.38127 14.9861 4.37679 15.0495 4.35965C15.1128 4.34251 15.1722 4.31306 15.2242 4.27296C15.2762 4.23287 15.3198 4.18293 15.3525 4.12598L16.6338 1.89454L17.5254 2.41212C17.5822 2.4451 17.6449 2.46656 17.71 2.47528C17.7751 2.484 17.8413 2.47981 17.9048 2.46294C17.9683 2.44607 18.0278 2.41685 18.08 2.37697C18.1322 2.33708 18.176 2.2873 18.209 2.23048C18.2753 2.11584 18.2934 1.97958 18.2593 1.8516C18.2253 1.72363 18.1418 1.61439 18.0273 1.54786L16.7012 0.777352C16.6441 0.744358 16.5811 0.722972 16.5157 0.714425C16.4503 0.705878 16.3839 0.710335 16.3203 0.727548Z" fill="#808B9B"/>
<path d="M21.4917 8H2.4917V19.5H21.4917V8Z" fill="#E7E7E7"/>
<path fill-rule="evenodd" clip-rule="evenodd" d="M2.49218 8L2.49217 17.3144C4.86679 17.6648 7.51821 17.6165 10.1572 17.1748C12.5025 16.7788 14.7608 16.0848 16.7362 15.1532C18.7115 14.2216 20.3441 13.0806 21.4922 11.8291L21.4922 8L2.49218 8Z" fill="#FAFAFA"/>
<path fill-rule="evenodd" clip-rule="evenodd" d="M6.04492 10.7324C5.97722 10.7324 5.91017 10.7449 5.8476 10.7693C5.78504 10.7936 5.72818 10.8294 5.6803 10.8745C5.63241 10.9195 5.59443 10.9731 5.56852 11.032C5.54261 11.0909 5.52928 11.154 5.5293 11.2178V11.8242C4.8392 12.0251 4.32422 12.6173 4.32422 13.3242C4.32422 14.1987 5.11229 14.8975 6.04492 14.8975C6.44403 14.8975 6.73535 15.1729 6.73535 15.5C6.73535 15.8271 6.44403 16.1025 6.04492 16.1025C5.64582 16.1025 5.3545 15.8271 5.35449 15.5C5.35451 15.4362 5.34118 15.3731 5.31527 15.3142C5.28936 15.2553 5.25138 15.2018 5.20349 15.1567C5.1556 15.1116 5.09875 15.0759 5.03619 15.0515C4.97362 15.0271 4.90657 15.0146 4.83887 15.0146C4.7023 15.0148 4.57138 15.066 4.47488 15.157C4.37837 15.248 4.32418 15.3714 4.32422 15.5C4.32422 16.2069 4.8392 16.7991 5.5293 17V17.6064C5.52928 17.6702 5.5426 17.7333 5.56851 17.7923C5.59442 17.8512 5.6324 17.9047 5.68029 17.9498C5.72818 17.9948 5.78503 18.0306 5.8476 18.055C5.91016 18.0793 5.97722 18.0918 6.04492 18.0918C6.11263 18.0918 6.17968 18.0793 6.24224 18.055C6.30481 18.0306 6.36166 17.9948 6.40955 17.9498C6.45743 17.9047 6.49541 17.8512 6.52132 17.7923C6.54723 17.7333 6.56056 17.6702 6.56055 17.6064V17C7.25065 16.7991 7.7666 16.2069 7.7666 15.5C7.7666 14.6255 6.97756 13.9268 6.04492 13.9268C5.64581 13.9268 5.35449 13.6513 5.35449 13.3242C5.35449 12.9971 5.64581 12.7217 6.04492 12.7217C6.44404 12.7217 6.73535 12.9971 6.73535 13.3242C6.73533 13.388 6.74866 13.4511 6.77457 13.51C6.80048 13.5689 6.83847 13.6225 6.88635 13.6675C6.93424 13.7126 6.99109 13.7484 7.05366 13.7727C7.11622 13.7971 7.18327 13.8096 7.25098 13.8096C7.31868 13.8096 7.38573 13.7971 7.4483 13.7727C7.51086 13.7484 7.56771 13.7126 7.6156 13.6675C7.66349 13.6225 7.70147 13.5689 7.72738 13.51C7.75329 13.4511 7.76662 13.388 7.7666 13.3242C7.7666 12.6173 7.25065 12.0251 6.56055 11.8242V11.2178C6.56056 11.154 6.54723 11.0909 6.52132 11.032C6.49541 10.9731 6.45743 10.9195 6.40955 10.8745C6.36166 10.8294 6.30481 10.7936 6.24224 10.7693C6.17968 10.7449 6.11263 10.7324 6.04492 10.7324Z" fill="#808B9B"/>
<path fill-rule="evenodd" clip-rule="evenodd" d="M9.49167 10.5H19.5V13H9.49167V10.5Z" fill="black"/>
<path fill-rule="evenodd" clip-rule="evenodd" d="M9.47852 14.5C9.34591 14.5 9.21873 14.5527 9.12496 14.6464C9.03119 14.7402 8.97852 14.8674 8.97852 15C8.97852 15.1326 9.03119 15.2598 9.12496 15.3536C9.21873 15.4473 9.34591 15.5 9.47852 15.5H14.9551C15.0877 15.5 15.2149 15.4473 15.3086 15.3536C15.4024 15.2598 15.4551 15.1326 15.4551 15C15.4551 14.8674 15.4024 14.7402 15.3086 14.6464C15.2149 14.5527 15.0877 14.5 14.9551 14.5H9.47852Z" fill="#808B9B"/>
<path fill-rule="evenodd" clip-rule="evenodd" d="M9.50488 16C9.37227 16 9.2451 16.0527 9.15133 16.1464C9.05756 16.2402 9.00488 16.3674 9.00488 16.5C9.00488 16.6326 9.05756 16.7598 9.15133 16.8536C9.2451 16.9473 9.37227 17 9.50488 17H19.6689C19.8016 17 19.9287 16.9473 20.0225 16.8536C20.1163 16.7598 20.1689 16.6326 20.1689 16.5C20.1689 16.3674 20.1163 16.2402 20.0225 16.1464C19.9287 16.0527 19.8016 16 19.6689 16H9.50488Z" fill="#808B9B"/>
<path fill-rule="evenodd" clip-rule="evenodd" d="M19.4917 0.635287C19.0033 0.351887 18.3789 0.520068 18.0969 1.01093L12.9917 9.89881L13.1102 11.7451L14.7602 10.9251L19.8654 2.03721C20.1474 1.54635 19.98 0.918687 19.4917 0.635287Z" fill="#010101"/>
<path fill-rule="evenodd" clip-rule="evenodd" d="M19.0088 0.49806C18.6467 0.488606 18.2905 0.67329 18.0967 1.01076L14.377 7.48732C15.0937 7.06736 15.8221 6.57444 16.5244 6.03419C17.2931 5.44204 18.0145 4.80548 18.6436 4.16408L19.8652 2.03712C20.1472 1.54626 19.9796 0.919161 19.4912 0.635758C19.3386 0.547197 19.1734 0.502357 19.0088 0.49806Z" fill="#0C0C0C"/>
</svg>
