<svg xmlns="http://www.w3.org/2000/svg" xmlns:xlink="http://www.w3.org/1999/xlink" width="1080" zoomAndPan="magnify" viewBox="0 0 810 809.999993" height="1080" preserveAspectRatio="xMidYMid meet" version="1.0"><defs><filter x="0%" y="0%" width="100%" height="100%" id="fc68f51f4c"><feColorMatrix values="0 0 0 0 1 0 0 0 0 1 0 0 0 0 1 0 0 0 1 0" color-interpolation-filters="sRGB"/></filter><mask id="544844cfa4"><g filter="url(#fc68f51f4c)"><rect x="-81" width="972" fill="#000000" y="-80.999999" height="971.999992" fill-opacity="0.12"/></g></mask><clipPath id="4f283cbc79"><path d="M 0.460938 0.621094 L 75 0.621094 L 75 75 L 0.460938 75 Z M 0.460938 0.621094 " clip-rule="nonzero"/></clipPath><clipPath id="25c4887bb5"><path d="M 72 0.621094 L 146 0.621094 L 146 75 L 72 75 Z M 72 0.621094 " clip-rule="nonzero"/></clipPath><clipPath id="d45ce2f39b"><path d="M 143 0.621094 L 218 0.621094 L 218 75 L 143 75 Z M 143 0.621094 " clip-rule="nonzero"/></clipPath><clipPath id="6656cd14a3"><path d="M 215 0.621094 L 290 0.621094 L 290 75 L 215 75 Z M 215 0.621094 " clip-rule="nonzero"/></clipPath><clipPath id="4497483bb2"><path d="M 286 0.621094 L 361 0.621094 L 361 75 L 286 75 Z M 286 0.621094 " clip-rule="nonzero"/></clipPath><clipPath id="6a00a07652"><path d="M 358 0.621094 L 433 0.621094 L 433 75 L 358 75 Z M 358 0.621094 " clip-rule="nonzero"/></clipPath><clipPath id="f604203355"><path d="M 429 0.621094 L 504 0.621094 L 504 75 L 429 75 Z M 429 0.621094 " clip-rule="nonzero"/></clipPath><clipPath id="ca1ffa369e"><path d="M 501 0.621094 L 576 0.621094 L 576 75 L 501 75 Z M 501 0.621094 " clip-rule="nonzero"/></clipPath><clipPath id="7d1fea2fd9"><path d="M 573 0.621094 L 646.960938 0.621094 L 646.960938 75 L 573 75 Z M 573 0.621094 " clip-rule="nonzero"/></clipPath><clipPath id="3ebef308aa"><path d="M 0.460938 72 L 75 72 L 75 147 L 0.460938 147 Z M 0.460938 72 " clip-rule="nonzero"/></clipPath><clipPath id="b190bc212c"><path d="M 573 72 L 646.960938 72 L 646.960938 147 L 573 147 Z M 573 72 " clip-rule="nonzero"/></clipPath><clipPath id="5fd6381a22"><path d="M 0.460938 143 L 75 143 L 75 218 L 0.460938 218 Z M 0.460938 143 " clip-rule="nonzero"/></clipPath><clipPath id="7f0afae772"><path d="M 573 143 L 646.960938 143 L 646.960938 218 L 573 218 Z M 573 143 " clip-rule="nonzero"/></clipPath><clipPath id="6f216006a5"><path d="M 0.460938 215 L 75 215 L 75 290 L 0.460938 290 Z M 0.460938 215 " clip-rule="nonzero"/></clipPath><clipPath id="41806de7d7"><path d="M 573 215 L 646.960938 215 L 646.960938 290 L 573 290 Z M 573 215 " clip-rule="nonzero"/></clipPath><clipPath id="8b2d7d8b5b"><path d="M 0.460938 286 L 75 286 L 75 361 L 0.460938 361 Z M 0.460938 286 " clip-rule="nonzero"/></clipPath><clipPath id="2271aeff1a"><path d="M 573 286 L 646.960938 286 L 646.960938 361 L 573 361 Z M 573 286 " clip-rule="nonzero"/></clipPath><clipPath id="d4e0c333be"><path d="M 0.460938 358 L 75 358 L 75 433 L 0.460938 433 Z M 0.460938 358 " clip-rule="nonzero"/></clipPath><clipPath id="2962c9dcc7"><path d="M 573 358 L 646.960938 358 L 646.960938 433 L 573 433 Z M 573 358 " clip-rule="nonzero"/></clipPath><clipPath id="a9732ff031"><path d="M 0.460938 430 L 75 430 L 75 505 L 0.460938 505 Z M 0.460938 430 " clip-rule="nonzero"/></clipPath><clipPath id="7901888014"><path d="M 573 430 L 646.960938 430 L 646.960938 505 L 573 505 Z M 573 430 " clip-rule="nonzero"/></clipPath><clipPath id="b2f20b42e5"><path d="M 0.460938 501 L 75 501 L 75 576 L 0.460938 576 Z M 0.460938 501 " clip-rule="nonzero"/></clipPath><clipPath id="df1d16bde1"><path d="M 573 501 L 646.960938 501 L 646.960938 576 L 573 576 Z M 573 501 " clip-rule="nonzero"/></clipPath><clipPath id="1d1613d021"><path d="M 0.460938 573 L 75 573 L 75 647.121094 L 0.460938 647.121094 Z M 0.460938 573 " clip-rule="nonzero"/></clipPath><clipPath id="15c0c3a3b5"><path d="M 72 573 L 146 573 L 146 647.121094 L 72 647.121094 Z M 72 573 " clip-rule="nonzero"/></clipPath><clipPath id="95a3deda65"><path d="M 143 573 L 218 573 L 218 647.121094 L 143 647.121094 Z M 143 573 " clip-rule="nonzero"/></clipPath><clipPath id="11ea0e9735"><path d="M 215 573 L 290 573 L 290 647.121094 L 215 647.121094 Z M 215 573 " clip-rule="nonzero"/></clipPath><clipPath id="d302c3a2ea"><path d="M 286 573 L 361 573 L 361 647.121094 L 286 647.121094 Z M 286 573 " clip-rule="nonzero"/></clipPath><clipPath id="46114d6dd1"><path d="M 358 573 L 433 573 L 433 647.121094 L 358 647.121094 Z M 358 573 " clip-rule="nonzero"/></clipPath><clipPath id="f3c071f478"><path d="M 429 573 L 504 573 L 504 647.121094 L 429 647.121094 Z M 429 573 " clip-rule="nonzero"/></clipPath><clipPath id="04e4114963"><path d="M 501 573 L 576 573 L 576 647.121094 L 501 647.121094 Z M 501 573 " clip-rule="nonzero"/></clipPath><clipPath id="3a6c6629a3"><path d="M 573 573 L 646.960938 573 L 646.960938 647.121094 L 573 647.121094 Z M 573 573 " clip-rule="nonzero"/></clipPath><clipPath id="46340a16d4"><rect x="0" width="648" y="0" height="648"/></clipPath></defs><rect x="-81" width="972" fill="#ffffff" y="-80.999999" height="971.999992" fill-opacity="1"/><rect x="-81" width="972" fill="#ffffff" y="-80.999999" height="971.999992" fill-opacity="1"/><g mask="url(#544844cfa4)"><g transform="matrix(1, 0, 0, 1, 82, 38)"><g clip-path="url(#46340a16d4)"><g clip-path="url(#4f283cbc79)"><path fill="#000000" d="M 74.335938 74.585938 L 0.429688 74.585938 L 0.429688 0.683594 L 74.335938 0.683594 Z M 2.757812 72.257812 L 72.003906 72.257812 L 72.003906 3.011719 L 2.757812 3.011719 Z M 2.757812 72.257812 " fill-opacity="1" fill-rule="nonzero"/></g><g clip-path="url(#25c4887bb5)"><path fill="#000000" d="M 145.910156 74.585938 L 72.003906 74.585938 L 72.003906 0.683594 L 145.910156 0.683594 Z M 74.335938 72.257812 L 143.582031 72.257812 L 143.582031 3.011719 L 74.335938 3.011719 Z M 74.335938 72.257812 " fill-opacity="1" fill-rule="nonzero"/></g><g clip-path="url(#d45ce2f39b)"><path fill="#000000" d="M 217.484375 74.585938 L 143.582031 74.585938 L 143.582031 0.683594 L 217.484375 0.683594 Z M 145.910156 72.257812 L 215.15625 72.257812 L 215.15625 3.011719 L 145.910156 3.011719 Z M 145.910156 72.257812 " fill-opacity="1" fill-rule="nonzero"/></g><g clip-path="url(#6656cd14a3)"><path fill="#000000" d="M 289.058594 74.585938 L 215.15625 74.585938 L 215.15625 0.683594 L 289.058594 0.683594 Z M 217.484375 72.257812 L 286.730469 72.257812 L 286.730469 3.011719 L 217.484375 3.011719 Z M 217.484375 72.257812 " fill-opacity="1" fill-rule="nonzero"/></g><g clip-path="url(#4497483bb2)"><path fill="#000000" d="M 360.632812 74.585938 L 286.730469 74.585938 L 286.730469 0.683594 L 360.632812 0.683594 Z M 289.058594 72.257812 L 358.304688 72.257812 L 358.304688 3.011719 L 289.058594 3.011719 Z M 289.058594 72.257812 " fill-opacity="1" fill-rule="nonzero"/></g><g clip-path="url(#6a00a07652)"><path fill="#000000" d="M 432.207031 74.585938 L 358.304688 74.585938 L 358.304688 0.683594 L 432.207031 0.683594 Z M 360.632812 72.257812 L 429.878906 72.257812 L 429.878906 3.011719 L 360.632812 3.011719 Z M 360.632812 72.257812 " fill-opacity="1" fill-rule="nonzero"/></g><g clip-path="url(#f604203355)"><path fill="#000000" d="M 503.765625 74.585938 L 429.863281 74.585938 L 429.863281 0.683594 L 503.765625 0.683594 Z M 432.207031 72.257812 L 501.453125 72.257812 L 501.453125 3.011719 L 432.207031 3.011719 Z M 432.207031 72.257812 " fill-opacity="1" fill-rule="nonzero"/></g><g clip-path="url(#ca1ffa369e)"><path fill="#000000" d="M 575.339844 74.585938 L 501.4375 74.585938 L 501.4375 0.683594 L 575.339844 0.683594 Z M 503.765625 72.257812 L 573.011719 72.257812 L 573.011719 3.011719 L 503.765625 3.011719 Z M 503.765625 72.257812 " fill-opacity="1" fill-rule="nonzero"/></g><g clip-path="url(#7d1fea2fd9)"><path fill="#000000" d="M 646.914062 74.585938 L 573.011719 74.585938 L 573.011719 0.683594 L 646.914062 0.683594 Z M 575.339844 72.257812 L 644.585938 72.257812 L 644.585938 3.011719 L 575.339844 3.011719 Z M 575.339844 72.257812 " fill-opacity="1" fill-rule="nonzero"/></g><g clip-path="url(#3ebef308aa)"><path fill="#000000" d="M 74.335938 146.160156 L 0.429688 146.160156 L 0.429688 72.257812 L 74.335938 72.257812 Z M 2.757812 143.832031 L 72.003906 143.832031 L 72.003906 74.585938 L 2.757812 74.585938 Z M 2.757812 143.832031 " fill-opacity="1" fill-rule="nonzero"/></g><path fill="#000000" d="M 145.910156 146.160156 L 72.003906 146.160156 L 72.003906 72.257812 L 145.910156 72.257812 Z M 74.335938 143.832031 L 143.582031 143.832031 L 143.582031 74.585938 L 74.335938 74.585938 Z M 74.335938 143.832031 " fill-opacity="1" fill-rule="nonzero"/><path fill="#000000" d="M 217.484375 146.160156 L 143.582031 146.160156 L 143.582031 72.257812 L 217.484375 72.257812 Z M 145.910156 143.832031 L 215.15625 143.832031 L 215.15625 74.585938 L 145.910156 74.585938 Z M 145.910156 143.832031 " fill-opacity="1" fill-rule="nonzero"/><path fill="#000000" d="M 289.058594 146.160156 L 215.15625 146.160156 L 215.15625 72.257812 L 289.058594 72.257812 Z M 217.484375 143.832031 L 286.730469 143.832031 L 286.730469 74.585938 L 217.484375 74.585938 Z M 217.484375 143.832031 " fill-opacity="1" fill-rule="nonzero"/><path fill="#000000" d="M 360.632812 146.160156 L 286.730469 146.160156 L 286.730469 72.257812 L 360.632812 72.257812 Z M 289.058594 143.832031 L 358.304688 143.832031 L 358.304688 74.585938 L 289.058594 74.585938 Z M 289.058594 143.832031 " fill-opacity="1" fill-rule="nonzero"/><path fill="#000000" d="M 432.207031 146.160156 L 358.304688 146.160156 L 358.304688 72.257812 L 432.207031 72.257812 Z M 360.632812 143.832031 L 429.878906 143.832031 L 429.878906 74.585938 L 360.632812 74.585938 Z M 360.632812 143.832031 " fill-opacity="1" fill-rule="nonzero"/><path fill="#000000" d="M 503.765625 146.160156 L 429.863281 146.160156 L 429.863281 72.257812 L 503.765625 72.257812 Z M 432.207031 143.832031 L 501.453125 143.832031 L 501.453125 74.585938 L 432.207031 74.585938 Z M 432.207031 143.832031 " fill-opacity="1" fill-rule="nonzero"/><path fill="#000000" d="M 575.339844 146.160156 L 501.4375 146.160156 L 501.4375 72.257812 L 575.339844 72.257812 Z M 503.765625 143.832031 L 573.011719 143.832031 L 573.011719 74.585938 L 503.765625 74.585938 Z M 503.765625 143.832031 " fill-opacity="1" fill-rule="nonzero"/><g clip-path="url(#b190bc212c)"><path fill="#000000" d="M 646.914062 146.160156 L 573.011719 146.160156 L 573.011719 72.257812 L 646.914062 72.257812 Z M 575.339844 143.832031 L 644.585938 143.832031 L 644.585938 74.585938 L 575.339844 74.585938 Z M 575.339844 143.832031 " fill-opacity="1" fill-rule="nonzero"/></g><g clip-path="url(#5fd6381a22)"><path fill="#000000" d="M 74.335938 217.734375 L 0.429688 217.734375 L 0.429688 143.832031 L 74.335938 143.832031 Z M 2.757812 215.40625 L 72.003906 215.40625 L 72.003906 146.160156 L 2.757812 146.160156 Z M 2.757812 215.40625 " fill-opacity="1" fill-rule="nonzero"/></g><path fill="#000000" d="M 145.910156 217.734375 L 72.003906 217.734375 L 72.003906 143.832031 L 145.910156 143.832031 Z M 74.335938 215.40625 L 143.582031 215.40625 L 143.582031 146.160156 L 74.335938 146.160156 Z M 74.335938 215.40625 " fill-opacity="1" fill-rule="nonzero"/><path fill="#000000" d="M 217.484375 217.734375 L 143.582031 217.734375 L 143.582031 143.832031 L 217.484375 143.832031 Z M 145.910156 215.40625 L 215.15625 215.40625 L 215.15625 146.160156 L 145.910156 146.160156 Z M 145.910156 215.40625 " fill-opacity="1" fill-rule="nonzero"/><path fill="#000000" d="M 289.058594 217.734375 L 215.15625 217.734375 L 215.15625 143.832031 L 289.058594 143.832031 Z M 217.484375 215.40625 L 286.730469 215.40625 L 286.730469 146.160156 L 217.484375 146.160156 Z M 217.484375 215.40625 " fill-opacity="1" fill-rule="nonzero"/><path fill="#000000" d="M 360.632812 217.734375 L 286.730469 217.734375 L 286.730469 143.832031 L 360.632812 143.832031 Z M 289.058594 215.40625 L 358.304688 215.40625 L 358.304688 146.160156 L 289.058594 146.160156 Z M 289.058594 215.40625 " fill-opacity="1" fill-rule="nonzero"/><path fill="#000000" d="M 432.207031 217.734375 L 358.304688 217.734375 L 358.304688 143.832031 L 432.207031 143.832031 Z M 360.632812 215.40625 L 429.878906 215.40625 L 429.878906 146.160156 L 360.632812 146.160156 Z M 360.632812 215.40625 " fill-opacity="1" fill-rule="nonzero"/><path fill="#000000" d="M 503.765625 217.734375 L 429.863281 217.734375 L 429.863281 143.832031 L 503.765625 143.832031 Z M 432.207031 215.40625 L 501.453125 215.40625 L 501.453125 146.160156 L 432.207031 146.160156 Z M 432.207031 215.40625 " fill-opacity="1" fill-rule="nonzero"/><path fill="#000000" d="M 575.339844 217.734375 L 501.4375 217.734375 L 501.4375 143.832031 L 575.339844 143.832031 Z M 503.765625 215.40625 L 573.011719 215.40625 L 573.011719 146.160156 L 503.765625 146.160156 Z M 503.765625 215.40625 " fill-opacity="1" fill-rule="nonzero"/><g clip-path="url(#7f0afae772)"><path fill="#000000" d="M 646.914062 217.734375 L 573.011719 217.734375 L 573.011719 143.832031 L 646.914062 143.832031 Z M 575.339844 215.40625 L 644.585938 215.40625 L 644.585938 146.160156 L 575.339844 146.160156 Z M 575.339844 215.40625 " fill-opacity="1" fill-rule="nonzero"/></g><g clip-path="url(#6f216006a5)"><path fill="#000000" d="M 74.335938 289.308594 L 0.429688 289.308594 L 0.429688 215.40625 L 74.335938 215.40625 Z M 2.757812 286.980469 L 72.003906 286.980469 L 72.003906 217.734375 L 2.757812 217.734375 Z M 2.757812 286.980469 " fill-opacity="1" fill-rule="nonzero"/></g><path fill="#000000" d="M 145.910156 289.308594 L 72.003906 289.308594 L 72.003906 215.40625 L 145.910156 215.40625 Z M 74.335938 286.980469 L 143.582031 286.980469 L 143.582031 217.734375 L 74.335938 217.734375 Z M 74.335938 286.980469 " fill-opacity="1" fill-rule="nonzero"/><path fill="#000000" d="M 217.484375 289.308594 L 143.582031 289.308594 L 143.582031 215.40625 L 217.484375 215.40625 Z M 145.910156 286.980469 L 215.15625 286.980469 L 215.15625 217.734375 L 145.910156 217.734375 Z M 145.910156 286.980469 " fill-opacity="1" fill-rule="nonzero"/><path fill="#000000" d="M 289.058594 289.308594 L 215.15625 289.308594 L 215.15625 215.40625 L 289.058594 215.40625 Z M 217.484375 286.980469 L 286.730469 286.980469 L 286.730469 217.734375 L 217.484375 217.734375 Z M 217.484375 286.980469 " fill-opacity="1" fill-rule="nonzero"/><path fill="#000000" d="M 360.632812 289.308594 L 286.730469 289.308594 L 286.730469 215.40625 L 360.632812 215.40625 Z M 289.058594 286.980469 L 358.304688 286.980469 L 358.304688 217.734375 L 289.058594 217.734375 Z M 289.058594 286.980469 " fill-opacity="1" fill-rule="nonzero"/><path fill="#000000" d="M 432.207031 289.308594 L 358.304688 289.308594 L 358.304688 215.40625 L 432.207031 215.40625 Z M 360.632812 286.980469 L 429.878906 286.980469 L 429.878906 217.734375 L 360.632812 217.734375 Z M 360.632812 286.980469 " fill-opacity="1" fill-rule="nonzero"/><path fill="#000000" d="M 503.765625 289.308594 L 429.863281 289.308594 L 429.863281 215.40625 L 503.765625 215.40625 Z M 432.207031 286.980469 L 501.453125 286.980469 L 501.453125 217.734375 L 432.207031 217.734375 Z M 432.207031 286.980469 " fill-opacity="1" fill-rule="nonzero"/><path fill="#000000" d="M 575.339844 289.308594 L 501.4375 289.308594 L 501.4375 215.40625 L 575.339844 215.40625 Z M 503.765625 286.980469 L 573.011719 286.980469 L 573.011719 217.734375 L 503.765625 217.734375 Z M 503.765625 286.980469 " fill-opacity="1" fill-rule="nonzero"/><g clip-path="url(#41806de7d7)"><path fill="#000000" d="M 646.914062 289.308594 L 573.011719 289.308594 L 573.011719 215.40625 L 646.914062 215.40625 Z M 575.339844 286.980469 L 644.585938 286.980469 L 644.585938 217.734375 L 575.339844 217.734375 Z M 575.339844 286.980469 " fill-opacity="1" fill-rule="nonzero"/></g><g clip-path="url(#8b2d7d8b5b)"><path fill="#000000" d="M 74.335938 360.882812 L 0.429688 360.882812 L 0.429688 286.980469 L 74.335938 286.980469 Z M 2.757812 358.554688 L 72.003906 358.554688 L 72.003906 289.308594 L 2.757812 289.308594 Z M 2.757812 358.554688 " fill-opacity="1" fill-rule="nonzero"/></g><path fill="#000000" d="M 145.910156 360.882812 L 72.003906 360.882812 L 72.003906 286.980469 L 145.910156 286.980469 Z M 74.335938 358.554688 L 143.582031 358.554688 L 143.582031 289.308594 L 74.335938 289.308594 Z M 74.335938 358.554688 " fill-opacity="1" fill-rule="nonzero"/><path fill="#000000" d="M 217.484375 360.882812 L 143.582031 360.882812 L 143.582031 286.980469 L 217.484375 286.980469 Z M 145.910156 358.554688 L 215.15625 358.554688 L 215.15625 289.308594 L 145.910156 289.308594 Z M 145.910156 358.554688 " fill-opacity="1" fill-rule="nonzero"/><path fill="#000000" d="M 289.058594 360.882812 L 215.15625 360.882812 L 215.15625 286.980469 L 289.058594 286.980469 Z M 217.484375 358.554688 L 286.730469 358.554688 L 286.730469 289.308594 L 217.484375 289.308594 Z M 217.484375 358.554688 " fill-opacity="1" fill-rule="nonzero"/><path fill="#000000" d="M 360.632812 360.882812 L 286.730469 360.882812 L 286.730469 286.980469 L 360.632812 286.980469 Z M 289.058594 358.554688 L 358.304688 358.554688 L 358.304688 289.308594 L 289.058594 289.308594 Z M 289.058594 358.554688 " fill-opacity="1" fill-rule="nonzero"/><path fill="#000000" d="M 432.207031 360.882812 L 358.304688 360.882812 L 358.304688 286.980469 L 432.207031 286.980469 Z M 360.632812 358.554688 L 429.878906 358.554688 L 429.878906 289.308594 L 360.632812 289.308594 Z M 360.632812 358.554688 " fill-opacity="1" fill-rule="nonzero"/><path fill="#000000" d="M 503.765625 360.882812 L 429.863281 360.882812 L 429.863281 286.980469 L 503.765625 286.980469 Z M 432.207031 358.554688 L 501.453125 358.554688 L 501.453125 289.308594 L 432.207031 289.308594 Z M 432.207031 358.554688 " fill-opacity="1" fill-rule="nonzero"/><path fill="#000000" d="M 575.339844 360.882812 L 501.4375 360.882812 L 501.4375 286.980469 L 575.339844 286.980469 Z M 503.765625 358.554688 L 573.011719 358.554688 L 573.011719 289.308594 L 503.765625 289.308594 Z M 503.765625 358.554688 " fill-opacity="1" fill-rule="nonzero"/><g clip-path="url(#2271aeff1a)"><path fill="#000000" d="M 646.914062 360.882812 L 573.011719 360.882812 L 573.011719 286.980469 L 646.914062 286.980469 Z M 575.339844 358.554688 L 644.585938 358.554688 L 644.585938 289.308594 L 575.339844 289.308594 Z M 575.339844 358.554688 " fill-opacity="1" fill-rule="nonzero"/></g><g clip-path="url(#d4e0c333be)"><path fill="#000000" d="M 74.335938 432.441406 L 0.429688 432.441406 L 0.429688 358.539062 L 74.335938 358.539062 Z M 2.757812 430.113281 L 72.003906 430.113281 L 72.003906 360.867188 L 2.757812 360.867188 Z M 2.757812 430.113281 " fill-opacity="1" fill-rule="nonzero"/></g><path fill="#000000" d="M 145.910156 432.441406 L 72.003906 432.441406 L 72.003906 358.539062 L 145.910156 358.539062 Z M 74.335938 430.113281 L 143.582031 430.113281 L 143.582031 360.867188 L 74.335938 360.867188 Z M 74.335938 430.113281 " fill-opacity="1" fill-rule="nonzero"/><path fill="#000000" d="M 217.484375 432.441406 L 143.582031 432.441406 L 143.582031 358.539062 L 217.484375 358.539062 Z M 145.910156 430.113281 L 215.15625 430.113281 L 215.15625 360.867188 L 145.910156 360.867188 Z M 145.910156 430.113281 " fill-opacity="1" fill-rule="nonzero"/><path fill="#000000" d="M 289.058594 432.441406 L 215.15625 432.441406 L 215.15625 358.539062 L 289.058594 358.539062 Z M 217.484375 430.113281 L 286.730469 430.113281 L 286.730469 360.867188 L 217.484375 360.867188 Z M 217.484375 430.113281 " fill-opacity="1" fill-rule="nonzero"/><path fill="#000000" d="M 360.632812 432.441406 L 286.730469 432.441406 L 286.730469 358.539062 L 360.632812 358.539062 Z M 289.058594 430.113281 L 358.304688 430.113281 L 358.304688 360.867188 L 289.058594 360.867188 Z M 289.058594 430.113281 " fill-opacity="1" fill-rule="nonzero"/><path fill="#000000" d="M 432.207031 432.441406 L 358.304688 432.441406 L 358.304688 358.539062 L 432.207031 358.539062 Z M 360.632812 430.113281 L 429.878906 430.113281 L 429.878906 360.867188 L 360.632812 360.867188 Z M 360.632812 430.113281 " fill-opacity="1" fill-rule="nonzero"/><path fill="#000000" d="M 503.765625 432.441406 L 429.863281 432.441406 L 429.863281 358.539062 L 503.765625 358.539062 Z M 432.207031 430.113281 L 501.453125 430.113281 L 501.453125 360.867188 L 432.207031 360.867188 Z M 432.207031 430.113281 " fill-opacity="1" fill-rule="nonzero"/><path fill="#000000" d="M 575.339844 432.441406 L 501.4375 432.441406 L 501.4375 358.539062 L 575.339844 358.539062 Z M 503.765625 430.113281 L 573.011719 430.113281 L 573.011719 360.867188 L 503.765625 360.867188 Z M 503.765625 430.113281 " fill-opacity="1" fill-rule="nonzero"/><g clip-path="url(#2962c9dcc7)"><path fill="#000000" d="M 646.914062 432.441406 L 573.011719 432.441406 L 573.011719 358.539062 L 646.914062 358.539062 Z M 575.339844 430.113281 L 644.585938 430.113281 L 644.585938 360.867188 L 575.339844 360.867188 Z M 575.339844 430.113281 " fill-opacity="1" fill-rule="nonzero"/></g><g clip-path="url(#a9732ff031)"><path fill="#000000" d="M 74.335938 504.019531 L 0.429688 504.019531 L 0.429688 430.113281 L 74.335938 430.113281 Z M 2.757812 501.6875 L 72.003906 501.6875 L 72.003906 432.441406 L 2.757812 432.441406 Z M 2.757812 501.6875 " fill-opacity="1" fill-rule="nonzero"/></g><path fill="#000000" d="M 145.910156 504.019531 L 72.003906 504.019531 L 72.003906 430.113281 L 145.910156 430.113281 Z M 74.335938 501.6875 L 143.582031 501.6875 L 143.582031 432.441406 L 74.335938 432.441406 Z M 74.335938 501.6875 " fill-opacity="1" fill-rule="nonzero"/><path fill="#000000" d="M 217.484375 504.019531 L 143.582031 504.019531 L 143.582031 430.113281 L 217.484375 430.113281 Z M 145.910156 501.6875 L 215.15625 501.6875 L 215.15625 432.441406 L 145.910156 432.441406 Z M 145.910156 501.6875 " fill-opacity="1" fill-rule="nonzero"/><path fill="#000000" d="M 289.058594 504.019531 L 215.15625 504.019531 L 215.15625 430.113281 L 289.058594 430.113281 Z M 217.484375 501.6875 L 286.730469 501.6875 L 286.730469 432.441406 L 217.484375 432.441406 Z M 217.484375 501.6875 " fill-opacity="1" fill-rule="nonzero"/><path fill="#000000" d="M 360.632812 504.019531 L 286.730469 504.019531 L 286.730469 430.113281 L 360.632812 430.113281 Z M 289.058594 501.6875 L 358.304688 501.6875 L 358.304688 432.441406 L 289.058594 432.441406 Z M 289.058594 501.6875 " fill-opacity="1" fill-rule="nonzero"/><path fill="#000000" d="M 432.207031 504.019531 L 358.304688 504.019531 L 358.304688 430.113281 L 432.207031 430.113281 Z M 360.632812 501.6875 L 429.878906 501.6875 L 429.878906 432.441406 L 360.632812 432.441406 Z M 360.632812 501.6875 " fill-opacity="1" fill-rule="nonzero"/><path fill="#000000" d="M 503.765625 504.019531 L 429.863281 504.019531 L 429.863281 430.113281 L 503.765625 430.113281 Z M 432.207031 501.6875 L 501.453125 501.6875 L 501.453125 432.441406 L 432.207031 432.441406 Z M 432.207031 501.6875 " fill-opacity="1" fill-rule="nonzero"/><path fill="#000000" d="M 575.339844 504.019531 L 501.4375 504.019531 L 501.4375 430.113281 L 575.339844 430.113281 Z M 503.765625 501.6875 L 573.011719 501.6875 L 573.011719 432.441406 L 503.765625 432.441406 Z M 503.765625 501.6875 " fill-opacity="1" fill-rule="nonzero"/><g clip-path="url(#7901888014)"><path fill="#000000" d="M 646.914062 504.019531 L 573.011719 504.019531 L 573.011719 430.113281 L 646.914062 430.113281 Z M 575.339844 501.6875 L 644.585938 501.6875 L 644.585938 432.441406 L 575.339844 432.441406 Z M 575.339844 501.6875 " fill-opacity="1" fill-rule="nonzero"/></g><g clip-path="url(#b2f20b42e5)"><path fill="#000000" d="M 74.335938 575.59375 L 0.429688 575.59375 L 0.429688 501.6875 L 74.335938 501.6875 Z M 2.757812 573.265625 L 72.003906 573.265625 L 72.003906 504.019531 L 2.757812 504.019531 Z M 2.757812 573.265625 " fill-opacity="1" fill-rule="nonzero"/></g><path fill="#000000" d="M 145.910156 575.59375 L 72.003906 575.59375 L 72.003906 501.6875 L 145.910156 501.6875 Z M 74.335938 573.265625 L 143.582031 573.265625 L 143.582031 504.019531 L 74.335938 504.019531 Z M 74.335938 573.265625 " fill-opacity="1" fill-rule="nonzero"/><path fill="#000000" d="M 217.484375 575.59375 L 143.582031 575.59375 L 143.582031 501.6875 L 217.484375 501.6875 Z M 145.910156 573.265625 L 215.15625 573.265625 L 215.15625 504.019531 L 145.910156 504.019531 Z M 145.910156 573.265625 " fill-opacity="1" fill-rule="nonzero"/><path fill="#000000" d="M 289.058594 575.59375 L 215.15625 575.59375 L 215.15625 501.6875 L 289.058594 501.6875 Z M 217.484375 573.265625 L 286.730469 573.265625 L 286.730469 504.019531 L 217.484375 504.019531 Z M 217.484375 573.265625 " fill-opacity="1" fill-rule="nonzero"/><path fill="#000000" d="M 360.632812 575.59375 L 286.730469 575.59375 L 286.730469 501.6875 L 360.632812 501.6875 Z M 289.058594 573.265625 L 358.304688 573.265625 L 358.304688 504.019531 L 289.058594 504.019531 Z M 289.058594 573.265625 " fill-opacity="1" fill-rule="nonzero"/><path fill="#000000" d="M 432.207031 575.59375 L 358.304688 575.59375 L 358.304688 501.6875 L 432.207031 501.6875 Z M 360.632812 573.265625 L 429.878906 573.265625 L 429.878906 504.019531 L 360.632812 504.019531 Z M 360.632812 573.265625 " fill-opacity="1" fill-rule="nonzero"/><path fill="#000000" d="M 503.765625 575.59375 L 429.863281 575.59375 L 429.863281 501.6875 L 503.765625 501.6875 Z M 432.207031 573.265625 L 501.453125 573.265625 L 501.453125 504.019531 L 432.207031 504.019531 Z M 432.207031 573.265625 " fill-opacity="1" fill-rule="nonzero"/><path fill="#000000" d="M 575.339844 575.59375 L 501.4375 575.59375 L 501.4375 501.6875 L 575.339844 501.6875 Z M 503.765625 573.265625 L 573.011719 573.265625 L 573.011719 504.019531 L 503.765625 504.019531 Z M 503.765625 573.265625 " fill-opacity="1" fill-rule="nonzero"/><g clip-path="url(#df1d16bde1)"><path fill="#000000" d="M 646.914062 575.59375 L 573.011719 575.59375 L 573.011719 501.6875 L 646.914062 501.6875 Z M 575.339844 573.265625 L 644.585938 573.265625 L 644.585938 504.019531 L 575.339844 504.019531 Z M 575.339844 573.265625 " fill-opacity="1" fill-rule="nonzero"/></g><g clip-path="url(#1d1613d021)"><path fill="#000000" d="M 74.335938 647.167969 L 0.429688 647.167969 L 0.429688 573.265625 L 74.335938 573.265625 Z M 2.757812 644.839844 L 72.003906 644.839844 L 72.003906 575.59375 L 2.757812 575.59375 Z M 2.757812 644.839844 " fill-opacity="1" fill-rule="nonzero"/></g><g clip-path="url(#15c0c3a3b5)"><path fill="#000000" d="M 145.910156 647.167969 L 72.003906 647.167969 L 72.003906 573.265625 L 145.910156 573.265625 Z M 74.335938 644.839844 L 143.582031 644.839844 L 143.582031 575.59375 L 74.335938 575.59375 Z M 74.335938 644.839844 " fill-opacity="1" fill-rule="nonzero"/></g><g clip-path="url(#95a3deda65)"><path fill="#000000" d="M 217.484375 647.167969 L 143.582031 647.167969 L 143.582031 573.265625 L 217.484375 573.265625 Z M 145.910156 644.839844 L 215.15625 644.839844 L 215.15625 575.59375 L 145.910156 575.59375 Z M 145.910156 644.839844 " fill-opacity="1" fill-rule="nonzero"/></g><g clip-path="url(#11ea0e9735)"><path fill="#000000" d="M 289.058594 647.167969 L 215.15625 647.167969 L 215.15625 573.265625 L 289.058594 573.265625 Z M 217.484375 644.839844 L 286.730469 644.839844 L 286.730469 575.59375 L 217.484375 575.59375 Z M 217.484375 644.839844 " fill-opacity="1" fill-rule="nonzero"/></g><g clip-path="url(#d302c3a2ea)"><path fill="#000000" d="M 360.632812 647.167969 L 286.730469 647.167969 L 286.730469 573.265625 L 360.632812 573.265625 Z M 289.058594 644.839844 L 358.304688 644.839844 L 358.304688 575.59375 L 289.058594 575.59375 Z M 289.058594 644.839844 " fill-opacity="1" fill-rule="nonzero"/></g><g clip-path="url(#46114d6dd1)"><path fill="#000000" d="M 432.207031 647.167969 L 358.304688 647.167969 L 358.304688 573.265625 L 432.207031 573.265625 Z M 360.632812 644.839844 L 429.878906 644.839844 L 429.878906 575.59375 L 360.632812 575.59375 Z M 360.632812 644.839844 " fill-opacity="1" fill-rule="nonzero"/></g><g clip-path="url(#f3c071f478)"><path fill="#000000" d="M 503.765625 647.167969 L 429.863281 647.167969 L 429.863281 573.265625 L 503.765625 573.265625 Z M 432.207031 644.839844 L 501.453125 644.839844 L 501.453125 575.59375 L 432.207031 575.59375 Z M 432.207031 644.839844 " fill-opacity="1" fill-rule="nonzero"/></g><g clip-path="url(#04e4114963)"><path fill="#000000" d="M 575.339844 647.167969 L 501.4375 647.167969 L 501.4375 573.265625 L 575.339844 573.265625 Z M 503.765625 644.839844 L 573.011719 644.839844 L 573.011719 575.59375 L 503.765625 575.59375 Z M 503.765625 644.839844 " fill-opacity="1" fill-rule="nonzero"/></g><g clip-path="url(#3a6c6629a3)"><path fill="#000000" d="M 646.914062 647.167969 L 573.011719 647.167969 L 573.011719 573.265625 L 646.914062 573.265625 Z M 575.339844 644.839844 L 644.585938 644.839844 L 644.585938 575.59375 L 575.339844 575.59375 Z M 575.339844 644.839844 " fill-opacity="1" fill-rule="nonzero"/></g></g></g></g></svg>