<svg xmlns="http://www.w3.org/2000/svg" xmlns:xlink="http://www.w3.org/1999/xlink" width="1080" zoomAndPan="magnify" viewBox="0 0 810 809.999993" height="1080" preserveAspectRatio="xMidYMid meet" version="1.0"><defs><filter x="0%" y="0%" width="100%" height="100%" id="78026993cc"><feColorMatrix values="0 0 0 0 1 0 0 0 0 1 0 0 0 0 1 0 0 0 1 0" color-interpolation-filters="sRGB"/></filter><mask id="129b963448"><g filter="url(#78026993cc)"><rect x="-81" width="972" fill="#000000" y="-80.999999" height="971.999992" fill-opacity="0.12"/></g></mask><clipPath id="2981a1288f"><path d="M 0.460938 0.460938 L 75 0.460938 L 75 75 L 0.460938 75 Z M 0.460938 0.460938 " clip-rule="nonzero"/></clipPath><clipPath id="6d1a41bfcd"><path d="M 72 0.460938 L 146 0.460938 L 146 75 L 72 75 Z M 72 0.460938 " clip-rule="nonzero"/></clipPath><clipPath id="3447b65393"><path d="M 143 0.460938 L 218 0.460938 L 218 75 L 143 75 Z M 143 0.460938 " clip-rule="nonzero"/></clipPath><clipPath id="e4766ac3d3"><path d="M 215 0.460938 L 290 0.460938 L 290 75 L 215 75 Z M 215 0.460938 " clip-rule="nonzero"/></clipPath><clipPath id="b80f4c13ab"><path d="M 286 0.460938 L 361 0.460938 L 361 75 L 286 75 Z M 286 0.460938 " clip-rule="nonzero"/></clipPath><clipPath id="d84320b523"><path d="M 358 0.460938 L 433 0.460938 L 433 75 L 358 75 Z M 358 0.460938 " clip-rule="nonzero"/></clipPath><clipPath id="47bf935c12"><path d="M 429 0.460938 L 504 0.460938 L 504 75 L 429 75 Z M 429 0.460938 " clip-rule="nonzero"/></clipPath><clipPath id="06e3663f6a"><path d="M 501 0.460938 L 576 0.460938 L 576 75 L 501 75 Z M 501 0.460938 " clip-rule="nonzero"/></clipPath><clipPath id="7ba137aec8"><path d="M 573 0.460938 L 646.960938 0.460938 L 646.960938 75 L 573 75 Z M 573 0.460938 " clip-rule="nonzero"/></clipPath><clipPath id="48c82ad56a"><path d="M 0.460938 72 L 75 72 L 75 146 L 0.460938 146 Z M 0.460938 72 " clip-rule="nonzero"/></clipPath><clipPath id="5c36efbb58"><path d="M 573 72 L 646.960938 72 L 646.960938 146 L 573 146 Z M 573 72 " clip-rule="nonzero"/></clipPath><clipPath id="2a8be19d1c"><path d="M 0.460938 143 L 75 143 L 75 218 L 0.460938 218 Z M 0.460938 143 " clip-rule="nonzero"/></clipPath><clipPath id="dff704313e"><path d="M 573 143 L 646.960938 143 L 646.960938 218 L 573 218 Z M 573 143 " clip-rule="nonzero"/></clipPath><clipPath id="36ef45b98e"><path d="M 0.460938 215 L 75 215 L 75 290 L 0.460938 290 Z M 0.460938 215 " clip-rule="nonzero"/></clipPath><clipPath id="93e0cab3f9"><path d="M 573 215 L 646.960938 215 L 646.960938 290 L 573 290 Z M 573 215 " clip-rule="nonzero"/></clipPath><clipPath id="577eebe3a5"><path d="M 0.460938 286 L 75 286 L 75 361 L 0.460938 361 Z M 0.460938 286 " clip-rule="nonzero"/></clipPath><clipPath id="f80ae54527"><path d="M 573 286 L 646.960938 286 L 646.960938 361 L 573 361 Z M 573 286 " clip-rule="nonzero"/></clipPath><clipPath id="a393dc0c40"><path d="M 0.460938 358 L 75 358 L 75 433 L 0.460938 433 Z M 0.460938 358 " clip-rule="nonzero"/></clipPath><clipPath id="58480547c6"><path d="M 573 358 L 646.960938 358 L 646.960938 433 L 573 433 Z M 573 358 " clip-rule="nonzero"/></clipPath><clipPath id="2d18ed6b8b"><path d="M 0.460938 429 L 75 429 L 75 504 L 0.460938 504 Z M 0.460938 429 " clip-rule="nonzero"/></clipPath><clipPath id="f606415fed"><path d="M 573 429 L 646.960938 429 L 646.960938 504 L 573 504 Z M 573 429 " clip-rule="nonzero"/></clipPath><clipPath id="62584160a0"><path d="M 0.460938 501 L 75 501 L 75 576 L 0.460938 576 Z M 0.460938 501 " clip-rule="nonzero"/></clipPath><clipPath id="38bf4fb098"><path d="M 573 501 L 646.960938 501 L 646.960938 576 L 573 576 Z M 573 501 " clip-rule="nonzero"/></clipPath><clipPath id="4c068c3856"><path d="M 0.460938 573 L 75 573 L 75 646.960938 L 0.460938 646.960938 Z M 0.460938 573 " clip-rule="nonzero"/></clipPath><clipPath id="4192b11050"><path d="M 72 573 L 146 573 L 146 646.960938 L 72 646.960938 Z M 72 573 " clip-rule="nonzero"/></clipPath><clipPath id="e071b86d73"><path d="M 143 573 L 218 573 L 218 646.960938 L 143 646.960938 Z M 143 573 " clip-rule="nonzero"/></clipPath><clipPath id="79171a32a2"><path d="M 215 573 L 290 573 L 290 646.960938 L 215 646.960938 Z M 215 573 " clip-rule="nonzero"/></clipPath><clipPath id="52905f73a4"><path d="M 286 573 L 361 573 L 361 646.960938 L 286 646.960938 Z M 286 573 " clip-rule="nonzero"/></clipPath><clipPath id="88266c1593"><path d="M 358 573 L 433 573 L 433 646.960938 L 358 646.960938 Z M 358 573 " clip-rule="nonzero"/></clipPath><clipPath id="67bd9ff3cb"><path d="M 429 573 L 504 573 L 504 646.960938 L 429 646.960938 Z M 429 573 " clip-rule="nonzero"/></clipPath><clipPath id="c42b16cade"><path d="M 501 573 L 576 573 L 576 646.960938 L 501 646.960938 Z M 501 573 " clip-rule="nonzero"/></clipPath><clipPath id="2c27fc2e70"><path d="M 573 573 L 646.960938 573 L 646.960938 646.960938 L 573 646.960938 Z M 573 573 " clip-rule="nonzero"/></clipPath><clipPath id="b4e2e83271"><rect x="0" width="648" y="0" height="648"/></clipPath></defs><rect x="-81" width="972" fill="#ffffff" y="-80.999999" height="971.999992" fill-opacity="1"/><rect x="-81" width="972" fill="#ffffff" y="-80.999999" height="971.999992" fill-opacity="1"/><g mask="url(#129b963448)"><g transform="matrix(1, 0, 0, 1, 82, 82)"><g clip-path="url(#b4e2e83271)"><g clip-path="url(#2981a1288f)"><path fill="#000000" d="M 74.335938 74.425781 L 0.429688 74.425781 L 0.429688 0.523438 L 74.335938 0.523438 Z M 2.757812 72.097656 L 72.003906 72.097656 L 72.003906 2.851562 L 2.757812 2.851562 Z M 2.757812 72.097656 " fill-opacity="1" fill-rule="nonzero"/></g><g clip-path="url(#6d1a41bfcd)"><path fill="#000000" d="M 145.910156 74.425781 L 72.003906 74.425781 L 72.003906 0.523438 L 145.910156 0.523438 Z M 74.335938 72.097656 L 143.582031 72.097656 L 143.582031 2.851562 L 74.335938 2.851562 Z M 74.335938 72.097656 " fill-opacity="1" fill-rule="nonzero"/></g><g clip-path="url(#3447b65393)"><path fill="#000000" d="M 217.484375 74.425781 L 143.582031 74.425781 L 143.582031 0.523438 L 217.484375 0.523438 Z M 145.910156 72.097656 L 215.15625 72.097656 L 215.15625 2.851562 L 145.910156 2.851562 Z M 145.910156 72.097656 " fill-opacity="1" fill-rule="nonzero"/></g><g clip-path="url(#e4766ac3d3)"><path fill="#000000" d="M 289.058594 74.425781 L 215.15625 74.425781 L 215.15625 0.523438 L 289.058594 0.523438 Z M 217.484375 72.097656 L 286.730469 72.097656 L 286.730469 2.851562 L 217.484375 2.851562 Z M 217.484375 72.097656 " fill-opacity="1" fill-rule="nonzero"/></g><g clip-path="url(#b80f4c13ab)"><path fill="#000000" d="M 360.632812 74.425781 L 286.730469 74.425781 L 286.730469 0.523438 L 360.632812 0.523438 Z M 289.058594 72.097656 L 358.304688 72.097656 L 358.304688 2.851562 L 289.058594 2.851562 Z M 289.058594 72.097656 " fill-opacity="1" fill-rule="nonzero"/></g><g clip-path="url(#d84320b523)"><path fill="#000000" d="M 432.207031 74.425781 L 358.304688 74.425781 L 358.304688 0.523438 L 432.207031 0.523438 Z M 360.632812 72.097656 L 429.878906 72.097656 L 429.878906 2.851562 L 360.632812 2.851562 Z M 360.632812 72.097656 " fill-opacity="1" fill-rule="nonzero"/></g><g clip-path="url(#47bf935c12)"><path fill="#000000" d="M 503.765625 74.425781 L 429.863281 74.425781 L 429.863281 0.523438 L 503.765625 0.523438 Z M 432.207031 72.097656 L 501.453125 72.097656 L 501.453125 2.851562 L 432.207031 2.851562 Z M 432.207031 72.097656 " fill-opacity="1" fill-rule="nonzero"/></g><g clip-path="url(#06e3663f6a)"><path fill="#000000" d="M 575.339844 74.425781 L 501.4375 74.425781 L 501.4375 0.523438 L 575.339844 0.523438 Z M 503.765625 72.097656 L 573.011719 72.097656 L 573.011719 2.851562 L 503.765625 2.851562 Z M 503.765625 72.097656 " fill-opacity="1" fill-rule="nonzero"/></g><g clip-path="url(#7ba137aec8)"><path fill="#000000" d="M 646.914062 74.425781 L 573.011719 74.425781 L 573.011719 0.523438 L 646.914062 0.523438 Z M 575.339844 72.097656 L 644.585938 72.097656 L 644.585938 2.851562 L 575.339844 2.851562 Z M 575.339844 72.097656 " fill-opacity="1" fill-rule="nonzero"/></g><g clip-path="url(#48c82ad56a)"><path fill="#000000" d="M 74.335938 146 L 0.429688 146 L 0.429688 72.097656 L 74.335938 72.097656 Z M 2.757812 143.671875 L 72.003906 143.671875 L 72.003906 74.425781 L 2.757812 74.425781 Z M 2.757812 143.671875 " fill-opacity="1" fill-rule="nonzero"/></g><path fill="#000000" d="M 145.910156 146 L 72.003906 146 L 72.003906 72.097656 L 145.910156 72.097656 Z M 74.335938 143.671875 L 143.582031 143.671875 L 143.582031 74.425781 L 74.335938 74.425781 Z M 74.335938 143.671875 " fill-opacity="1" fill-rule="nonzero"/><path fill="#000000" d="M 217.484375 146 L 143.582031 146 L 143.582031 72.097656 L 217.484375 72.097656 Z M 145.910156 143.671875 L 215.15625 143.671875 L 215.15625 74.425781 L 145.910156 74.425781 Z M 145.910156 143.671875 " fill-opacity="1" fill-rule="nonzero"/><path fill="#000000" d="M 289.058594 146 L 215.15625 146 L 215.15625 72.097656 L 289.058594 72.097656 Z M 217.484375 143.671875 L 286.730469 143.671875 L 286.730469 74.425781 L 217.484375 74.425781 Z M 217.484375 143.671875 " fill-opacity="1" fill-rule="nonzero"/><path fill="#000000" d="M 360.632812 146 L 286.730469 146 L 286.730469 72.097656 L 360.632812 72.097656 Z M 289.058594 143.671875 L 358.304688 143.671875 L 358.304688 74.425781 L 289.058594 74.425781 Z M 289.058594 143.671875 " fill-opacity="1" fill-rule="nonzero"/><path fill="#000000" d="M 432.207031 146 L 358.304688 146 L 358.304688 72.097656 L 432.207031 72.097656 Z M 360.632812 143.671875 L 429.878906 143.671875 L 429.878906 74.425781 L 360.632812 74.425781 Z M 360.632812 143.671875 " fill-opacity="1" fill-rule="nonzero"/><path fill="#000000" d="M 503.765625 146 L 429.863281 146 L 429.863281 72.097656 L 503.765625 72.097656 Z M 432.207031 143.671875 L 501.453125 143.671875 L 501.453125 74.425781 L 432.207031 74.425781 Z M 432.207031 143.671875 " fill-opacity="1" fill-rule="nonzero"/><path fill="#000000" d="M 575.339844 146 L 501.4375 146 L 501.4375 72.097656 L 575.339844 72.097656 Z M 503.765625 143.671875 L 573.011719 143.671875 L 573.011719 74.425781 L 503.765625 74.425781 Z M 503.765625 143.671875 " fill-opacity="1" fill-rule="nonzero"/><g clip-path="url(#5c36efbb58)"><path fill="#000000" d="M 646.914062 146 L 573.011719 146 L 573.011719 72.097656 L 646.914062 72.097656 Z M 575.339844 143.671875 L 644.585938 143.671875 L 644.585938 74.425781 L 575.339844 74.425781 Z M 575.339844 143.671875 " fill-opacity="1" fill-rule="nonzero"/></g><g clip-path="url(#2a8be19d1c)"><path fill="#000000" d="M 74.335938 217.574219 L 0.429688 217.574219 L 0.429688 143.671875 L 74.335938 143.671875 Z M 2.757812 215.246094 L 72.003906 215.246094 L 72.003906 146 L 2.757812 146 Z M 2.757812 215.246094 " fill-opacity="1" fill-rule="nonzero"/></g><path fill="#000000" d="M 145.910156 217.574219 L 72.003906 217.574219 L 72.003906 143.671875 L 145.910156 143.671875 Z M 74.335938 215.246094 L 143.582031 215.246094 L 143.582031 146 L 74.335938 146 Z M 74.335938 215.246094 " fill-opacity="1" fill-rule="nonzero"/><path fill="#000000" d="M 217.484375 217.574219 L 143.582031 217.574219 L 143.582031 143.671875 L 217.484375 143.671875 Z M 145.910156 215.246094 L 215.15625 215.246094 L 215.15625 146 L 145.910156 146 Z M 145.910156 215.246094 " fill-opacity="1" fill-rule="nonzero"/><path fill="#000000" d="M 289.058594 217.574219 L 215.15625 217.574219 L 215.15625 143.671875 L 289.058594 143.671875 Z M 217.484375 215.246094 L 286.730469 215.246094 L 286.730469 146 L 217.484375 146 Z M 217.484375 215.246094 " fill-opacity="1" fill-rule="nonzero"/><path fill="#000000" d="M 360.632812 217.574219 L 286.730469 217.574219 L 286.730469 143.671875 L 360.632812 143.671875 Z M 289.058594 215.246094 L 358.304688 215.246094 L 358.304688 146 L 289.058594 146 Z M 289.058594 215.246094 " fill-opacity="1" fill-rule="nonzero"/><path fill="#000000" d="M 432.207031 217.574219 L 358.304688 217.574219 L 358.304688 143.671875 L 432.207031 143.671875 Z M 360.632812 215.246094 L 429.878906 215.246094 L 429.878906 146 L 360.632812 146 Z M 360.632812 215.246094 " fill-opacity="1" fill-rule="nonzero"/><path fill="#000000" d="M 503.765625 217.574219 L 429.863281 217.574219 L 429.863281 143.671875 L 503.765625 143.671875 Z M 432.207031 215.246094 L 501.453125 215.246094 L 501.453125 146 L 432.207031 146 Z M 432.207031 215.246094 " fill-opacity="1" fill-rule="nonzero"/><path fill="#000000" d="M 575.339844 217.574219 L 501.4375 217.574219 L 501.4375 143.671875 L 575.339844 143.671875 Z M 503.765625 215.246094 L 573.011719 215.246094 L 573.011719 146 L 503.765625 146 Z M 503.765625 215.246094 " fill-opacity="1" fill-rule="nonzero"/><g clip-path="url(#dff704313e)"><path fill="#000000" d="M 646.914062 217.574219 L 573.011719 217.574219 L 573.011719 143.671875 L 646.914062 143.671875 Z M 575.339844 215.246094 L 644.585938 215.246094 L 644.585938 146 L 575.339844 146 Z M 575.339844 215.246094 " fill-opacity="1" fill-rule="nonzero"/></g><g clip-path="url(#36ef45b98e)"><path fill="#000000" d="M 74.335938 289.148438 L 0.429688 289.148438 L 0.429688 215.246094 L 74.335938 215.246094 Z M 2.757812 286.820312 L 72.003906 286.820312 L 72.003906 217.574219 L 2.757812 217.574219 Z M 2.757812 286.820312 " fill-opacity="1" fill-rule="nonzero"/></g><path fill="#000000" d="M 145.910156 289.148438 L 72.003906 289.148438 L 72.003906 215.246094 L 145.910156 215.246094 Z M 74.335938 286.820312 L 143.582031 286.820312 L 143.582031 217.574219 L 74.335938 217.574219 Z M 74.335938 286.820312 " fill-opacity="1" fill-rule="nonzero"/><path fill="#000000" d="M 217.484375 289.148438 L 143.582031 289.148438 L 143.582031 215.246094 L 217.484375 215.246094 Z M 145.910156 286.820312 L 215.15625 286.820312 L 215.15625 217.574219 L 145.910156 217.574219 Z M 145.910156 286.820312 " fill-opacity="1" fill-rule="nonzero"/><path fill="#000000" d="M 289.058594 289.148438 L 215.15625 289.148438 L 215.15625 215.246094 L 289.058594 215.246094 Z M 217.484375 286.820312 L 286.730469 286.820312 L 286.730469 217.574219 L 217.484375 217.574219 Z M 217.484375 286.820312 " fill-opacity="1" fill-rule="nonzero"/><path fill="#000000" d="M 360.632812 289.148438 L 286.730469 289.148438 L 286.730469 215.246094 L 360.632812 215.246094 Z M 289.058594 286.820312 L 358.304688 286.820312 L 358.304688 217.574219 L 289.058594 217.574219 Z M 289.058594 286.820312 " fill-opacity="1" fill-rule="nonzero"/><path fill="#000000" d="M 432.207031 289.148438 L 358.304688 289.148438 L 358.304688 215.246094 L 432.207031 215.246094 Z M 360.632812 286.820312 L 429.878906 286.820312 L 429.878906 217.574219 L 360.632812 217.574219 Z M 360.632812 286.820312 " fill-opacity="1" fill-rule="nonzero"/><path fill="#000000" d="M 503.765625 289.148438 L 429.863281 289.148438 L 429.863281 215.246094 L 503.765625 215.246094 Z M 432.207031 286.820312 L 501.453125 286.820312 L 501.453125 217.574219 L 432.207031 217.574219 Z M 432.207031 286.820312 " fill-opacity="1" fill-rule="nonzero"/><path fill="#000000" d="M 575.339844 289.148438 L 501.4375 289.148438 L 501.4375 215.246094 L 575.339844 215.246094 Z M 503.765625 286.820312 L 573.011719 286.820312 L 573.011719 217.574219 L 503.765625 217.574219 Z M 503.765625 286.820312 " fill-opacity="1" fill-rule="nonzero"/><g clip-path="url(#93e0cab3f9)"><path fill="#000000" d="M 646.914062 289.148438 L 573.011719 289.148438 L 573.011719 215.246094 L 646.914062 215.246094 Z M 575.339844 286.820312 L 644.585938 286.820312 L 644.585938 217.574219 L 575.339844 217.574219 Z M 575.339844 286.820312 " fill-opacity="1" fill-rule="nonzero"/></g><g clip-path="url(#577eebe3a5)"><path fill="#000000" d="M 74.335938 360.722656 L 0.429688 360.722656 L 0.429688 286.820312 L 74.335938 286.820312 Z M 2.757812 358.394531 L 72.003906 358.394531 L 72.003906 289.148438 L 2.757812 289.148438 Z M 2.757812 358.394531 " fill-opacity="1" fill-rule="nonzero"/></g><path fill="#000000" d="M 145.910156 360.722656 L 72.003906 360.722656 L 72.003906 286.820312 L 145.910156 286.820312 Z M 74.335938 358.394531 L 143.582031 358.394531 L 143.582031 289.148438 L 74.335938 289.148438 Z M 74.335938 358.394531 " fill-opacity="1" fill-rule="nonzero"/><path fill="#000000" d="M 217.484375 360.722656 L 143.582031 360.722656 L 143.582031 286.820312 L 217.484375 286.820312 Z M 145.910156 358.394531 L 215.15625 358.394531 L 215.15625 289.148438 L 145.910156 289.148438 Z M 145.910156 358.394531 " fill-opacity="1" fill-rule="nonzero"/><path fill="#000000" d="M 289.058594 360.722656 L 215.15625 360.722656 L 215.15625 286.820312 L 289.058594 286.820312 Z M 217.484375 358.394531 L 286.730469 358.394531 L 286.730469 289.148438 L 217.484375 289.148438 Z M 217.484375 358.394531 " fill-opacity="1" fill-rule="nonzero"/><path fill="#000000" d="M 360.632812 360.722656 L 286.730469 360.722656 L 286.730469 286.820312 L 360.632812 286.820312 Z M 289.058594 358.394531 L 358.304688 358.394531 L 358.304688 289.148438 L 289.058594 289.148438 Z M 289.058594 358.394531 " fill-opacity="1" fill-rule="nonzero"/><path fill="#000000" d="M 432.207031 360.722656 L 358.304688 360.722656 L 358.304688 286.820312 L 432.207031 286.820312 Z M 360.632812 358.394531 L 429.878906 358.394531 L 429.878906 289.148438 L 360.632812 289.148438 Z M 360.632812 358.394531 " fill-opacity="1" fill-rule="nonzero"/><path fill="#000000" d="M 503.765625 360.722656 L 429.863281 360.722656 L 429.863281 286.820312 L 503.765625 286.820312 Z M 432.207031 358.394531 L 501.453125 358.394531 L 501.453125 289.148438 L 432.207031 289.148438 Z M 432.207031 358.394531 " fill-opacity="1" fill-rule="nonzero"/><path fill="#000000" d="M 575.339844 360.722656 L 501.4375 360.722656 L 501.4375 286.820312 L 575.339844 286.820312 Z M 503.765625 358.394531 L 573.011719 358.394531 L 573.011719 289.148438 L 503.765625 289.148438 Z M 503.765625 358.394531 " fill-opacity="1" fill-rule="nonzero"/><g clip-path="url(#f80ae54527)"><path fill="#000000" d="M 646.914062 360.722656 L 573.011719 360.722656 L 573.011719 286.820312 L 646.914062 286.820312 Z M 575.339844 358.394531 L 644.585938 358.394531 L 644.585938 289.148438 L 575.339844 289.148438 Z M 575.339844 358.394531 " fill-opacity="1" fill-rule="nonzero"/></g><g clip-path="url(#a393dc0c40)"><path fill="#000000" d="M 74.335938 432.285156 L 0.429688 432.285156 L 0.429688 358.378906 L 74.335938 358.378906 Z M 2.757812 429.953125 L 72.003906 429.953125 L 72.003906 360.707031 L 2.757812 360.707031 Z M 2.757812 429.953125 " fill-opacity="1" fill-rule="nonzero"/></g><path fill="#000000" d="M 145.910156 432.285156 L 72.003906 432.285156 L 72.003906 358.378906 L 145.910156 358.378906 Z M 74.335938 429.953125 L 143.582031 429.953125 L 143.582031 360.707031 L 74.335938 360.707031 Z M 74.335938 429.953125 " fill-opacity="1" fill-rule="nonzero"/><path fill="#000000" d="M 217.484375 432.285156 L 143.582031 432.285156 L 143.582031 358.378906 L 217.484375 358.378906 Z M 145.910156 429.953125 L 215.15625 429.953125 L 215.15625 360.707031 L 145.910156 360.707031 Z M 145.910156 429.953125 " fill-opacity="1" fill-rule="nonzero"/><path fill="#000000" d="M 289.058594 432.285156 L 215.15625 432.285156 L 215.15625 358.378906 L 289.058594 358.378906 Z M 217.484375 429.953125 L 286.730469 429.953125 L 286.730469 360.707031 L 217.484375 360.707031 Z M 217.484375 429.953125 " fill-opacity="1" fill-rule="nonzero"/><path fill="#000000" d="M 360.632812 432.285156 L 286.730469 432.285156 L 286.730469 358.378906 L 360.632812 358.378906 Z M 289.058594 429.953125 L 358.304688 429.953125 L 358.304688 360.707031 L 289.058594 360.707031 Z M 289.058594 429.953125 " fill-opacity="1" fill-rule="nonzero"/><path fill="#000000" d="M 432.207031 432.285156 L 358.304688 432.285156 L 358.304688 358.378906 L 432.207031 358.378906 Z M 360.632812 429.953125 L 429.878906 429.953125 L 429.878906 360.707031 L 360.632812 360.707031 Z M 360.632812 429.953125 " fill-opacity="1" fill-rule="nonzero"/><path fill="#000000" d="M 503.765625 432.285156 L 429.863281 432.285156 L 429.863281 358.378906 L 503.765625 358.378906 Z M 432.207031 429.953125 L 501.453125 429.953125 L 501.453125 360.707031 L 432.207031 360.707031 Z M 432.207031 429.953125 " fill-opacity="1" fill-rule="nonzero"/><path fill="#000000" d="M 575.339844 432.285156 L 501.4375 432.285156 L 501.4375 358.378906 L 575.339844 358.378906 Z M 503.765625 429.953125 L 573.011719 429.953125 L 573.011719 360.707031 L 503.765625 360.707031 Z M 503.765625 429.953125 " fill-opacity="1" fill-rule="nonzero"/><g clip-path="url(#58480547c6)"><path fill="#000000" d="M 646.914062 432.285156 L 573.011719 432.285156 L 573.011719 358.378906 L 646.914062 358.378906 Z M 575.339844 429.953125 L 644.585938 429.953125 L 644.585938 360.707031 L 575.339844 360.707031 Z M 575.339844 429.953125 " fill-opacity="1" fill-rule="nonzero"/></g><g clip-path="url(#2d18ed6b8b)"><path fill="#000000" d="M 74.335938 503.859375 L 0.429688 503.859375 L 0.429688 429.953125 L 74.335938 429.953125 Z M 2.757812 501.53125 L 72.003906 501.53125 L 72.003906 432.285156 L 2.757812 432.285156 Z M 2.757812 501.53125 " fill-opacity="1" fill-rule="nonzero"/></g><path fill="#000000" d="M 145.910156 503.859375 L 72.003906 503.859375 L 72.003906 429.953125 L 145.910156 429.953125 Z M 74.335938 501.53125 L 143.582031 501.53125 L 143.582031 432.285156 L 74.335938 432.285156 Z M 74.335938 501.53125 " fill-opacity="1" fill-rule="nonzero"/><path fill="#000000" d="M 217.484375 503.859375 L 143.582031 503.859375 L 143.582031 429.953125 L 217.484375 429.953125 Z M 145.910156 501.53125 L 215.15625 501.53125 L 215.15625 432.285156 L 145.910156 432.285156 Z M 145.910156 501.53125 " fill-opacity="1" fill-rule="nonzero"/><path fill="#000000" d="M 289.058594 503.859375 L 215.15625 503.859375 L 215.15625 429.953125 L 289.058594 429.953125 Z M 217.484375 501.53125 L 286.730469 501.53125 L 286.730469 432.285156 L 217.484375 432.285156 Z M 217.484375 501.53125 " fill-opacity="1" fill-rule="nonzero"/><path fill="#000000" d="M 360.632812 503.859375 L 286.730469 503.859375 L 286.730469 429.953125 L 360.632812 429.953125 Z M 289.058594 501.53125 L 358.304688 501.53125 L 358.304688 432.285156 L 289.058594 432.285156 Z M 289.058594 501.53125 " fill-opacity="1" fill-rule="nonzero"/><path fill="#000000" d="M 432.207031 503.859375 L 358.304688 503.859375 L 358.304688 429.953125 L 432.207031 429.953125 Z M 360.632812 501.53125 L 429.878906 501.53125 L 429.878906 432.285156 L 360.632812 432.285156 Z M 360.632812 501.53125 " fill-opacity="1" fill-rule="nonzero"/><path fill="#000000" d="M 503.765625 503.859375 L 429.863281 503.859375 L 429.863281 429.953125 L 503.765625 429.953125 Z M 432.207031 501.53125 L 501.453125 501.53125 L 501.453125 432.285156 L 432.207031 432.285156 Z M 432.207031 501.53125 " fill-opacity="1" fill-rule="nonzero"/><path fill="#000000" d="M 575.339844 503.859375 L 501.4375 503.859375 L 501.4375 429.953125 L 575.339844 429.953125 Z M 503.765625 501.53125 L 573.011719 501.53125 L 573.011719 432.285156 L 503.765625 432.285156 Z M 503.765625 501.53125 " fill-opacity="1" fill-rule="nonzero"/><g clip-path="url(#f606415fed)"><path fill="#000000" d="M 646.914062 503.859375 L 573.011719 503.859375 L 573.011719 429.953125 L 646.914062 429.953125 Z M 575.339844 501.53125 L 644.585938 501.53125 L 644.585938 432.285156 L 575.339844 432.285156 Z M 575.339844 501.53125 " fill-opacity="1" fill-rule="nonzero"/></g><g clip-path="url(#62584160a0)"><path fill="#000000" d="M 74.335938 575.433594 L 0.429688 575.433594 L 0.429688 501.53125 L 74.335938 501.53125 Z M 2.757812 573.105469 L 72.003906 573.105469 L 72.003906 503.859375 L 2.757812 503.859375 Z M 2.757812 573.105469 " fill-opacity="1" fill-rule="nonzero"/></g><path fill="#000000" d="M 145.910156 575.433594 L 72.003906 575.433594 L 72.003906 501.53125 L 145.910156 501.53125 Z M 74.335938 573.105469 L 143.582031 573.105469 L 143.582031 503.859375 L 74.335938 503.859375 Z M 74.335938 573.105469 " fill-opacity="1" fill-rule="nonzero"/><path fill="#000000" d="M 217.484375 575.433594 L 143.582031 575.433594 L 143.582031 501.53125 L 217.484375 501.53125 Z M 145.910156 573.105469 L 215.15625 573.105469 L 215.15625 503.859375 L 145.910156 503.859375 Z M 145.910156 573.105469 " fill-opacity="1" fill-rule="nonzero"/><path fill="#000000" d="M 289.058594 575.433594 L 215.15625 575.433594 L 215.15625 501.53125 L 289.058594 501.53125 Z M 217.484375 573.105469 L 286.730469 573.105469 L 286.730469 503.859375 L 217.484375 503.859375 Z M 217.484375 573.105469 " fill-opacity="1" fill-rule="nonzero"/><path fill="#000000" d="M 360.632812 575.433594 L 286.730469 575.433594 L 286.730469 501.53125 L 360.632812 501.53125 Z M 289.058594 573.105469 L 358.304688 573.105469 L 358.304688 503.859375 L 289.058594 503.859375 Z M 289.058594 573.105469 " fill-opacity="1" fill-rule="nonzero"/><path fill="#000000" d="M 432.207031 575.433594 L 358.304688 575.433594 L 358.304688 501.53125 L 432.207031 501.53125 Z M 360.632812 573.105469 L 429.878906 573.105469 L 429.878906 503.859375 L 360.632812 503.859375 Z M 360.632812 573.105469 " fill-opacity="1" fill-rule="nonzero"/><path fill="#000000" d="M 503.765625 575.433594 L 429.863281 575.433594 L 429.863281 501.53125 L 503.765625 501.53125 Z M 432.207031 573.105469 L 501.453125 573.105469 L 501.453125 503.859375 L 432.207031 503.859375 Z M 432.207031 573.105469 " fill-opacity="1" fill-rule="nonzero"/><path fill="#000000" d="M 575.339844 575.433594 L 501.4375 575.433594 L 501.4375 501.53125 L 575.339844 501.53125 Z M 503.765625 573.105469 L 573.011719 573.105469 L 573.011719 503.859375 L 503.765625 503.859375 Z M 503.765625 573.105469 " fill-opacity="1" fill-rule="nonzero"/><g clip-path="url(#38bf4fb098)"><path fill="#000000" d="M 646.914062 575.433594 L 573.011719 575.433594 L 573.011719 501.53125 L 646.914062 501.53125 Z M 575.339844 573.105469 L 644.585938 573.105469 L 644.585938 503.859375 L 575.339844 503.859375 Z M 575.339844 573.105469 " fill-opacity="1" fill-rule="nonzero"/></g><g clip-path="url(#4c068c3856)"><path fill="#000000" d="M 74.335938 647.007812 L 0.429688 647.007812 L 0.429688 573.105469 L 74.335938 573.105469 Z M 2.757812 644.679688 L 72.003906 644.679688 L 72.003906 575.433594 L 2.757812 575.433594 Z M 2.757812 644.679688 " fill-opacity="1" fill-rule="nonzero"/></g><g clip-path="url(#4192b11050)"><path fill="#000000" d="M 145.910156 647.007812 L 72.003906 647.007812 L 72.003906 573.105469 L 145.910156 573.105469 Z M 74.335938 644.679688 L 143.582031 644.679688 L 143.582031 575.433594 L 74.335938 575.433594 Z M 74.335938 644.679688 " fill-opacity="1" fill-rule="nonzero"/></g><g clip-path="url(#e071b86d73)"><path fill="#000000" d="M 217.484375 647.007812 L 143.582031 647.007812 L 143.582031 573.105469 L 217.484375 573.105469 Z M 145.910156 644.679688 L 215.15625 644.679688 L 215.15625 575.433594 L 145.910156 575.433594 Z M 145.910156 644.679688 " fill-opacity="1" fill-rule="nonzero"/></g><g clip-path="url(#79171a32a2)"><path fill="#000000" d="M 289.058594 647.007812 L 215.15625 647.007812 L 215.15625 573.105469 L 289.058594 573.105469 Z M 217.484375 644.679688 L 286.730469 644.679688 L 286.730469 575.433594 L 217.484375 575.433594 Z M 217.484375 644.679688 " fill-opacity="1" fill-rule="nonzero"/></g><g clip-path="url(#52905f73a4)"><path fill="#000000" d="M 360.632812 647.007812 L 286.730469 647.007812 L 286.730469 573.105469 L 360.632812 573.105469 Z M 289.058594 644.679688 L 358.304688 644.679688 L 358.304688 575.433594 L 289.058594 575.433594 Z M 289.058594 644.679688 " fill-opacity="1" fill-rule="nonzero"/></g><g clip-path="url(#88266c1593)"><path fill="#000000" d="M 432.207031 647.007812 L 358.304688 647.007812 L 358.304688 573.105469 L 432.207031 573.105469 Z M 360.632812 644.679688 L 429.878906 644.679688 L 429.878906 575.433594 L 360.632812 575.433594 Z M 360.632812 644.679688 " fill-opacity="1" fill-rule="nonzero"/></g><g clip-path="url(#67bd9ff3cb)"><path fill="#000000" d="M 503.765625 647.007812 L 429.863281 647.007812 L 429.863281 573.105469 L 503.765625 573.105469 Z M 432.207031 644.679688 L 501.453125 644.679688 L 501.453125 575.433594 L 432.207031 575.433594 Z M 432.207031 644.679688 " fill-opacity="1" fill-rule="nonzero"/></g><g clip-path="url(#c42b16cade)"><path fill="#000000" d="M 575.339844 647.007812 L 501.4375 647.007812 L 501.4375 573.105469 L 575.339844 573.105469 Z M 503.765625 644.679688 L 573.011719 644.679688 L 573.011719 575.433594 L 503.765625 575.433594 Z M 503.765625 644.679688 " fill-opacity="1" fill-rule="nonzero"/></g><g clip-path="url(#2c27fc2e70)"><path fill="#000000" d="M 646.914062 647.007812 L 573.011719 647.007812 L 573.011719 573.105469 L 646.914062 573.105469 Z M 575.339844 644.679688 L 644.585938 644.679688 L 644.585938 575.433594 L 575.339844 575.433594 Z M 575.339844 644.679688 " fill-opacity="1" fill-rule="nonzero"/></g></g></g></g></svg>