<svg width="44" height="12" viewBox="0 0 44 12" fill="none" xmlns="http://www.w3.org/2000/svg">
<path d="M7.79353 0.830299C7.25513 0.460171 6.55257 0.274658 5.68584 0.274658H2.33033C2.06462 0.274658 1.91783 0.407543 1.88994 0.673055L0.526801 9.22966C0.512634 9.3137 0.53366 9.39056 0.589685 9.46043C0.64539 9.53043 0.715454 9.56524 0.799365 9.56524H2.39321C2.67276 9.56524 2.82642 9.43267 2.85462 9.16684L3.23206 6.86004C3.24584 6.74825 3.295 6.65735 3.37892 6.58735C3.46276 6.51748 3.56763 6.47177 3.69347 6.45081C3.8193 6.43004 3.93795 6.41959 4.05 6.41959C4.16174 6.41959 4.29449 6.42665 4.44853 6.44056C4.60218 6.45453 4.70013 6.46133 4.74212 6.46133C5.94443 6.46133 6.88814 6.12254 7.57334 5.44427C8.25821 4.76626 8.60103 3.82613 8.60103 2.6235C8.60103 1.7987 8.33167 1.201 7.79353 0.830299ZM6.0634 3.39953C5.99327 3.88895 5.81173 4.21036 5.51815 4.36421C5.22449 4.51825 4.80507 4.59485 4.25988 4.59485L3.56776 4.61581L3.92436 2.37177C3.95218 2.21812 4.04302 2.1412 4.19693 2.1412H4.59552C5.15449 2.1412 5.5602 2.22177 5.81186 2.38229C6.0634 2.54318 6.14731 2.88235 6.0634 3.39953Z" fill="#003087"/>
<path d="M43.2048 0.274658H41.653C41.4988 0.274658 41.408 0.351582 41.3803 0.505428L40.0171 9.22972L39.996 9.27165C39.996 9.3419 40.024 9.40799 40.0801 9.47094C40.1357 9.53376 40.2059 9.56524 40.2897 9.56524H41.674C41.9392 9.56524 42.0861 9.43267 42.1144 9.16684L43.4776 0.589081V0.568248C43.4775 0.372543 43.3864 0.274658 43.2048 0.274658Z" fill="#009CDE"/>
<path d="M24.4558 3.65101C24.4558 3.58127 24.4276 3.51473 24.3721 3.45191C24.316 3.38902 24.253 3.35742 24.1833 3.35742H22.5684C22.4143 3.35742 22.2885 3.42768 22.1909 3.5671L19.9679 6.8389L19.0451 3.69306C18.975 3.46954 18.8213 3.35742 18.5838 3.35742H17.0107C16.9406 3.35742 16.8777 3.38896 16.8221 3.45191C16.766 3.51473 16.7382 3.58133 16.7382 3.65101C16.7382 3.67922 16.8746 4.09146 17.1471 4.88838C17.4197 5.6855 17.7133 6.54537 18.0279 7.46819C18.3425 8.39082 18.5067 8.88044 18.5207 8.93601C17.3742 10.502 16.8011 11.341 16.8011 11.4526C16.8011 11.6345 16.8919 11.7253 17.0737 11.7253H18.6886C18.8423 11.7253 18.9681 11.6556 19.0661 11.5157L24.414 3.79781C24.4418 3.77005 24.4558 3.72133 24.4558 3.65101Z" fill="#003087"/>
<path d="M39.4928 3.35743H37.8988C37.703 3.35743 37.5844 3.5882 37.5425 4.04961C37.1786 3.49057 36.5149 3.21063 35.55 3.21063C34.5433 3.21063 33.6868 3.5882 32.981 4.3432C32.2748 5.0982 31.9219 5.98621 31.9219 7.00672C31.9219 7.83179 32.163 8.48884 32.6453 8.97801C33.1277 9.46769 33.7743 9.71204 34.5855 9.71204C34.9908 9.71204 35.4032 9.62801 35.8226 9.46038C36.2421 9.29262 36.5704 9.06903 36.8085 8.78929C36.8085 8.80333 36.7942 8.86615 36.7665 8.97794C36.7383 9.08999 36.7245 9.17403 36.7245 9.22961C36.7245 9.45358 36.8151 9.56512 36.9972 9.56512H38.4444C38.7096 9.56512 38.8637 9.43256 38.9055 9.16672L39.7655 3.693C39.7792 3.60909 39.7583 3.5323 39.7025 3.4623C39.6464 3.39249 39.5767 3.35743 39.4928 3.35743ZM36.756 7.48903C36.3994 7.83858 35.9696 8.01326 35.4662 8.01326C35.0606 8.01326 34.7323 7.9016 34.4805 7.67775C34.2288 7.45442 34.103 7.14679 34.103 6.75499C34.103 6.23801 34.2777 5.80076 34.6273 5.44429C34.9765 5.08775 35.4103 4.90948 35.9276 4.90948C36.3187 4.90948 36.6439 5.02486 36.9028 5.25544C37.1612 5.48621 37.2908 5.80435 37.2908 6.20986C37.2908 6.71313 37.1124 7.13967 36.756 7.48903Z" fill="#009CDE"/>
<path d="M15.6687 3.35743H14.0748C13.8787 3.35743 13.7602 3.5882 13.7182 4.04961C13.3407 3.49057 12.6765 3.21063 11.7258 3.21063C10.7191 3.21063 9.86266 3.5882 9.15669 4.3432C8.45054 5.0982 8.09766 5.98621 8.09766 7.00672C8.09766 7.83179 8.33887 8.48884 8.82125 8.97801C9.30362 9.46769 9.95009 9.71204 10.7611 9.71204C11.1524 9.71204 11.5581 9.62801 11.9775 9.46038C12.3969 9.29262 12.7325 9.06903 12.9841 8.78929C12.928 8.95704 12.9002 9.1039 12.9002 9.22961C12.9002 9.45358 12.9911 9.56512 13.1729 9.56512H14.6199C14.8854 9.56512 15.0393 9.43256 15.0813 9.16672L15.9411 3.693C15.9549 3.60909 15.934 3.5323 15.8782 3.4623C15.8223 3.39249 15.7524 3.35743 15.6687 3.35743ZM12.9318 7.49941C12.5752 7.84236 12.138 8.01326 11.6211 8.01326C11.2153 8.01326 10.8903 7.9016 10.6458 7.67775C10.401 7.45442 10.2787 7.14679 10.2787 6.75499C10.2787 6.23801 10.4534 5.80076 10.8031 5.44429C11.1524 5.08775 11.5859 4.90948 12.1034 4.90948C12.4946 4.90948 12.8197 5.02486 13.0786 5.25544C13.3371 5.48621 13.4666 5.80435 13.4666 6.20986C13.4666 6.72717 13.2883 7.15724 12.9318 7.49941Z" fill="#003087"/>
<path d="M31.6177 0.830299C31.0794 0.460171 30.3769 0.274658 29.5101 0.274658H26.1755C25.8957 0.274658 25.7419 0.407543 25.7141 0.673055L24.351 9.22966C24.3368 9.3137 24.3578 9.39056 24.4139 9.46043C24.4694 9.53043 24.5396 9.56524 24.6235 9.56524H26.3431C26.5109 9.56524 26.6227 9.47447 26.6787 9.29267L27.0563 6.86004C27.0701 6.74825 27.1191 6.65735 27.2031 6.58735C27.287 6.51748 27.3917 6.47177 27.5177 6.45081C27.6435 6.43004 27.7621 6.41959 27.8742 6.41959C27.986 6.41959 28.1187 6.42665 28.2726 6.44056C28.4263 6.45453 28.5245 6.46133 28.5662 6.46133C29.7687 6.46133 30.7122 6.12254 31.3974 5.44427C32.0825 4.76626 32.4251 3.82613 32.4251 2.6235C32.4251 1.7987 32.1558 1.201 31.6177 0.830299ZM29.4681 4.2803C29.1605 4.48998 28.699 4.59479 28.084 4.59479L27.4128 4.61575L27.7694 2.37171C27.7971 2.21806 27.888 2.14113 28.042 2.14113H28.4194C28.7269 2.14113 28.9715 2.15511 29.1536 2.18299C29.3351 2.21113 29.5101 2.29831 29.6778 2.44511C29.8457 2.5919 29.9295 2.80524 29.9295 3.08479C29.9295 3.67209 29.7755 4.07043 29.4681 4.2803Z" fill="#009CDE"/>
</svg>
