<svg width="50" height="50" viewBox="0 0 50 50" fill="none" xmlns="http://www.w3.org/2000/svg">
<path d="M9.3087 36.5247C11.7145 41.0737 16.5183 42.7083 25.0001 42.7083C36.7198 42.7083 41.4175 39.5874 42.4695 29.9693M9.3087 36.5247C7.87349 33.8109 7.29175 30.0599 7.29175 25C7.29175 11.4583 11.4584 7.29163 25.0001 7.29163C38.5418 7.29163 42.7084 11.4583 42.7084 25C42.7084 26.8219 42.633 28.4741 42.4695 29.9693M9.3087 36.5247L15.8038 30.0296C17.431 28.4024 20.0692 28.4024 21.6964 30.0296L22.0538 30.387C23.681 32.0142 26.3192 32.0142 27.9464 30.387L32.4705 25.8629C34.0977 24.2357 36.7358 24.2357 38.363 25.8629L42.4695 29.9693M22.273 18.4291C22.273 20.552 20.5501 22.275 18.4272 22.275C16.3063 22.275 14.5834 20.552 14.5834 18.4291C14.5834 16.3062 16.3063 14.5833 18.4272 14.5833C20.5501 14.5833 22.273 16.3062 22.273 18.4291Z" stroke="#001A72" stroke-width="1.5" stroke-linecap="round" stroke-linejoin="round"/>
</svg>
