<svg width="20" height="18" viewBox="0 0 20 18" fill="none" xmlns="http://www.w3.org/2000/svg">
<path d="M1 9H5.26393C6.02148 9 6.714 9.42801 7.05279 10.1056L7.44721 10.8944C7.786 11.572 8.47852 12 9.23607 12H10.9296C11.5983 12 12.2228 11.6658 12.5937 11.1094L13.4063 9.8906C13.7772 9.3342 14.4017 9 15.0704 9H19M1 9V15C1 16.1046 1.89543 17 3 17H17C18.1046 17 19 16.1046 19 15V9M1 9L3.51334 2.29775C3.80607 1.51715 4.55231 1 5.386 1H14.614C15.4477 1 16.1939 1.51715 16.4867 2.29775L19 9" stroke="#001A72" stroke-width="1.5" stroke-linecap="round" stroke-linejoin="round"/>
</svg>
